<?xml version="1.0" encoding="UTF-8" standalone="no"?>
<!DOCTYPE svg PUBLIC "-//W3C//DTD SVG 1.1//EN"
 "http://www.w3.org/Graphics/SVG/1.1/DTD/svg11.dtd">
<!-- Generated by graphviz version 11.0.0 (20240428.1522)
 -->
<!-- Title: G Pages: 1 -->
<svg width="1498pt" height="147pt"
 viewBox="0.00 0.00 1497.95 146.95" xmlns="http://www.w3.org/2000/svg" xmlns:xlink="http://www.w3.org/1999/xlink">
<g id="graph0" class="graph" transform="scale(1 1) rotate(0) translate(21.6 125.35)">
<title>G</title>
<polygon fill="#111111" stroke="none" points="-21.6,21.6 -21.6,-125.35 1476.35,-125.35 1476.35,21.6 -21.6,21.6"/>
<!-- src/shared/models/keml/author.ts -->
<g id="node1" class="node">
<title>src/shared/models/keml/author.ts</title>
<path fill="none" stroke="#ff6c60" d="M207.58,-63.75C207.58,-63.75 7.92,-63.75 7.92,-63.75 3.96,-63.75 0,-59.79 0,-55.83 0,-55.83 0,-47.92 0,-47.92 0,-43.96 3.96,-40 7.92,-40 7.92,-40 207.58,-40 207.58,-40 211.54,-40 215.5,-43.96 215.5,-47.92 215.5,-47.92 215.5,-55.83 215.5,-55.83 215.5,-59.79 211.54,-63.75 207.58,-63.75"/>
<text text-anchor="middle" x="107.75" y="-46.45" font-family="Arial" font-size="14.00" fill="#ff6c60">src/shared/models/keml/author.ts</text>
</g>
<!-- src/shared/models/keml/msg&#45;info.ts -->
<g id="node2" class="node">
<title>src/shared/models/keml/msg&#45;info.ts</title>
<path fill="none" stroke="#ff6c60" d="M474.08,-103.75C474.08,-103.75 259.42,-103.75 259.42,-103.75 255.46,-103.75 251.5,-99.79 251.5,-95.83 251.5,-95.83 251.5,-87.92 251.5,-87.92 251.5,-83.96 255.46,-80 259.42,-80 259.42,-80 474.08,-80 474.08,-80 478.04,-80 482,-83.96 482,-87.92 482,-87.92 482,-95.83 482,-95.83 482,-99.79 478.04,-103.75 474.08,-103.75"/>
<text text-anchor="middle" x="366.75" y="-86.45" font-family="Arial" font-size="14.00" fill="#ff6c60">src/shared/models/keml/msg&#45;info.ts</text>
</g>
<!-- src/shared/models/keml/author.ts&#45;&gt;src/shared/models/keml/msg&#45;info.ts -->
<g id="edge1" class="edge">
<title>src/shared/models/keml/author.ts&#45;&gt;src/shared/models/keml/msg&#45;info.ts</title>
<path fill="none" stroke="#757575" d="M187.96,-64.2C215.56,-68.5 246.74,-73.35 275.19,-77.78"/>
<polygon fill="#757575" stroke="#757575" points="274.45,-81.21 284.87,-79.29 275.53,-74.29 274.45,-81.21"/>
</g>
<!-- src/shared/models/parser/parser.ts -->
<g id="node3" class="node">
<title>src/shared/models/parser/parser.ts</title>
<path fill="none" stroke="#ff6c60" d="M734.58,-23.75C734.58,-23.75 525.92,-23.75 525.92,-23.75 521.96,-23.75 518,-19.79 518,-15.83 518,-15.83 518,-7.92 518,-7.92 518,-3.96 521.96,0 525.92,0 525.92,0 734.58,0 734.58,0 738.54,0 742.5,-3.96 742.5,-7.92 742.5,-7.92 742.5,-15.83 742.5,-15.83 742.5,-19.79 738.54,-23.75 734.58,-23.75"/>
<text text-anchor="middle" x="630.25" y="-6.45" font-family="Arial" font-size="14.00" fill="#ff6c60">src/shared/models/parser/parser.ts</text>
</g>
<!-- src/shared/models/keml/author.ts&#45;&gt;src/shared/models/parser/parser.ts -->
<g id="edge2" class="edge">
<title>src/shared/models/keml/author.ts&#45;&gt;src/shared/models/parser/parser.ts</title>
<path fill="none" stroke="#757575" d="M215.9,-41.03C227.9,-39.91 239.96,-38.84 251.5,-37.88 336.55,-30.78 432.5,-24.19 506.41,-19.42"/>
<polygon fill="#757575" stroke="#757575" points="506.35,-22.94 516.1,-18.8 505.9,-15.95 506.35,-22.94"/>
</g>
<!-- src/shared/models/keml/msg&#45;info.ts&#45;&gt;src/shared/models/parser/parser.ts -->
<g id="edge5" class="edge">
<title>src/shared/models/keml/msg&#45;info.ts&#45;&gt;src/shared/models/parser/parser.ts</title>
<path fill="none" stroke="#757575" d="M408.04,-79.55C453.72,-65.57 528.31,-42.76 578.08,-27.53"/>
<polygon fill="#757575" stroke="#757575" points="578.93,-30.93 587.47,-24.66 576.88,-24.24 578.93,-30.93"/>
</g>
<!-- src/shared/models/keml/conversation&#45;partner.ts -->
<g id="node4" class="node">
<title>src/shared/models/keml/conversation&#45;partner.ts</title>
<path fill="none" stroke="#ff6c60" d="M1446.83,-63.75C1446.83,-63.75 1161.67,-63.75 1161.67,-63.75 1157.71,-63.75 1153.75,-59.79 1153.75,-55.83 1153.75,-55.83 1153.75,-47.92 1153.75,-47.92 1153.75,-43.96 1157.71,-40 1161.67,-40 1161.67,-40 1446.83,-40 1446.83,-40 1450.79,-40 1454.75,-43.96 1454.75,-47.92 1454.75,-47.92 1454.75,-55.83 1454.75,-55.83 1454.75,-59.79 1450.79,-63.75 1446.83,-63.75"/>
<text text-anchor="middle" x="1304.25" y="-46.45" font-family="Arial" font-size="14.00" fill="#ff6c60">src/shared/models/keml/conversation&#45;partner.ts</text>
</g>
<!-- src/shared/models/keml/msg&#45;info.ts&#45;&gt;src/shared/models/keml/conversation&#45;partner.ts -->
<g id="edge4" class="edge">
<title>src/shared/models/keml/msg&#45;info.ts&#45;&gt;src/shared/models/keml/conversation&#45;partner.ts</title>
<path fill="none" stroke="#757575" d="M482.29,-92.6C629.55,-92.7 893.07,-90.06 1117.75,-72.88 1142.8,-70.96 1169.7,-68.28 1195.01,-65.47"/>
<polygon fill="#757575" stroke="#757575" points="1195.09,-68.98 1204.64,-64.39 1194.31,-62.03 1195.09,-68.98"/>
</g>
<!-- src/shared/models/keml/parser/constructor&#45;pointers.ts -->
<g id="node5" class="node">
<title>src/shared/models/keml/parser/constructor&#45;pointers.ts</title>
<path fill="none" stroke="#ff6c60" d="M1109.83,-63.75C1109.83,-63.75 786.42,-63.75 786.42,-63.75 782.46,-63.75 778.5,-59.79 778.5,-55.83 778.5,-55.83 778.5,-47.92 778.5,-47.92 778.5,-43.96 782.46,-40 786.42,-40 786.42,-40 1109.83,-40 1109.83,-40 1113.79,-40 1117.75,-43.96 1117.75,-47.92 1117.75,-47.92 1117.75,-55.83 1117.75,-55.83 1117.75,-59.79 1113.79,-63.75 1109.83,-63.75"/>
<text text-anchor="middle" x="948.12" y="-46.45" font-family="Arial" font-size="14.00" fill="#ff6c60">src/shared/models/keml/parser/constructor&#45;pointers.ts</text>
</g>
<!-- src/shared/models/parser/parser.ts&#45;&gt;src/shared/models/keml/parser/constructor&#45;pointers.ts -->
<g id="edge10" class="edge">
<title>src/shared/models/parser/parser.ts&#45;&gt;src/shared/models/keml/parser/constructor&#45;pointers.ts</title>
<path fill="none" stroke="#757575" d="M742.62,-19.5C788.63,-24.78 840.43,-31.62 880.38,-37.79"/>
<polygon fill="#757575" stroke="#757575" points="879.67,-41.23 890.09,-39.32 880.76,-34.31 879.67,-41.23"/>
</g>
<!-- src/shared/models/keml/conversation&#45;partner.ts&#45;&gt;src/shared/models/parser/parser.ts -->
<g id="edge3" class="edge">
<title>src/shared/models/keml/conversation&#45;partner.ts&#45;&gt;src/shared/models/parser/parser.ts</title>
<path fill="none" stroke="#757575" d="M1206.14,-39.52C1177.7,-36.27 1146.51,-33.06 1117.75,-30.88 994.32,-21.49 852.89,-16.63 754.46,-14.18"/>
<polygon fill="#757575" stroke="#757575" points="754.57,-10.68 744.48,-13.94 754.4,-17.68 754.57,-10.68"/>
</g>
<!-- src/shared/models/keml/parser/constructor&#45;pointers.ts&#45;&gt;src/shared/models/keml/author.ts -->
<g id="edge6" class="edge">
<title>src/shared/models/keml/parser/constructor&#45;pointers.ts&#45;&gt;src/shared/models/keml/author.ts</title>
<path fill="none" stroke="#757575" d="M778.06,-51.88C614.58,-51.88 371.06,-51.88 227.24,-51.88"/>
<polygon fill="#757575" stroke="#757575" points="227.3,-48.38 217.3,-51.88 227.3,-55.38 227.3,-48.38"/>
</g>
<!-- src/shared/models/keml/parser/constructor&#45;pointers.ts&#45;&gt;src/shared/models/keml/msg&#45;info.ts -->
<g id="edge8" class="edge">
<title>src/shared/models/keml/parser/constructor&#45;pointers.ts&#45;&gt;src/shared/models/keml/msg&#45;info.ts</title>
<path fill="none" stroke="#757575" d="M778.27,-63.53C687.28,-69.81 576.91,-77.43 493.54,-83.19"/>
<polygon fill="#757575" stroke="#757575" points="493.46,-79.69 483.73,-83.87 493.94,-86.67 493.46,-79.69"/>
</g>
<!-- src/shared/models/keml/parser/constructor&#45;pointers.ts&#45;&gt;src/shared/models/parser/parser.ts -->
<g id="edge9" class="edge">
<title>src/shared/models/keml/parser/constructor&#45;pointers.ts&#45;&gt;src/shared/models/parser/parser.ts</title>
<path fill="none" stroke="#757575" d="M796.32,-39.52C761.84,-35.22 726.92,-30.42 698.12,-25.98"/>
<polygon fill="#757575" stroke="#757575" points="698.91,-22.56 688.49,-24.46 697.82,-29.47 698.91,-22.56"/>
</g>
<!-- src/shared/models/keml/parser/constructor&#45;pointers.ts&#45;&gt;src/shared/models/keml/conversation&#45;partner.ts -->
<g id="edge7" class="edge">
<title>src/shared/models/keml/parser/constructor&#45;pointers.ts&#45;&gt;src/shared/models/keml/conversation&#45;partner.ts</title>
<path fill="none" stroke="#757575" d="M1118.15,-51.88C1126.04,-51.88 1133.96,-51.88 1141.83,-51.88"/>
<polygon fill="#757575" stroke="#757575" points="1141.81,-55.38 1151.81,-51.88 1141.81,-48.38 1141.81,-55.38"/>
</g>
</g>
</svg>
