<?xml version="1.0" encoding="UTF-8" standalone="no"?>
<!DOCTYPE svg PUBLIC "-//W3C//DTD SVG 1.1//EN"
 "http://www.w3.org/Graphics/SVG/1.1/DTD/svg11.dtd">
<!-- Generated by graphviz version 11.0.0 (20240428.1522)
 -->
<!-- Title: G Pages: 1 -->
<svg width="4198pt" height="507pt"
 viewBox="0.00 0.00 4198.45 507.46" xmlns="http://www.w3.org/2000/svg" xmlns:xlink="http://www.w3.org/1999/xlink">
<g id="graph0" class="graph" transform="scale(1 1) rotate(0) translate(21.6 485.86)">
<title>G</title>
<polygon fill="#111111" stroke="none" points="-21.6,21.6 -21.6,-485.86 4176.85,-485.86 4176.85,21.6 -21.6,21.6"/>
<!-- src/editor/details/info&#45;details/info&#45;details.component.ts -->
<g id="node1" class="node">
<title>src/editor/details/info&#45;details/info&#45;details.component.ts</title>
<path fill="none" stroke="#ff6c60" d="M329.83,-284.05C329.83,-284.05 7.92,-284.05 7.92,-284.05 3.96,-284.05 0,-280.1 0,-276.14 0,-276.14 0,-268.22 0,-268.22 0,-264.26 3.96,-260.3 7.92,-260.3 7.92,-260.3 329.83,-260.3 329.83,-260.3 333.79,-260.3 337.75,-264.26 337.75,-268.22 337.75,-268.22 337.75,-276.14 337.75,-276.14 337.75,-280.1 333.79,-284.05 329.83,-284.05"/>
<text text-anchor="middle" x="168.88" y="-266.75" font-family="Arial" font-size="14.00" fill="#ff6c60">src/editor/details/info&#45;details/info&#45;details.component.ts</text>
</g>
<!-- src/editor/details/service/details.service.ts -->
<g id="node2" class="node">
<title>src/editor/details/service/details.service.ts</title>
<path fill="none" stroke="#ff6c60" d="M2656.58,-242.05C2656.58,-242.05 2408.17,-242.05 2408.17,-242.05 2404.21,-242.05 2400.25,-238.1 2400.25,-234.14 2400.25,-234.14 2400.25,-226.22 2400.25,-226.22 2400.25,-222.26 2404.21,-218.3 2408.17,-218.3 2408.17,-218.3 2656.58,-218.3 2656.58,-218.3 2660.54,-218.3 2664.5,-222.26 2664.5,-226.22 2664.5,-226.22 2664.5,-234.14 2664.5,-234.14 2664.5,-238.1 2660.54,-242.05 2656.58,-242.05"/>
<text text-anchor="middle" x="2532.38" y="-224.75" font-family="Arial" font-size="14.00" fill="#ff6c60">src/editor/details/service/details.service.ts</text>
</g>
<!-- src/editor/details/info&#45;details/info&#45;details.component.ts&#45;&gt;src/editor/details/service/details.service.ts -->
<g id="edge1" class="edge">
<title>src/editor/details/info&#45;details/info&#45;details.component.ts&#45;&gt;src/editor/details/service/details.service.ts</title>
<path fill="none" stroke="#757575" d="M240.82,-259.83C368.13,-244.22 643.88,-221.18 877.12,-221.18 877.12,-221.18 877.12,-221.18 1847,-221.18 2034.07,-221.18 2249.91,-221.18 2388.37,-223.27"/>
<polygon fill="#757575" stroke="#757575" points="2388.29,-226.77 2398.34,-223.43 2388.4,-219.77 2388.29,-226.77"/>
</g>
<!-- src/editor/details/service/msg&#45;details.service.ts -->
<g id="node3" class="node">
<title>src/editor/details/service/msg&#45;details.service.ts</title>
<path fill="none" stroke="#ff6c60" d="M660.83,-309.05C660.83,-309.05 381.67,-309.05 381.67,-309.05 377.71,-309.05 373.75,-305.1 373.75,-301.14 373.75,-301.14 373.75,-293.22 373.75,-293.22 373.75,-289.26 377.71,-285.3 381.67,-285.3 381.67,-285.3 660.83,-285.3 660.83,-285.3 664.79,-285.3 668.75,-289.26 668.75,-293.22 668.75,-293.22 668.75,-301.14 668.75,-301.14 668.75,-305.1 664.79,-309.05 660.83,-309.05"/>
<text text-anchor="middle" x="521.25" y="-291.75" font-family="Arial" font-size="14.00" fill="#ff6c60">src/editor/details/service/msg&#45;details.service.ts</text>
</g>
<!-- src/editor/details/info&#45;details/info&#45;details.component.ts&#45;&gt;src/editor/details/service/msg&#45;details.service.ts -->
<g id="edge2" class="edge">
<title>src/editor/details/info&#45;details/info&#45;details.component.ts&#45;&gt;src/editor/details/service/msg&#45;details.service.ts</title>
<path fill="none" stroke="#757575" d="M338.14,-284.18C346.13,-284.75 354.14,-285.33 362.1,-285.89"/>
<polygon fill="#757575" stroke="#757575" points="361.58,-289.37 371.81,-286.59 362.08,-282.38 361.58,-289.37"/>
</g>
<!-- src/shared/models/keml/msg&#45;info.ts -->
<g id="node4" class="node">
<title>src/shared/models/keml/msg&#45;info.ts</title>
<path fill="none" stroke="#ff6c60" d="M4147.33,-249.05C4147.33,-249.05 3932.67,-249.05 3932.67,-249.05 3928.71,-249.05 3924.75,-245.1 3924.75,-241.14 3924.75,-241.14 3924.75,-233.22 3924.75,-233.22 3924.75,-229.26 3928.71,-225.3 3932.67,-225.3 3932.67,-225.3 4147.33,-225.3 4147.33,-225.3 4151.29,-225.3 4155.25,-229.26 4155.25,-233.22 4155.25,-233.22 4155.25,-241.14 4155.25,-241.14 4155.25,-245.1 4151.29,-249.05 4147.33,-249.05"/>
<text text-anchor="middle" x="4040" y="-231.75" font-family="Arial" font-size="14.00" fill="#ff6c60">src/shared/models/keml/msg&#45;info.ts</text>
</g>
<!-- src/editor/details/info&#45;details/info&#45;details.component.ts&#45;&gt;src/shared/models/keml/msg&#45;info.ts -->
<g id="edge3" class="edge">
<title>src/editor/details/info&#45;details/info&#45;details.component.ts&#45;&gt;src/shared/models/keml/msg&#45;info.ts</title>
<path fill="none" stroke="#757575" d="M197.54,-284.41C291.08,-324.63 604.9,-450.18 877.12,-450.18 877.12,-450.18 877.12,-450.18 3468.62,-450.18 3656.07,-450.18 3722.14,-499.07 3888.75,-413.18 3956.5,-378.25 4006.35,-298.43 4027.62,-259.44"/>
<polygon fill="#757575" stroke="#757575" points="4030.66,-261.19 4032.26,-250.72 4024.47,-257.91 4030.66,-261.19"/>
</g>
<!-- src/editor/details/service/details.service.ts&#45;&gt;src/editor/details/info&#45;details/info&#45;details.component.ts -->
<g id="edge8" class="edge">
<title>src/editor/details/service/details.service.ts&#45;&gt;src/editor/details/info&#45;details/info&#45;details.component.ts</title>
<path fill="none" stroke="#757575" d="M2399.86,-236.9C2262.07,-239.18 2039.33,-239.18 1847,-239.18 877.12,-239.18 877.12,-239.18 877.12,-239.18 697.34,-239.18 492.29,-252.87 349.44,-262.94"/>
<polygon fill="#757575" stroke="#757575" points="349.21,-259.45 339.48,-263.65 349.7,-266.43 349.21,-259.45"/>
</g>
<!-- src/editor/details/service/details.service.ts&#45;&gt;src/shared/models/keml/msg&#45;info.ts -->
<g id="edge10" class="edge">
<title>src/editor/details/service/details.service.ts&#45;&gt;src/shared/models/keml/msg&#45;info.ts</title>
<path fill="none" stroke="#757575" d="M2627.01,-217.82C2747.48,-203.01 2963.31,-180.18 3148.75,-180.18 3148.75,-180.18 3148.75,-180.18 3468.62,-180.18 3640.85,-180.18 3840.87,-206.23 3952.41,-223.11"/>
<polygon fill="#757575" stroke="#757575" points="3951.67,-226.53 3962.09,-224.58 3952.73,-219.61 3951.67,-226.53"/>
</g>
<!-- src/shared/models/keml/conversation&#45;partner.ts -->
<g id="node7" class="node">
<title>src/shared/models/keml/conversation&#45;partner.ts</title>
<path fill="none" stroke="#ff6c60" d="M2993.58,-306.05C2993.58,-306.05 2708.42,-306.05 2708.42,-306.05 2704.46,-306.05 2700.5,-302.1 2700.5,-298.14 2700.5,-298.14 2700.5,-290.22 2700.5,-290.22 2700.5,-286.26 2704.46,-282.3 2708.42,-282.3 2708.42,-282.3 2993.58,-282.3 2993.58,-282.3 2997.54,-282.3 3001.5,-286.26 3001.5,-290.22 3001.5,-290.22 3001.5,-298.14 3001.5,-298.14 3001.5,-302.1 2997.54,-306.05 2993.58,-306.05"/>
<text text-anchor="middle" x="2851" y="-288.75" font-family="Arial" font-size="14.00" fill="#ff6c60">src/shared/models/keml/conversation&#45;partner.ts</text>
</g>
<!-- src/editor/details/service/details.service.ts&#45;&gt;src/shared/models/keml/conversation&#45;partner.ts -->
<g id="edge9" class="edge">
<title>src/editor/details/service/details.service.ts&#45;&gt;src/shared/models/keml/conversation&#45;partner.ts</title>
<path fill="none" stroke="#757575" d="M2594.42,-242.52C2646.79,-253.1 2722.35,-268.38 2777.73,-279.57"/>
<polygon fill="#757575" stroke="#757575" points="2776.89,-282.97 2787.39,-281.52 2778.28,-276.11 2776.89,-282.97"/>
</g>
<!-- src/editor/details/service/msg&#45;details.service.ts&#45;&gt;src/shared/models/keml/msg&#45;info.ts -->
<g id="edge12" class="edge">
<title>src/editor/details/service/msg&#45;details.service.ts&#45;&gt;src/shared/models/keml/msg&#45;info.ts</title>
<path fill="none" stroke="#757575" d="M568.13,-309.49C682.89,-339.15 992.06,-412.18 1254.62,-412.18 1254.62,-412.18 1254.62,-412.18 3468.62,-412.18 3655.99,-412.18 3717.41,-453 3888.75,-377.18 3948.44,-350.77 3999.59,-290.54 4023.9,-258.36"/>
<polygon fill="#757575" stroke="#757575" points="4026.53,-260.69 4029.66,-250.57 4020.9,-256.53 4026.53,-260.69"/>
</g>
<!-- src/editor/details/msg&#45;details/msg&#45;details.component.ts -->
<g id="node5" class="node">
<title>src/editor/details/msg&#45;details/msg&#45;details.component.ts</title>
<path fill="none" stroke="#ff6c60" d="M1043.58,-309.05C1043.58,-309.05 712.67,-309.05 712.67,-309.05 708.71,-309.05 704.75,-305.1 704.75,-301.14 704.75,-301.14 704.75,-293.22 704.75,-293.22 704.75,-289.26 708.71,-285.3 712.67,-285.3 712.67,-285.3 1043.58,-285.3 1043.58,-285.3 1047.54,-285.3 1051.5,-289.26 1051.5,-293.22 1051.5,-293.22 1051.5,-301.14 1051.5,-301.14 1051.5,-305.1 1047.54,-309.05 1043.58,-309.05"/>
<text text-anchor="middle" x="878.12" y="-291.75" font-family="Arial" font-size="14.00" fill="#ff6c60">src/editor/details/msg&#45;details/msg&#45;details.component.ts</text>
</g>
<!-- src/editor/details/service/msg&#45;details.service.ts&#45;&gt;src/editor/details/msg&#45;details/msg&#45;details.component.ts -->
<g id="edge11" class="edge">
<title>src/editor/details/service/msg&#45;details.service.ts&#45;&gt;src/editor/details/msg&#45;details/msg&#45;details.component.ts</title>
<path fill="none" stroke="#757575" d="M669.15,-297.18C677.06,-297.18 685.05,-297.18 693.06,-297.18"/>
<polygon fill="#757575" stroke="#757575" points="692.87,-300.68 702.87,-297.18 692.87,-293.68 692.87,-300.68"/>
</g>
<!-- src/shared/models/keml/msg&#45;info.ts&#45;&gt;src/shared/models/keml/conversation&#45;partner.ts -->
<g id="edge24" class="edge">
<title>src/shared/models/keml/msg&#45;info.ts&#45;&gt;src/shared/models/keml/conversation&#45;partner.ts</title>
<path fill="none" stroke="#757575" d="M3924.27,-237.78C3737.92,-239.55 3358.04,-246.44 3037.5,-273.18 3013.27,-275.2 2987.32,-277.84 2962.72,-280.56"/>
<polygon fill="#757575" stroke="#757575" points="2962.59,-277.05 2953.04,-281.65 2963.36,-284.01 2962.59,-277.05"/>
</g>
<!-- src/shared/models/parser/parser.ts -->
<g id="node12" class="node">
<title>src/shared/models/parser/parser.ts</title>
<path fill="none" stroke="#ff6c60" d="M3254.08,-306.05C3254.08,-306.05 3045.42,-306.05 3045.42,-306.05 3041.46,-306.05 3037.5,-302.1 3037.5,-298.14 3037.5,-298.14 3037.5,-290.22 3037.5,-290.22 3037.5,-286.26 3041.46,-282.3 3045.42,-282.3 3045.42,-282.3 3254.08,-282.3 3254.08,-282.3 3258.04,-282.3 3262,-286.26 3262,-290.22 3262,-290.22 3262,-298.14 3262,-298.14 3262,-302.1 3258.04,-306.05 3254.08,-306.05"/>
<text text-anchor="middle" x="3149.75" y="-288.75" font-family="Arial" font-size="14.00" fill="#ff6c60">src/shared/models/parser/parser.ts</text>
</g>
<!-- src/shared/models/keml/msg&#45;info.ts&#45;&gt;src/shared/models/parser/parser.ts -->
<g id="edge25" class="edge">
<title>src/shared/models/keml/msg&#45;info.ts&#45;&gt;src/shared/models/parser/parser.ts</title>
<path fill="none" stroke="#757575" d="M3924.35,-244.54C3756.71,-255.29 3445.99,-275.23 3273.74,-286.29"/>
<polygon fill="#757575" stroke="#757575" points="3273.61,-282.79 3263.86,-286.92 3274.06,-289.77 3273.61,-282.79"/>
</g>
<!-- src/editor/details/msg&#45;details/msg&#45;details.component.ts&#45;&gt;src/editor/details/service/details.service.ts -->
<g id="edge4" class="edge">
<title>src/editor/details/msg&#45;details/msg&#45;details.component.ts&#45;&gt;src/editor/details/service/details.service.ts</title>
<path fill="none" stroke="#757575" d="M1051.95,-289.37C1191.09,-283.76 1391.71,-277.18 1567.25,-277.18 1567.25,-277.18 1567.25,-277.18 1847,-277.18 2077.14,-277.18 2135.08,-274.22 2364.25,-253.18 2389.29,-250.88 2416.33,-247.54 2441.21,-244.11"/>
<polygon fill="#757575" stroke="#757575" points="2441.56,-247.59 2450.98,-242.74 2440.59,-240.66 2441.56,-247.59"/>
</g>
<!-- src/editor/details/msg&#45;details/msg&#45;details.component.ts&#45;&gt;src/shared/models/keml/msg&#45;info.ts -->
<g id="edge7" class="edge">
<title>src/editor/details/msg&#45;details/msg&#45;details.component.ts&#45;&gt;src/shared/models/keml/msg&#45;info.ts</title>
<path fill="none" stroke="#757575" d="M945.28,-309.55C1067.61,-331.32 1337.65,-374.18 1567.25,-374.18 1567.25,-374.18 1567.25,-374.18 3468.62,-374.18 3655.82,-374.18 3712.59,-407.5 3888.75,-344.18 3941.28,-325.3 3991.93,-282.53 4018.91,-257.15"/>
<polygon fill="#757575" stroke="#757575" points="4021.23,-259.77 4026.03,-250.32 4016.39,-254.72 4021.23,-259.77"/>
</g>
<!-- src/editor/helper/info&#45;choice/info&#45;choice.component.ts -->
<g id="node6" class="node">
<title>src/editor/helper/info&#45;choice/info&#45;choice.component.ts</title>
<path fill="none" stroke="#ff6c60" d="M1415.83,-156.05C1415.83,-156.05 1095.42,-156.05 1095.42,-156.05 1091.46,-156.05 1087.5,-152.1 1087.5,-148.14 1087.5,-148.14 1087.5,-140.22 1087.5,-140.22 1087.5,-136.26 1091.46,-132.3 1095.42,-132.3 1095.42,-132.3 1415.83,-132.3 1415.83,-132.3 1419.79,-132.3 1423.75,-136.26 1423.75,-140.22 1423.75,-140.22 1423.75,-148.14 1423.75,-148.14 1423.75,-152.1 1419.79,-156.05 1415.83,-156.05"/>
<text text-anchor="middle" x="1255.62" y="-138.75" font-family="Arial" font-size="14.00" fill="#ff6c60">src/editor/helper/info&#45;choice/info&#45;choice.component.ts</text>
</g>
<!-- src/editor/details/msg&#45;details/msg&#45;details.component.ts&#45;&gt;src/editor/helper/info&#45;choice/info&#45;choice.component.ts -->
<g id="edge5" class="edge">
<title>src/editor/details/msg&#45;details/msg&#45;details.component.ts&#45;&gt;src/editor/helper/info&#45;choice/info&#45;choice.component.ts</title>
<path fill="none" stroke="#757575" d="M909.22,-284.92C976.23,-257.61 1137.82,-191.77 1213.82,-160.81"/>
<polygon fill="#757575" stroke="#757575" points="1215.05,-164.08 1222.99,-157.07 1212.4,-157.6 1215.05,-164.08"/>
</g>
<!-- src/editor/details/msg&#45;details/msg&#45;details.component.ts&#45;&gt;src/shared/models/keml/conversation&#45;partner.ts -->
<g id="edge6" class="edge">
<title>src/editor/details/msg&#45;details/msg&#45;details.component.ts&#45;&gt;src/shared/models/keml/conversation&#45;partner.ts</title>
<path fill="none" stroke="#757575" d="M1051.95,-304.2C1191.1,-309.25 1391.72,-315.18 1567.25,-315.18 1567.25,-315.18 1567.25,-315.18 2190.75,-315.18 2360.88,-315.18 2555.59,-308.11 2689.04,-302.17"/>
<polygon fill="#757575" stroke="#757575" points="2688.8,-305.68 2698.63,-301.74 2688.49,-298.69 2688.8,-305.68"/>
</g>
<!-- src/editor/helper/info&#45;choice/info&#45;choice.component.ts&#45;&gt;src/shared/models/keml/msg&#45;info.ts -->
<g id="edge14" class="edge">
<title>src/editor/helper/info&#45;choice/info&#45;choice.component.ts&#45;&gt;src/shared/models/keml/msg&#45;info.ts</title>
<path fill="none" stroke="#757575" d="M1424,-143.88C1753.95,-143.33 2511.68,-142.18 3148.75,-142.18 3148.75,-142.18 3148.75,-142.18 3468.62,-142.18 3656.37,-142.18 3705.36,-145.98 3888.75,-186.18 3926.97,-194.56 3969.04,-209.34 3998.92,-220.84"/>
<polygon fill="#757575" stroke="#757575" points="3997.34,-223.98 4007.93,-224.36 3999.89,-217.46 3997.34,-223.98"/>
</g>
<!-- src/editor/msg/msg.component.ts -->
<g id="node8" class="node">
<title>src/editor/msg/msg.component.ts</title>
<path fill="none" stroke="#ff6c60" d="M1668.83,-97.05C1668.83,-97.05 1467.67,-97.05 1467.67,-97.05 1463.71,-97.05 1459.75,-93.1 1459.75,-89.14 1459.75,-89.14 1459.75,-81.22 1459.75,-81.22 1459.75,-77.26 1463.71,-73.3 1467.67,-73.3 1467.67,-73.3 1668.83,-73.3 1668.83,-73.3 1672.79,-73.3 1676.75,-77.26 1676.75,-81.22 1676.75,-81.22 1676.75,-89.14 1676.75,-89.14 1676.75,-93.1 1672.79,-97.05 1668.83,-97.05"/>
<text text-anchor="middle" x="1568.25" y="-79.75" font-family="Arial" font-size="14.00" fill="#ff6c60">src/editor/msg/msg.component.ts</text>
</g>
<!-- src/editor/helper/info&#45;choice/info&#45;choice.component.ts&#45;&gt;src/editor/msg/msg.component.ts -->
<g id="edge13" class="edge">
<title>src/editor/helper/info&#45;choice/info&#45;choice.component.ts&#45;&gt;src/editor/msg/msg.component.ts</title>
<path fill="none" stroke="#757575" d="M1321.74,-131.81C1371.13,-122.43 1439.15,-109.51 1491.06,-99.65"/>
<polygon fill="#757575" stroke="#757575" points="1491.56,-103.12 1500.73,-97.81 1490.25,-96.24 1491.56,-103.12"/>
</g>
<!-- src/shared/models/keml/conversation&#45;partner.ts&#45;&gt;src/shared/models/parser/parser.ts -->
<g id="edge23" class="edge">
<title>src/shared/models/keml/conversation&#45;partner.ts&#45;&gt;src/shared/models/parser/parser.ts</title>
<path fill="none" stroke="#757575" d="M3001.68,-294.18C3009.81,-294.18 3017.93,-294.18 3025.94,-294.18"/>
<polygon fill="#757575" stroke="#757575" points="3025.69,-297.68 3035.69,-294.18 3025.69,-290.68 3025.69,-297.68"/>
</g>
<!-- src/editor/msg/msg.component.ts&#45;&gt;src/shared/models/keml/msg&#45;info.ts -->
<g id="edge18" class="edge">
<title>src/editor/msg/msg.component.ts&#45;&gt;src/shared/models/keml/msg&#45;info.ts</title>
<path fill="none" stroke="#757575" d="M1648.23,-72.81C1765.75,-55.51 1993.74,-26.18 2188.75,-26.18 2188.75,-26.18 2188.75,-26.18 3468.62,-26.18 3655.5,-26.18 3722.66,42.47 3888.75,-43.18 3961.76,-80.83 4010.03,-171.82 4029.4,-214.44"/>
<polygon fill="#757575" stroke="#757575" points="4026.15,-215.75 4033.39,-223.48 4032.56,-212.92 4026.15,-215.75"/>
</g>
<!-- src/editor/new&#45;info/new&#45;info.component.ts -->
<g id="node10" class="node">
<title>src/editor/new&#45;info/new&#45;info.component.ts</title>
<path fill="none" stroke="#ff6c60" d="M1971.33,-97.05C1971.33,-97.05 1720.67,-97.05 1720.67,-97.05 1716.71,-97.05 1712.75,-93.1 1712.75,-89.14 1712.75,-89.14 1712.75,-81.22 1712.75,-81.22 1712.75,-77.26 1716.71,-73.3 1720.67,-73.3 1720.67,-73.3 1971.33,-73.3 1971.33,-73.3 1975.29,-73.3 1979.25,-77.26 1979.25,-81.22 1979.25,-81.22 1979.25,-89.14 1979.25,-89.14 1979.25,-93.1 1975.29,-97.05 1971.33,-97.05"/>
<text text-anchor="middle" x="1846" y="-79.75" font-family="Arial" font-size="14.00" fill="#ff6c60">src/editor/new&#45;info/new&#45;info.component.ts</text>
</g>
<!-- src/editor/msg/msg.component.ts&#45;&gt;src/editor/new&#45;info/new&#45;info.component.ts -->
<g id="edge17" class="edge">
<title>src/editor/msg/msg.component.ts&#45;&gt;src/editor/new&#45;info/new&#45;info.component.ts</title>
<path fill="none" stroke="#757575" d="M1677.05,-85.18C1684.95,-85.18 1693,-85.18 1701.07,-85.18"/>
<polygon fill="#757575" stroke="#757575" points="1700.97,-88.68 1710.97,-85.18 1700.97,-81.68 1700.97,-88.68"/>
</g>
<!-- src/editor/information&#45;link/information&#45;link.component.ts -->
<g id="node9" class="node">
<title>src/editor/information&#45;link/information&#45;link.component.ts</title>
<path fill="none" stroke="#ff6c60" d="M2356.33,-116.05C2356.33,-116.05 2023.17,-116.05 2023.17,-116.05 2019.21,-116.05 2015.25,-112.1 2015.25,-108.14 2015.25,-108.14 2015.25,-100.22 2015.25,-100.22 2015.25,-96.26 2019.21,-92.3 2023.17,-92.3 2023.17,-92.3 2356.33,-92.3 2356.33,-92.3 2360.29,-92.3 2364.25,-96.26 2364.25,-100.22 2364.25,-100.22 2364.25,-108.14 2364.25,-108.14 2364.25,-112.1 2360.29,-116.05 2356.33,-116.05"/>
<text text-anchor="middle" x="2189.75" y="-98.75" font-family="Arial" font-size="14.00" fill="#ff6c60">src/editor/information&#45;link/information&#45;link.component.ts</text>
</g>
<!-- src/editor/information&#45;link/information&#45;link.component.ts&#45;&gt;src/editor/details/service/details.service.ts -->
<g id="edge15" class="edge">
<title>src/editor/information&#45;link/information&#45;link.component.ts&#45;&gt;src/editor/details/service/details.service.ts</title>
<path fill="none" stroke="#757575" d="M2224.03,-116.49C2285.84,-139.35 2418.35,-188.37 2487.44,-213.93"/>
<polygon fill="#757575" stroke="#757575" points="2485.95,-217.11 2496.54,-217.29 2488.38,-210.54 2485.95,-217.11"/>
</g>
<!-- src/editor/information&#45;link/information&#45;link.component.ts&#45;&gt;src/shared/models/keml/msg&#45;info.ts -->
<g id="edge16" class="edge">
<title>src/editor/information&#45;link/information&#45;link.component.ts&#45;&gt;src/shared/models/keml/msg&#45;info.ts</title>
<path fill="none" stroke="#757575" d="M2364.6,-104.18C2497.52,-104.18 2685.33,-104.18 2850,-104.18 2850,-104.18 2850,-104.18 3468.62,-104.18 3655.65,-104.18 3712.58,-65.4 3888.75,-128.18 3941.93,-147.13 3992.69,-191.19 4019.44,-217.12"/>
<polygon fill="#757575" stroke="#757575" points="4016.91,-219.54 4026.48,-224.09 4021.83,-214.57 4016.91,-219.54"/>
</g>
<!-- src/editor/new&#45;info/new&#45;info.component.ts&#45;&gt;src/shared/models/keml/msg&#45;info.ts -->
<g id="edge20" class="edge">
<title>src/editor/new&#45;info/new&#45;info.component.ts&#45;&gt;src/shared/models/keml/msg&#45;info.ts</title>
<path fill="none" stroke="#757575" d="M1979.44,-78.71C2117.27,-72.54 2339.4,-64.18 2531.38,-64.18 2531.38,-64.18 2531.38,-64.18 3468.62,-64.18 3655.65,-64.18 3717.91,-12.06 3888.75,-88.18 3950.79,-115.82 4001.58,-181.25 4025.02,-215.47"/>
<polygon fill="#757575" stroke="#757575" points="4022.09,-217.38 4030.55,-223.75 4027.91,-213.49 4022.09,-217.38"/>
</g>
<!-- src/editor/new&#45;info/new&#45;info.component.ts&#45;&gt;src/editor/information&#45;link/information&#45;link.component.ts -->
<g id="edge19" class="edge">
<title>src/editor/new&#45;info/new&#45;info.component.ts&#45;&gt;src/editor/information&#45;link/information&#45;link.component.ts</title>
<path fill="none" stroke="#757575" d="M1979.62,-92.55C1987.53,-92.99 1995.55,-93.44 2003.61,-93.89"/>
<polygon fill="#757575" stroke="#757575" points="2003.34,-97.38 2013.52,-94.44 2003.73,-90.39 2003.34,-97.38"/>
</g>
<!-- src/shared/models/keml/author.ts -->
<g id="node11" class="node">
<title>src/shared/models/keml/author.ts</title>
<path fill="none" stroke="#ff6c60" d="M3880.83,-308.05C3880.83,-308.05 3681.17,-308.05 3681.17,-308.05 3677.21,-308.05 3673.25,-304.1 3673.25,-300.14 3673.25,-300.14 3673.25,-292.22 3673.25,-292.22 3673.25,-288.26 3677.21,-284.3 3681.17,-284.3 3681.17,-284.3 3880.83,-284.3 3880.83,-284.3 3884.79,-284.3 3888.75,-288.26 3888.75,-292.22 3888.75,-292.22 3888.75,-300.14 3888.75,-300.14 3888.75,-304.1 3884.79,-308.05 3880.83,-308.05"/>
<text text-anchor="middle" x="3781" y="-290.75" font-family="Arial" font-size="14.00" fill="#ff6c60">src/shared/models/keml/author.ts</text>
</g>
<!-- src/shared/models/keml/author.ts&#45;&gt;src/shared/models/keml/msg&#45;info.ts -->
<g id="edge21" class="edge">
<title>src/shared/models/keml/author.ts&#45;&gt;src/shared/models/keml/msg&#45;info.ts</title>
<path fill="none" stroke="#757575" d="M3835.88,-283.81C3876.14,-274.57 3931.36,-261.89 3974.07,-252.09"/>
<polygon fill="#757575" stroke="#757575" points="3974.76,-255.52 3983.72,-249.87 3973.19,-248.7 3974.76,-255.52"/>
</g>
<!-- src/shared/models/keml/author.ts&#45;&gt;src/shared/models/parser/parser.ts -->
<g id="edge22" class="edge">
<title>src/shared/models/keml/author.ts&#45;&gt;src/shared/models/parser/parser.ts</title>
<path fill="none" stroke="#757575" d="M3672.81,-295.84C3562.13,-295.49 3389.67,-294.94 3273.57,-294.57"/>
<polygon fill="#757575" stroke="#757575" points="3273.68,-291.07 3263.67,-294.54 3273.66,-298.07 3273.68,-291.07"/>
</g>
<!-- src/shared/models/keml/parser/constructor&#45;pointers.ts -->
<g id="node13" class="node">
<title>src/shared/models/keml/parser/constructor&#45;pointers.ts</title>
<path fill="none" stroke="#ff6c60" d="M3629.33,-346.05C3629.33,-346.05 3305.92,-346.05 3305.92,-346.05 3301.96,-346.05 3298,-342.1 3298,-338.14 3298,-338.14 3298,-330.22 3298,-330.22 3298,-326.26 3301.96,-322.3 3305.92,-322.3 3305.92,-322.3 3629.33,-322.3 3629.33,-322.3 3633.29,-322.3 3637.25,-326.26 3637.25,-330.22 3637.25,-330.22 3637.25,-338.14 3637.25,-338.14 3637.25,-342.1 3633.29,-346.05 3629.33,-346.05"/>
<text text-anchor="middle" x="3467.62" y="-328.75" font-family="Arial" font-size="14.00" fill="#ff6c60">src/shared/models/keml/parser/constructor&#45;pointers.ts</text>
</g>
<!-- src/shared/models/parser/parser.ts&#45;&gt;src/shared/models/keml/parser/constructor&#45;pointers.ts -->
<g id="edge30" class="edge">
<title>src/shared/models/parser/parser.ts&#45;&gt;src/shared/models/keml/parser/constructor&#45;pointers.ts</title>
<path fill="none" stroke="#757575" d="M3262.12,-301.8C3308.13,-307.08 3359.93,-313.93 3399.88,-320.1"/>
<polygon fill="#757575" stroke="#757575" points="3399.17,-323.53 3409.59,-321.63 3400.26,-316.61 3399.17,-323.53"/>
</g>
<!-- src/shared/models/keml/parser/constructor&#45;pointers.ts&#45;&gt;src/shared/models/keml/msg&#45;info.ts -->
<g id="edge28" class="edge">
<title>src/shared/models/keml/parser/constructor&#45;pointers.ts&#45;&gt;src/shared/models/keml/msg&#45;info.ts</title>
<path fill="none" stroke="#757575" d="M3637.61,-344.39C3715.33,-344.78 3807.99,-339.08 3888.75,-317.18 3935.44,-304.52 3983.85,-275.34 4012.7,-255.94"/>
<polygon fill="#757575" stroke="#757575" points="4014.53,-258.93 4020.8,-250.39 4010.57,-253.15 4014.53,-258.93"/>
</g>
<!-- src/shared/models/keml/parser/constructor&#45;pointers.ts&#45;&gt;src/shared/models/keml/conversation&#45;partner.ts -->
<g id="edge27" class="edge">
<title>src/shared/models/keml/parser/constructor&#45;pointers.ts&#45;&gt;src/shared/models/keml/conversation&#45;partner.ts</title>
<path fill="none" stroke="#757575" d="M3297.55,-329.37C3218.48,-326.43 3123.09,-321.91 3037.5,-315.18 3012.84,-313.24 2986.4,-310.59 2961.43,-307.83"/>
<polygon fill="#757575" stroke="#757575" points="2961.91,-304.36 2951.58,-306.72 2961.13,-311.31 2961.91,-304.36"/>
</g>
<!-- src/shared/models/keml/parser/constructor&#45;pointers.ts&#45;&gt;src/shared/models/keml/author.ts -->
<g id="edge26" class="edge">
<title>src/shared/models/keml/parser/constructor&#45;pointers.ts&#45;&gt;src/shared/models/keml/author.ts</title>
<path fill="none" stroke="#757575" d="M3569.72,-321.84C3600.93,-318.03 3635.5,-313.81 3667.44,-309.92"/>
<polygon fill="#757575" stroke="#757575" points="3667.61,-313.42 3677.11,-308.74 3666.76,-306.47 3667.61,-313.42"/>
</g>
<!-- src/shared/models/keml/parser/constructor&#45;pointers.ts&#45;&gt;src/shared/models/parser/parser.ts -->
<g id="edge29" class="edge">
<title>src/shared/models/keml/parser/constructor&#45;pointers.ts&#45;&gt;src/shared/models/parser/parser.ts</title>
<path fill="none" stroke="#757575" d="M3315.82,-321.83C3281.34,-317.52 3246.42,-312.73 3217.62,-308.28"/>
<polygon fill="#757575" stroke="#757575" points="3218.41,-304.86 3207.99,-306.76 3217.32,-311.78 3218.41,-304.86"/>
</g>
</g>
</svg>
