<?xml version="1.0" encoding="UTF-8" standalone="no"?>
<!DOCTYPE svg PUBLIC "-//W3C//DTD SVG 1.1//EN"
 "http://www.w3.org/Graphics/SVG/1.1/DTD/svg11.dtd">
<!-- Generated by graphviz version 11.0.0 (20240428.1522)
 -->
<!-- Title: G Pages: 1 -->
<svg width="2912pt" height="173pt"
 viewBox="0.00 0.00 2911.95 173.31" xmlns="http://www.w3.org/2000/svg" xmlns:xlink="http://www.w3.org/1999/xlink">
<g id="graph0" class="graph" transform="scale(1 1) rotate(0) translate(21.6 151.71)">
<title>G</title>
<polygon fill="#111111" stroke="none" points="-21.6,21.6 -21.6,-151.71 2890.35,-151.71 2890.35,21.6 -21.6,21.6"/>
<!-- src/editor/details/info&#45;details/info&#45;details.component.ts -->
<g id="node1" class="node">
<title>src/editor/details/info&#45;details/info&#45;details.component.ts</title>
<path fill="none" stroke="#ff6c60" d="M329.83,-113.75C329.83,-113.75 7.92,-113.75 7.92,-113.75 3.96,-113.75 0,-109.79 0,-105.83 0,-105.83 0,-97.92 0,-97.92 0,-93.96 3.96,-90 7.92,-90 7.92,-90 329.83,-90 329.83,-90 333.79,-90 337.75,-93.96 337.75,-97.92 337.75,-97.92 337.75,-105.83 337.75,-105.83 337.75,-109.79 333.79,-113.75 329.83,-113.75"/>
<text text-anchor="middle" x="168.88" y="-96.45" font-family="Arial" font-size="14.00" fill="#ff6c60">src/editor/details/info&#45;details/info&#45;details.component.ts</text>
</g>
<!-- src/editor/details/service/msg&#45;details.service.ts -->
<g id="node2" class="node">
<title>src/editor/details/service/msg&#45;details.service.ts</title>
<path fill="none" stroke="#ff6c60" d="M660.83,-113.75C660.83,-113.75 381.67,-113.75 381.67,-113.75 377.71,-113.75 373.75,-109.79 373.75,-105.83 373.75,-105.83 373.75,-97.92 373.75,-97.92 373.75,-93.96 377.71,-90 381.67,-90 381.67,-90 660.83,-90 660.83,-90 664.79,-90 668.75,-93.96 668.75,-97.92 668.75,-97.92 668.75,-105.83 668.75,-105.83 668.75,-109.79 664.79,-113.75 660.83,-113.75"/>
<text text-anchor="middle" x="521.25" y="-96.45" font-family="Arial" font-size="14.00" fill="#ff6c60">src/editor/details/service/msg&#45;details.service.ts</text>
</g>
<!-- src/editor/details/info&#45;details/info&#45;details.component.ts&#45;&gt;src/editor/details/service/msg&#45;details.service.ts -->
<g id="edge1" class="edge">
<title>src/editor/details/info&#45;details/info&#45;details.component.ts&#45;&gt;src/editor/details/service/msg&#45;details.service.ts</title>
<path fill="none" stroke="#757575" d="M338.14,-101.88C346.03,-101.88 353.95,-101.88 361.82,-101.88"/>
<polygon fill="#757575" stroke="#757575" points="361.8,-105.38 371.8,-101.88 361.8,-98.38 361.8,-105.38"/>
</g>
<!-- src/shared/models/keml/msg&#45;info.ts -->
<g id="node3" class="node">
<title>src/shared/models/keml/msg&#45;info.ts</title>
<path fill="none" stroke="#ff6c60" d="M1636.58,-103.75C1636.58,-103.75 1421.92,-103.75 1421.92,-103.75 1417.96,-103.75 1414,-99.79 1414,-95.83 1414,-95.83 1414,-87.92 1414,-87.92 1414,-83.96 1417.96,-80 1421.92,-80 1421.92,-80 1636.58,-80 1636.58,-80 1640.54,-80 1644.5,-83.96 1644.5,-87.92 1644.5,-87.92 1644.5,-95.83 1644.5,-95.83 1644.5,-99.79 1640.54,-103.75 1636.58,-103.75"/>
<text text-anchor="middle" x="1529.25" y="-86.45" font-family="Arial" font-size="14.00" fill="#ff6c60">src/shared/models/keml/msg&#45;info.ts</text>
</g>
<!-- src/editor/details/info&#45;details/info&#45;details.component.ts&#45;&gt;src/shared/models/keml/msg&#45;info.ts -->
<g id="edge2" class="edge">
<title>src/editor/details/info&#45;details/info&#45;details.component.ts&#45;&gt;src/shared/models/keml/msg&#45;info.ts</title>
<path fill="none" stroke="#757575" d="M269.78,-114.23C302.83,-117.77 339.81,-121.13 373.75,-122.88 561.77,-132.53 1203.24,-133.5 1378,-117.88 1404.64,-115.49 1433.66,-110.94 1459.03,-106.3"/>
<polygon fill="#757575" stroke="#757575" points="1459.36,-109.8 1468.55,-104.52 1458.07,-102.92 1459.36,-109.8"/>
</g>
<!-- src/editor/details/service/msg&#45;details.service.ts&#45;&gt;src/shared/models/keml/msg&#45;info.ts -->
<g id="edge9" class="edge">
<title>src/editor/details/service/msg&#45;details.service.ts&#45;&gt;src/shared/models/keml/msg&#45;info.ts</title>
<path fill="none" stroke="#757575" d="M669.17,-104.32C839.67,-106.55 1129.26,-108.46 1378,-100.88 1385.99,-100.63 1394.22,-100.32 1402.51,-99.95"/>
<polygon fill="#757575" stroke="#757575" points="1402.5,-103.46 1412.33,-99.5 1402.18,-96.46 1402.5,-103.46"/>
</g>
<!-- src/editor/details/msg&#45;details/msg&#45;details.component.ts -->
<g id="node4" class="node">
<title>src/editor/details/msg&#45;details/msg&#45;details.component.ts</title>
<path fill="none" stroke="#ff6c60" d="M1043.58,-90.75C1043.58,-90.75 712.67,-90.75 712.67,-90.75 708.71,-90.75 704.75,-86.79 704.75,-82.83 704.75,-82.83 704.75,-74.92 704.75,-74.92 704.75,-70.96 708.71,-67 712.67,-67 712.67,-67 1043.58,-67 1043.58,-67 1047.54,-67 1051.5,-70.96 1051.5,-74.92 1051.5,-74.92 1051.5,-82.83 1051.5,-82.83 1051.5,-86.79 1047.54,-90.75 1043.58,-90.75"/>
<text text-anchor="middle" x="878.12" y="-73.45" font-family="Arial" font-size="14.00" fill="#ff6c60">src/editor/details/msg&#45;details/msg&#45;details.component.ts</text>
</g>
<!-- src/editor/details/service/msg&#45;details.service.ts&#45;&gt;src/editor/details/msg&#45;details/msg&#45;details.component.ts -->
<g id="edge8" class="edge">
<title>src/editor/details/service/msg&#45;details.service.ts&#45;&gt;src/editor/details/msg&#45;details/msg&#45;details.component.ts</title>
<path fill="none" stroke="#757575" d="M669.15,-92.35C677.06,-91.84 685.05,-91.32 693.06,-90.8"/>
<polygon fill="#757575" stroke="#757575" points="693.12,-94.31 702.87,-90.17 692.66,-87.32 693.12,-94.31"/>
</g>
<!-- src/shared/models/keml/conversation&#45;partner.ts -->
<g id="node6" class="node">
<title>src/shared/models/keml/conversation&#45;partner.ts</title>
<path fill="none" stroke="#ff6c60" d="M1973.58,-63.75C1973.58,-63.75 1688.42,-63.75 1688.42,-63.75 1684.46,-63.75 1680.5,-59.79 1680.5,-55.83 1680.5,-55.83 1680.5,-47.92 1680.5,-47.92 1680.5,-43.96 1684.46,-40 1688.42,-40 1688.42,-40 1973.58,-40 1973.58,-40 1977.54,-40 1981.5,-43.96 1981.5,-47.92 1981.5,-47.92 1981.5,-55.83 1981.5,-55.83 1981.5,-59.79 1977.54,-63.75 1973.58,-63.75"/>
<text text-anchor="middle" x="1831" y="-46.45" font-family="Arial" font-size="14.00" fill="#ff6c60">src/shared/models/keml/conversation&#45;partner.ts</text>
</g>
<!-- src/shared/models/keml/msg&#45;info.ts&#45;&gt;src/shared/models/keml/conversation&#45;partner.ts -->
<g id="edge13" class="edge">
<title>src/shared/models/keml/msg&#45;info.ts&#45;&gt;src/shared/models/keml/conversation&#45;partner.ts</title>
<path fill="none" stroke="#757575" d="M1622.63,-79.55C1655.39,-75.18 1692.48,-70.23 1726.14,-65.73"/>
<polygon fill="#757575" stroke="#757575" points="1726.46,-69.22 1735.91,-64.43 1725.53,-62.28 1726.46,-69.22"/>
</g>
<!-- src/shared/models/parser/parser.ts -->
<g id="node8" class="node">
<title>src/shared/models/parser/parser.ts</title>
<path fill="none" stroke="#ff6c60" d="M2234.08,-101.75C2234.08,-101.75 2025.42,-101.75 2025.42,-101.75 2021.46,-101.75 2017.5,-97.79 2017.5,-93.83 2017.5,-93.83 2017.5,-85.92 2017.5,-85.92 2017.5,-81.96 2021.46,-78 2025.42,-78 2025.42,-78 2234.08,-78 2234.08,-78 2238.04,-78 2242,-81.96 2242,-85.92 2242,-85.92 2242,-93.83 2242,-93.83 2242,-97.79 2238.04,-101.75 2234.08,-101.75"/>
<text text-anchor="middle" x="2129.75" y="-84.45" font-family="Arial" font-size="14.00" fill="#ff6c60">src/shared/models/parser/parser.ts</text>
</g>
<!-- src/shared/models/keml/msg&#45;info.ts&#45;&gt;src/shared/models/parser/parser.ts -->
<g id="edge14" class="edge">
<title>src/shared/models/keml/msg&#45;info.ts&#45;&gt;src/shared/models/parser/parser.ts</title>
<path fill="none" stroke="#757575" d="M1644.94,-91.49C1748.34,-91.15 1899.98,-90.64 2005.85,-90.29"/>
<polygon fill="#757575" stroke="#757575" points="2005.73,-93.79 2015.72,-90.25 2005.71,-86.79 2005.73,-93.79"/>
</g>
<!-- src/editor/details/msg&#45;details/msg&#45;details.component.ts&#45;&gt;src/shared/models/keml/msg&#45;info.ts -->
<g id="edge5" class="edge">
<title>src/editor/details/msg&#45;details/msg&#45;details.component.ts&#45;&gt;src/shared/models/keml/msg&#45;info.ts</title>
<path fill="none" stroke="#757575" d="M1051.8,-82.33C1162.1,-84.54 1302.63,-87.36 1402.41,-89.35"/>
<polygon fill="#757575" stroke="#757575" points="1402.18,-92.85 1412.25,-89.55 1402.32,-85.85 1402.18,-92.85"/>
</g>
<!-- src/editor/details/service/info&#45;details.service.ts -->
<g id="node5" class="node">
<title>src/editor/details/service/info&#45;details.service.ts</title>
<path fill="none" stroke="#ff6c60" d="M1370.08,-23.75C1370.08,-23.75 1095.42,-23.75 1095.42,-23.75 1091.46,-23.75 1087.5,-19.79 1087.5,-15.83 1087.5,-15.83 1087.5,-7.92 1087.5,-7.92 1087.5,-3.96 1091.46,0 1095.42,0 1095.42,0 1370.08,0 1370.08,0 1374.04,0 1378,-3.96 1378,-7.92 1378,-7.92 1378,-15.83 1378,-15.83 1378,-19.79 1374.04,-23.75 1370.08,-23.75"/>
<text text-anchor="middle" x="1232.75" y="-6.45" font-family="Arial" font-size="14.00" fill="#ff6c60">src/editor/details/service/info&#45;details.service.ts</text>
</g>
<!-- src/editor/details/msg&#45;details/msg&#45;details.component.ts&#45;&gt;src/editor/details/service/info&#45;details.service.ts -->
<g id="edge3" class="edge">
<title>src/editor/details/msg&#45;details/msg&#45;details.component.ts&#45;&gt;src/editor/details/service/info&#45;details.service.ts</title>
<path fill="none" stroke="#757575" d="M940.62,-66.51C982.09,-58.23 1038.04,-47.2 1087.5,-37.88 1107.97,-34.02 1130.09,-29.97 1150.72,-26.25"/>
<polygon fill="#757575" stroke="#757575" points="1151.3,-29.7 1160.52,-24.48 1150.06,-22.81 1151.3,-29.7"/>
</g>
<!-- src/editor/details/msg&#45;details/msg&#45;details.component.ts&#45;&gt;src/shared/models/keml/conversation&#45;partner.ts -->
<g id="edge4" class="edge">
<title>src/editor/details/msg&#45;details/msg&#45;details.component.ts&#45;&gt;src/shared/models/keml/conversation&#45;partner.ts</title>
<path fill="none" stroke="#757575" d="M1051.87,-73.97C1227.43,-68.98 1497.25,-61.32 1668.61,-56.46"/>
<polygon fill="#757575" stroke="#757575" points="1668.6,-59.96 1678.49,-56.18 1668.4,-52.96 1668.6,-59.96"/>
</g>
<!-- src/editor/details/service/info&#45;details.service.ts&#45;&gt;src/editor/details/info&#45;details/info&#45;details.component.ts -->
<g id="edge6" class="edge">
<title>src/editor/details/service/info&#45;details.service.ts&#45;&gt;src/editor/details/info&#45;details/info&#45;details.component.ts</title>
<path fill="none" stroke="#757575" d="M1087.07,-22.52C916.44,-35.3 624.32,-57.9 373.75,-80.88 348.83,-83.16 322.21,-85.78 296.7,-88.37"/>
<polygon fill="#757575" stroke="#757575" points="296.56,-84.86 286.97,-89.36 297.28,-91.83 296.56,-84.86"/>
</g>
<!-- src/editor/details/service/info&#45;details.service.ts&#45;&gt;src/shared/models/keml/msg&#45;info.ts -->
<g id="edge7" class="edge">
<title>src/editor/details/service/info&#45;details.service.ts&#45;&gt;src/shared/models/keml/msg&#45;info.ts</title>
<path fill="none" stroke="#757575" d="M1279.12,-24.2C1331,-38.29 1415.98,-61.38 1472.02,-76.6"/>
<polygon fill="#757575" stroke="#757575" points="1470.8,-79.9 1481.37,-79.14 1472.63,-73.14 1470.8,-79.9"/>
</g>
<!-- src/shared/models/keml/conversation&#45;partner.ts&#45;&gt;src/shared/models/parser/parser.ts -->
<g id="edge12" class="edge">
<title>src/shared/models/keml/conversation&#45;partner.ts&#45;&gt;src/shared/models/parser/parser.ts</title>
<path fill="none" stroke="#757575" d="M1928.35,-64.21C1957.96,-68.01 1990.75,-72.2 2021.07,-76.09"/>
<polygon fill="#757575" stroke="#757575" points="2020.26,-79.51 2030.62,-77.31 2021.15,-72.57 2020.26,-79.51"/>
</g>
<!-- src/shared/models/keml/author.ts -->
<g id="node7" class="node">
<title>src/shared/models/keml/author.ts</title>
<path fill="none" stroke="#ff6c60" d="M2860.83,-102.75C2860.83,-102.75 2661.17,-102.75 2661.17,-102.75 2657.21,-102.75 2653.25,-98.79 2653.25,-94.83 2653.25,-94.83 2653.25,-86.92 2653.25,-86.92 2653.25,-82.96 2657.21,-79 2661.17,-79 2661.17,-79 2860.83,-79 2860.83,-79 2864.79,-79 2868.75,-82.96 2868.75,-86.92 2868.75,-86.92 2868.75,-94.83 2868.75,-94.83 2868.75,-98.79 2864.79,-102.75 2860.83,-102.75"/>
<text text-anchor="middle" x="2761" y="-85.45" font-family="Arial" font-size="14.00" fill="#ff6c60">src/shared/models/keml/author.ts</text>
</g>
<!-- src/shared/models/keml/author.ts&#45;&gt;src/shared/models/keml/msg&#45;info.ts -->
<g id="edge10" class="edge">
<title>src/shared/models/keml/author.ts&#45;&gt;src/shared/models/keml/msg&#45;info.ts</title>
<path fill="none" stroke="#757575" d="M2652.9,-102.33C2640.88,-103.34 2628.81,-104.22 2617.25,-104.88 2201.59,-128.54 2096.27,-126.54 1680.5,-104.88 1672.5,-104.46 1664.27,-103.96 1655.97,-103.39"/>
<polygon fill="#757575" stroke="#757575" points="1656.36,-99.91 1646.14,-102.7 1655.87,-106.89 1656.36,-99.91"/>
</g>
<!-- src/shared/models/keml/author.ts&#45;&gt;src/shared/models/parser/parser.ts -->
<g id="edge11" class="edge">
<title>src/shared/models/keml/author.ts&#45;&gt;src/shared/models/parser/parser.ts</title>
<path fill="none" stroke="#757575" d="M2652.81,-90.7C2542.13,-90.53 2369.67,-90.25 2253.57,-90.07"/>
<polygon fill="#757575" stroke="#757575" points="2253.68,-86.57 2243.67,-90.05 2253.67,-93.57 2253.68,-86.57"/>
</g>
<!-- src/shared/models/keml/parser/constructor&#45;pointers.ts -->
<g id="node9" class="node">
<title>src/shared/models/keml/parser/constructor&#45;pointers.ts</title>
<path fill="none" stroke="#ff6c60" d="M2609.33,-62.75C2609.33,-62.75 2285.92,-62.75 2285.92,-62.75 2281.96,-62.75 2278,-58.79 2278,-54.83 2278,-54.83 2278,-46.92 2278,-46.92 2278,-42.96 2281.96,-39 2285.92,-39 2285.92,-39 2609.33,-39 2609.33,-39 2613.29,-39 2617.25,-42.96 2617.25,-46.92 2617.25,-46.92 2617.25,-54.83 2617.25,-54.83 2617.25,-58.79 2613.29,-62.75 2609.33,-62.75"/>
<text text-anchor="middle" x="2447.62" y="-45.45" font-family="Arial" font-size="14.00" fill="#ff6c60">src/shared/models/keml/parser/constructor&#45;pointers.ts</text>
</g>
<!-- src/shared/models/parser/parser.ts&#45;&gt;src/shared/models/keml/parser/constructor&#45;pointers.ts -->
<g id="edge19" class="edge">
<title>src/shared/models/parser/parser.ts&#45;&gt;src/shared/models/keml/parser/constructor&#45;pointers.ts</title>
<path fill="none" stroke="#757575" d="M2187.59,-77.53C2214.08,-73.38 2247.11,-68.83 2280.64,-64.63"/>
<polygon fill="#757575" stroke="#757575" points="2281.02,-68.11 2290.51,-63.4 2280.16,-61.16 2281.02,-68.11"/>
</g>
<!-- src/shared/models/keml/parser/constructor&#45;pointers.ts&#45;&gt;src/shared/models/keml/msg&#45;info.ts -->
<g id="edge17" class="edge">
<title>src/shared/models/keml/parser/constructor&#45;pointers.ts&#45;&gt;src/shared/models/keml/msg&#45;info.ts</title>
<path fill="none" stroke="#757575" d="M2373.66,-38.53C2236.41,-17.6 1931.06,18.05 1680.5,-30.88 1637.93,-39.19 1592.17,-59.59 1562.49,-74.52"/>
<polygon fill="#757575" stroke="#757575" points="1560.96,-71.37 1553.66,-79.05 1564.16,-77.6 1560.96,-71.37"/>
</g>
<!-- src/shared/models/keml/parser/constructor&#45;pointers.ts&#45;&gt;src/shared/models/keml/conversation&#45;partner.ts -->
<g id="edge16" class="edge">
<title>src/shared/models/keml/parser/constructor&#45;pointers.ts&#45;&gt;src/shared/models/keml/conversation&#45;partner.ts</title>
<path fill="none" stroke="#757575" d="M2277.58,-51.15C2188.91,-51.29 2080.85,-51.47 1993.35,-51.61"/>
<polygon fill="#757575" stroke="#757575" points="1993.47,-48.11 1983.47,-51.63 1993.48,-55.11 1993.47,-48.11"/>
</g>
<!-- src/shared/models/keml/parser/constructor&#45;pointers.ts&#45;&gt;src/shared/models/keml/author.ts -->
<g id="edge15" class="edge">
<title>src/shared/models/keml/parser/constructor&#45;pointers.ts&#45;&gt;src/shared/models/keml/author.ts</title>
<path fill="none" stroke="#757575" d="M2544.59,-63.2C2578.77,-67.59 2617.48,-72.57 2652.56,-77.07"/>
<polygon fill="#757575" stroke="#757575" points="2651.95,-80.52 2662.32,-78.33 2652.84,-73.58 2651.95,-80.52"/>
</g>
<!-- src/shared/models/keml/parser/constructor&#45;pointers.ts&#45;&gt;src/shared/models/parser/parser.ts -->
<g id="edge18" class="edge">
<title>src/shared/models/keml/parser/constructor&#45;pointers.ts&#45;&gt;src/shared/models/parser/parser.ts</title>
<path fill="none" stroke="#757575" d="M2389.78,-63.22C2351.8,-69.17 2300.36,-75.94 2253.33,-81.34"/>
<polygon fill="#757575" stroke="#757575" points="2253.16,-77.83 2243.62,-82.44 2253.95,-84.79 2253.16,-77.83"/>
</g>
</g>
</svg>
