<?xml version="1.0" encoding="UTF-8" standalone="no"?>
<!DOCTYPE svg PUBLIC "-//W3C//DTD SVG 1.1//EN"
 "http://www.w3.org/Graphics/SVG/1.1/DTD/svg11.dtd">
<!-- Generated by graphviz version 11.0.0 (20240428.1522)
 -->
<!-- Title: G Pages: 1 -->
<svg width="2172pt" height="238pt"
 viewBox="0.00 0.00 2171.95 238.20" xmlns="http://www.w3.org/2000/svg" xmlns:xlink="http://www.w3.org/1999/xlink">
<g id="graph0" class="graph" transform="scale(1 1) rotate(0) translate(21.6 216.6)">
<title>G</title>
<polygon fill="#111111" stroke="none" points="-21.6,21.6 -21.6,-216.6 2150.35,-216.6 2150.35,21.6 -21.6,21.6"/>
<!-- src/editor/details/info&#45;details/info&#45;details.component.ts -->
<g id="node1" class="node">
<title>src/editor/details/info&#45;details/info&#45;details.component.ts</title>
<path fill="none" stroke="#ff6c60" d="M329.83,-92.87C329.83,-92.87 7.92,-92.87 7.92,-92.87 3.96,-92.87 0,-88.91 0,-84.95 0,-84.95 0,-77.04 0,-77.04 0,-73.08 3.96,-69.12 7.92,-69.12 7.92,-69.12 329.83,-69.12 329.83,-69.12 333.79,-69.12 337.75,-73.08 337.75,-77.04 337.75,-77.04 337.75,-84.95 337.75,-84.95 337.75,-88.91 333.79,-92.87 329.83,-92.87"/>
<text text-anchor="middle" x="168.88" y="-75.57" font-family="Arial" font-size="14.00" fill="#ff6c60">src/editor/details/info&#45;details/info&#45;details.component.ts</text>
</g>
<!-- src/editor/details/service/details.service.ts -->
<g id="node2" class="node">
<title>src/editor/details/service/details.service.ts</title>
<path fill="none" stroke="#ff6c60" d="M630.08,-92.87C630.08,-92.87 381.67,-92.87 381.67,-92.87 377.71,-92.87 373.75,-88.91 373.75,-84.95 373.75,-84.95 373.75,-77.04 373.75,-77.04 373.75,-73.08 377.71,-69.12 381.67,-69.12 381.67,-69.12 630.08,-69.12 630.08,-69.12 634.04,-69.12 638,-73.08 638,-77.04 638,-77.04 638,-84.95 638,-84.95 638,-88.91 634.04,-92.87 630.08,-92.87"/>
<text text-anchor="middle" x="505.88" y="-75.57" font-family="Arial" font-size="14.00" fill="#ff6c60">src/editor/details/service/details.service.ts</text>
</g>
<!-- src/editor/details/info&#45;details/info&#45;details.component.ts&#45;&gt;src/editor/details/service/details.service.ts -->
<g id="edge1" class="edge">
<title>src/editor/details/info&#45;details/info&#45;details.component.ts&#45;&gt;src/editor/details/service/details.service.ts</title>
<path fill="none" stroke="#757575" d="M337.87,-74.25C345.97,-74.25 354.06,-74.27 362.09,-74.31"/>
<polygon fill="#757575" stroke="#757575" points="361.83,-77.81 371.85,-74.38 361.88,-70.81 361.83,-77.81"/>
</g>
<!-- src/shared/models/keml/msg&#45;info.ts -->
<g id="node3" class="node">
<title>src/shared/models/keml/msg&#45;info.ts</title>
<path fill="none" stroke="#ff6c60" d="M2120.83,-110.87C2120.83,-110.87 1906.17,-110.87 1906.17,-110.87 1902.21,-110.87 1898.25,-106.91 1898.25,-102.95 1898.25,-102.95 1898.25,-95.04 1898.25,-95.04 1898.25,-91.08 1902.21,-87.12 1906.17,-87.12 1906.17,-87.12 2120.83,-87.12 2120.83,-87.12 2124.79,-87.12 2128.75,-91.08 2128.75,-95.04 2128.75,-95.04 2128.75,-102.95 2128.75,-102.95 2128.75,-106.91 2124.79,-110.87 2120.83,-110.87"/>
<text text-anchor="middle" x="2013.5" y="-93.57" font-family="Arial" font-size="14.00" fill="#ff6c60">src/shared/models/keml/msg&#45;info.ts</text>
</g>
<!-- src/editor/details/info&#45;details/info&#45;details.component.ts&#45;&gt;src/shared/models/keml/msg&#45;info.ts -->
<g id="edge2" class="edge">
<title>src/editor/details/info&#45;details/info&#45;details.component.ts&#45;&gt;src/shared/models/keml/msg&#45;info.ts</title>
<path fill="none" stroke="#757575" d="M229.95,-68.67C344.74,-46.23 603.43,-1 823.5,-1 823.5,-1 823.5,-1 1442.12,-1 1629.49,-1 1680.25,8.56 1862.25,-36 1904.21,-46.27 1949.59,-66.71 1979.37,-81.53"/>
<polygon fill="#757575" stroke="#757575" points="1977.74,-84.63 1988.25,-86.02 1980.9,-78.38 1977.74,-84.63"/>
</g>
<!-- src/editor/details/service/details.service.ts&#45;&gt;src/editor/details/info&#45;details/info&#45;details.component.ts -->
<g id="edge3" class="edge">
<title>src/editor/details/service/details.service.ts&#45;&gt;src/editor/details/info&#45;details/info&#45;details.component.ts</title>
<path fill="none" stroke="#757575" d="M373.37,-87.61C365.44,-87.67 357.39,-87.71 349.31,-87.73"/>
<polygon fill="#757575" stroke="#757575" points="349.37,-84.23 339.38,-87.74 349.38,-91.23 349.37,-84.23"/>
</g>
<!-- src/editor/details/service/details.service.ts&#45;&gt;src/shared/models/keml/msg&#45;info.ts -->
<g id="edge5" class="edge">
<title>src/editor/details/service/details.service.ts&#45;&gt;src/shared/models/keml/msg&#45;info.ts</title>
<path fill="none" stroke="#757575" d="M545.65,-93.3C642.07,-122.78 900.87,-195 1122.25,-195 1122.25,-195 1122.25,-195 1442.12,-195 1634.05,-195 1857.34,-141.48 1958.17,-114.36"/>
<polygon fill="#757575" stroke="#757575" points="1959.07,-117.74 1967.81,-111.75 1957.24,-110.99 1959.07,-117.74"/>
</g>
<!-- src/shared/models/keml/conversation&#45;partner.ts -->
<g id="node4" class="node">
<title>src/shared/models/keml/conversation&#45;partner.ts</title>
<path fill="none" stroke="#ff6c60" d="M967.08,-92.87C967.08,-92.87 681.92,-92.87 681.92,-92.87 677.96,-92.87 674,-88.91 674,-84.95 674,-84.95 674,-77.04 674,-77.04 674,-73.08 677.96,-69.12 681.92,-69.12 681.92,-69.12 967.08,-69.12 967.08,-69.12 971.04,-69.12 975,-73.08 975,-77.04 975,-77.04 975,-84.95 975,-84.95 975,-88.91 971.04,-92.87 967.08,-92.87"/>
<text text-anchor="middle" x="824.5" y="-75.57" font-family="Arial" font-size="14.00" fill="#ff6c60">src/shared/models/keml/conversation&#45;partner.ts</text>
</g>
<!-- src/editor/details/service/details.service.ts&#45;&gt;src/shared/models/keml/conversation&#45;partner.ts -->
<g id="edge4" class="edge">
<title>src/editor/details/service/details.service.ts&#45;&gt;src/shared/models/keml/conversation&#45;partner.ts</title>
<path fill="none" stroke="#757575" d="M638.4,-81C646.31,-81 654.31,-81 662.33,-81"/>
<polygon fill="#757575" stroke="#757575" points="662.14,-84.5 672.14,-81 662.14,-77.5 662.14,-84.5"/>
</g>
<!-- src/shared/models/keml/msg&#45;info.ts&#45;&gt;src/shared/models/keml/conversation&#45;partner.ts -->
<g id="edge9" class="edge">
<title>src/shared/models/keml/msg&#45;info.ts&#45;&gt;src/shared/models/keml/conversation&#45;partner.ts</title>
<path fill="none" stroke="#757575" d="M1901.41,-111.34C1888.23,-112.43 1874.95,-113.36 1862.25,-114 1484.35,-132.81 1388.29,-130.55 1011,-102 985.94,-100.1 959.05,-97.43 933.73,-94.62"/>
<polygon fill="#757575" stroke="#757575" points="934.44,-91.18 924.11,-93.54 933.66,-98.13 934.44,-91.18"/>
</g>
<!-- src/shared/models/parser/parser.ts -->
<g id="node6" class="node">
<title>src/shared/models/parser/parser.ts</title>
<path fill="none" stroke="#ff6c60" d="M1227.58,-92.87C1227.58,-92.87 1018.92,-92.87 1018.92,-92.87 1014.96,-92.87 1011,-88.91 1011,-84.95 1011,-84.95 1011,-77.04 1011,-77.04 1011,-73.08 1014.96,-69.12 1018.92,-69.12 1018.92,-69.12 1227.58,-69.12 1227.58,-69.12 1231.54,-69.12 1235.5,-73.08 1235.5,-77.04 1235.5,-77.04 1235.5,-84.95 1235.5,-84.95 1235.5,-88.91 1231.54,-92.87 1227.58,-92.87"/>
<text text-anchor="middle" x="1123.25" y="-75.57" font-family="Arial" font-size="14.00" fill="#ff6c60">src/shared/models/parser/parser.ts</text>
</g>
<!-- src/shared/models/keml/msg&#45;info.ts&#45;&gt;src/shared/models/parser/parser.ts -->
<g id="edge10" class="edge">
<title>src/shared/models/keml/msg&#45;info.ts&#45;&gt;src/shared/models/parser/parser.ts</title>
<path fill="none" stroke="#757575" d="M1898.06,-99.84C1885.97,-99.9 1873.86,-99.96 1862.25,-100 1599.68,-100.87 1533.71,-107.65 1271.5,-94 1263.57,-93.58 1255.41,-93.08 1247.18,-92.51"/>
<polygon fill="#757575" stroke="#757575" points="1247.68,-89.04 1237.46,-91.82 1247.18,-96.02 1247.68,-89.04"/>
</g>
<!-- src/shared/models/keml/conversation&#45;partner.ts&#45;&gt;src/shared/models/parser/parser.ts -->
<g id="edge8" class="edge">
<title>src/shared/models/keml/conversation&#45;partner.ts&#45;&gt;src/shared/models/parser/parser.ts</title>
<path fill="none" stroke="#757575" d="M975.18,-81C983.31,-81 991.43,-81 999.44,-81"/>
<polygon fill="#757575" stroke="#757575" points="999.19,-84.5 1009.19,-81 999.19,-77.5 999.19,-84.5"/>
</g>
<!-- src/shared/models/keml/author.ts -->
<g id="node5" class="node">
<title>src/shared/models/keml/author.ts</title>
<path fill="none" stroke="#ff6c60" d="M1854.33,-90.87C1854.33,-90.87 1654.67,-90.87 1654.67,-90.87 1650.71,-90.87 1646.75,-86.91 1646.75,-82.95 1646.75,-82.95 1646.75,-75.04 1646.75,-75.04 1646.75,-71.08 1650.71,-67.12 1654.67,-67.12 1654.67,-67.12 1854.33,-67.12 1854.33,-67.12 1858.29,-67.12 1862.25,-71.08 1862.25,-75.04 1862.25,-75.04 1862.25,-82.95 1862.25,-82.95 1862.25,-86.91 1858.29,-90.87 1854.33,-90.87"/>
<text text-anchor="middle" x="1754.5" y="-73.57" font-family="Arial" font-size="14.00" fill="#ff6c60">src/shared/models/keml/author.ts</text>
</g>
<!-- src/shared/models/keml/author.ts&#45;&gt;src/shared/models/keml/msg&#45;info.ts -->
<g id="edge6" class="edge">
<title>src/shared/models/keml/author.ts&#45;&gt;src/shared/models/keml/msg&#45;info.ts</title>
<path fill="none" stroke="#757575" d="M1862.63,-87.33C1870.59,-87.95 1878.66,-88.58 1886.71,-89.21"/>
<polygon fill="#757575" stroke="#757575" points="1886.33,-92.69 1896.57,-89.97 1886.87,-85.71 1886.33,-92.69"/>
</g>
<!-- src/shared/models/keml/author.ts&#45;&gt;src/shared/models/parser/parser.ts -->
<g id="edge7" class="edge">
<title>src/shared/models/keml/author.ts&#45;&gt;src/shared/models/parser/parser.ts</title>
<path fill="none" stroke="#757575" d="M1646.31,-79.34C1535.63,-79.69 1363.17,-80.24 1247.07,-80.61"/>
<polygon fill="#757575" stroke="#757575" points="1247.16,-77.1 1237.17,-80.64 1247.18,-84.1 1247.16,-77.1"/>
</g>
<!-- src/shared/models/keml/parser/constructor&#45;pointers.ts -->
<g id="node7" class="node">
<title>src/shared/models/keml/parser/constructor&#45;pointers.ts</title>
<path fill="none" stroke="#ff6c60" d="M1602.83,-52.87C1602.83,-52.87 1279.42,-52.87 1279.42,-52.87 1275.46,-52.87 1271.5,-48.91 1271.5,-44.95 1271.5,-44.95 1271.5,-37.04 1271.5,-37.04 1271.5,-33.08 1275.46,-29.12 1279.42,-29.12 1279.42,-29.12 1602.83,-29.12 1602.83,-29.12 1606.79,-29.12 1610.75,-33.08 1610.75,-37.04 1610.75,-37.04 1610.75,-44.95 1610.75,-44.95 1610.75,-48.91 1606.79,-52.87 1602.83,-52.87"/>
<text text-anchor="middle" x="1441.12" y="-35.57" font-family="Arial" font-size="14.00" fill="#ff6c60">src/shared/models/keml/parser/constructor&#45;pointers.ts</text>
</g>
<!-- src/shared/models/parser/parser.ts&#45;&gt;src/shared/models/keml/parser/constructor&#45;pointers.ts -->
<g id="edge15" class="edge">
<title>src/shared/models/parser/parser.ts&#45;&gt;src/shared/models/keml/parser/constructor&#45;pointers.ts</title>
<path fill="none" stroke="#757575" d="M1179.99,-68.65C1207.76,-64.19 1242.92,-59.25 1278.33,-54.74"/>
<polygon fill="#757575" stroke="#757575" points="1278.33,-58.26 1287.82,-53.54 1277.46,-51.32 1278.33,-58.26"/>
</g>
<!-- src/shared/models/keml/parser/constructor&#45;pointers.ts&#45;&gt;src/shared/models/keml/msg&#45;info.ts -->
<g id="edge13" class="edge">
<title>src/shared/models/keml/parser/constructor&#45;pointers.ts&#45;&gt;src/shared/models/keml/msg&#45;info.ts</title>
<path fill="none" stroke="#757575" d="M1611.11,-39.16C1688.11,-40.54 1780.19,-45.31 1862.25,-58 1897.44,-63.44 1936.18,-74.13 1965.51,-83.23"/>
<polygon fill="#757575" stroke="#757575" points="1964.23,-86.49 1974.82,-86.17 1966.33,-79.82 1964.23,-86.49"/>
</g>
<!-- src/shared/models/keml/parser/constructor&#45;pointers.ts&#45;&gt;src/shared/models/keml/conversation&#45;partner.ts -->
<g id="edge12" class="edge">
<title>src/shared/models/keml/parser/constructor&#45;pointers.ts&#45;&gt;src/shared/models/keml/conversation&#45;partner.ts</title>
<path fill="none" stroke="#757575" d="M1271.05,-45.81C1191.98,-48.74 1096.59,-53.26 1011,-60 986.34,-61.93 959.9,-64.58 934.93,-67.35"/>
<polygon fill="#757575" stroke="#757575" points="934.63,-63.86 925.08,-68.45 935.41,-70.82 934.63,-63.86"/>
</g>
<!-- src/shared/models/keml/parser/constructor&#45;pointers.ts&#45;&gt;src/shared/models/keml/author.ts -->
<g id="edge11" class="edge">
<title>src/shared/models/keml/parser/constructor&#45;pointers.ts&#45;&gt;src/shared/models/keml/author.ts</title>
<path fill="none" stroke="#757575" d="M1543.22,-53.33C1574.43,-57.14 1609,-61.36 1640.94,-65.26"/>
<polygon fill="#757575" stroke="#757575" points="1640.26,-68.7 1650.61,-66.44 1641.11,-61.75 1640.26,-68.7"/>
</g>
<!-- src/shared/models/keml/parser/constructor&#45;pointers.ts&#45;&gt;src/shared/models/parser/parser.ts -->
<g id="edge14" class="edge">
<title>src/shared/models/keml/parser/constructor&#45;pointers.ts&#45;&gt;src/shared/models/parser/parser.ts</title>
<path fill="none" stroke="#757575" d="M1384.59,-53.31C1346.52,-59.43 1294.49,-66.45 1246.95,-72.06"/>
<polygon fill="#757575" stroke="#757575" points="1246.65,-68.57 1237.12,-73.2 1247.46,-75.52 1246.65,-68.57"/>
</g>
</g>
</svg>
