<?xml version="1.0" encoding="UTF-8" standalone="no"?>
<!DOCTYPE svg PUBLIC "-//W3C//DTD SVG 1.1//EN"
 "http://www.w3.org/Graphics/SVG/1.1/DTD/svg11.dtd">
<!-- Generated by graphviz version 11.0.0 (20240428.1522)
 -->
<!-- Title: G Pages: 1 -->
<svg width="4030pt" height="497pt"
 viewBox="0.00 0.00 4030.20 497.30" xmlns="http://www.w3.org/2000/svg" xmlns:xlink="http://www.w3.org/1999/xlink">
<g id="graph0" class="graph" transform="scale(1 1) rotate(0) translate(21.6 475.7)">
<title>G</title>
<polygon fill="#111111" stroke="none" points="-21.6,21.6 -21.6,-475.7 4008.6,-475.7 4008.6,21.6 -21.6,21.6"/>
<!-- src/editor/details/info&#45;details/info&#45;details.component.ts -->
<g id="node1" class="node">
<title>src/editor/details/info&#45;details/info&#45;details.component.ts</title>
<path fill="none" stroke="#ff6c60" d="M329.83,-383.67C329.83,-383.67 7.92,-383.67 7.92,-383.67 3.96,-383.67 0,-379.71 0,-375.75 0,-375.75 0,-367.83 0,-367.83 0,-363.87 3.96,-359.92 7.92,-359.92 7.92,-359.92 329.83,-359.92 329.83,-359.92 333.79,-359.92 337.75,-363.87 337.75,-367.83 337.75,-367.83 337.75,-375.75 337.75,-375.75 337.75,-379.71 333.79,-383.67 329.83,-383.67"/>
<text text-anchor="middle" x="168.88" y="-366.37" font-family="Arial" font-size="14.00" fill="#ff6c60">src/editor/details/info&#45;details/info&#45;details.component.ts</text>
</g>
<!-- src/editor/details/service/details.service.ts -->
<g id="node2" class="node">
<title>src/editor/details/service/details.service.ts</title>
<path fill="none" stroke="#ff6c60" d="M645.46,-133.67C645.46,-133.67 397.04,-133.67 397.04,-133.67 393.08,-133.67 389.12,-129.71 389.12,-125.75 389.12,-125.75 389.12,-117.83 389.12,-117.83 389.12,-113.87 393.08,-109.92 397.04,-109.92 397.04,-109.92 645.46,-109.92 645.46,-109.92 649.42,-109.92 653.38,-113.87 653.38,-117.83 653.38,-117.83 653.38,-125.75 653.38,-125.75 653.38,-129.71 649.42,-133.67 645.46,-133.67"/>
<text text-anchor="middle" x="521.25" y="-116.37" font-family="Arial" font-size="14.00" fill="#ff6c60">src/editor/details/service/details.service.ts</text>
</g>
<!-- src/editor/details/info&#45;details/info&#45;details.component.ts&#45;&gt;src/editor/details/service/details.service.ts -->
<g id="edge1" class="edge">
<title>src/editor/details/info&#45;details/info&#45;details.component.ts&#45;&gt;src/editor/details/service/details.service.ts</title>
<path fill="none" stroke="#757575" d="M186.77,-359.73C243.19,-319.48 425.33,-189.52 493.85,-140.63"/>
<polygon fill="#757575" stroke="#757575" points="495.77,-143.56 501.88,-134.9 491.7,-137.86 495.77,-143.56"/>
</g>
<!-- src/editor/details/service/msg&#45;details.service.ts -->
<g id="node3" class="node">
<title>src/editor/details/service/msg&#45;details.service.ts</title>
<path fill="none" stroke="#ff6c60" d="M660.83,-363.67C660.83,-363.67 381.67,-363.67 381.67,-363.67 377.71,-363.67 373.75,-359.71 373.75,-355.75 373.75,-355.75 373.75,-347.83 373.75,-347.83 373.75,-343.87 377.71,-339.92 381.67,-339.92 381.67,-339.92 660.83,-339.92 660.83,-339.92 664.79,-339.92 668.75,-343.87 668.75,-347.83 668.75,-347.83 668.75,-355.75 668.75,-355.75 668.75,-359.71 664.79,-363.67 660.83,-363.67"/>
<text text-anchor="middle" x="521.25" y="-346.37" font-family="Arial" font-size="14.00" fill="#ff6c60">src/editor/details/service/msg&#45;details.service.ts</text>
</g>
<!-- src/editor/details/info&#45;details/info&#45;details.component.ts&#45;&gt;src/editor/details/service/msg&#45;details.service.ts -->
<g id="edge2" class="edge">
<title>src/editor/details/info&#45;details/info&#45;details.component.ts&#45;&gt;src/editor/details/service/msg&#45;details.service.ts</title>
<path fill="none" stroke="#757575" d="M338.14,-362.19C346.03,-361.74 353.95,-361.28 361.82,-360.83"/>
<polygon fill="#757575" stroke="#757575" points="362.02,-364.33 371.81,-360.26 361.62,-357.34 362.02,-364.33"/>
</g>
<!-- src/shared/models/keml/msg&#45;info.ts -->
<g id="node4" class="node">
<title>src/shared/models/keml/msg&#45;info.ts</title>
<path fill="none" stroke="#ff6c60" d="M2754.83,-218.67C2754.83,-218.67 2540.17,-218.67 2540.17,-218.67 2536.21,-218.67 2532.25,-214.71 2532.25,-210.75 2532.25,-210.75 2532.25,-202.83 2532.25,-202.83 2532.25,-198.87 2536.21,-194.92 2540.17,-194.92 2540.17,-194.92 2754.83,-194.92 2754.83,-194.92 2758.79,-194.92 2762.75,-198.87 2762.75,-202.83 2762.75,-202.83 2762.75,-210.75 2762.75,-210.75 2762.75,-214.71 2758.79,-218.67 2754.83,-218.67"/>
<text text-anchor="middle" x="2647.5" y="-201.37" font-family="Arial" font-size="14.00" fill="#ff6c60">src/shared/models/keml/msg&#45;info.ts</text>
</g>
<!-- src/editor/details/info&#45;details/info&#45;details.component.ts&#45;&gt;src/shared/models/keml/msg&#45;info.ts -->
<g id="edge3" class="edge">
<title>src/editor/details/info&#45;details/info&#45;details.component.ts&#45;&gt;src/shared/models/keml/msg&#45;info.ts</title>
<path fill="none" stroke="#757575" d="M266.73,-384.15C412.99,-401.71 699.07,-431.79 943.12,-431.79 943.12,-431.79 943.12,-431.79 1979,-431.79 2209.51,-431.79 2292.18,-500.98 2496.25,-393.79 2567.02,-356.62 2616.14,-270.05 2636.28,-229.07"/>
<polygon fill="#757575" stroke="#757575" points="2639.38,-230.69 2640.54,-220.16 2633.07,-227.68 2639.38,-230.69"/>
</g>
<!-- src/editor/details/service/details.service.ts&#45;&gt;src/shared/models/keml/msg&#45;info.ts -->
<g id="edge12" class="edge">
<title>src/editor/details/service/details.service.ts&#45;&gt;src/shared/models/keml/msg&#45;info.ts</title>
<path fill="none" stroke="#757575" d="M604.26,-109.43C757.54,-87.44 1098.08,-43.79 1386.62,-43.79 1386.62,-43.79 1386.62,-43.79 1979,-43.79 2212.42,-43.79 2273.99,-63.47 2496.25,-134.79 2539.61,-148.71 2586.47,-172.74 2616.12,-189.18"/>
<polygon fill="#757575" stroke="#757575" points="2614.1,-192.06 2624.53,-193.91 2617.53,-185.96 2614.1,-192.06"/>
</g>
<!-- src/editor/details/information&#45;link&#45;details/information&#45;link&#45;details.component.ts -->
<g id="node5" class="node">
<title>src/editor/details/information&#45;link&#45;details/information&#45;link&#45;details.component.ts</title>
<path fill="none" stroke="#ff6c60" d="M1175.58,-133.67C1175.58,-133.67 712.67,-133.67 712.67,-133.67 708.71,-133.67 704.75,-129.71 704.75,-125.75 704.75,-125.75 704.75,-117.83 704.75,-117.83 704.75,-113.87 708.71,-109.92 712.67,-109.92 712.67,-109.92 1175.58,-109.92 1175.58,-109.92 1179.54,-109.92 1183.5,-113.87 1183.5,-117.83 1183.5,-117.83 1183.5,-125.75 1183.5,-125.75 1183.5,-129.71 1179.54,-133.67 1175.58,-133.67"/>
<text text-anchor="middle" x="944.12" y="-116.37" font-family="Arial" font-size="14.00" fill="#ff6c60">src/editor/details/information&#45;link&#45;details/information&#45;link&#45;details.component.ts</text>
</g>
<!-- src/editor/details/service/details.service.ts&#45;&gt;src/editor/details/information&#45;link&#45;details/information&#45;link&#45;details.component.ts -->
<g id="edge10" class="edge">
<title>src/editor/details/service/details.service.ts&#45;&gt;src/editor/details/information&#45;link&#45;details/information&#45;link&#45;details.component.ts</title>
<path fill="none" stroke="#757575" d="M653.69,-121.79C666.41,-121.79 679.57,-121.79 692.97,-121.79"/>
<polygon fill="#757575" stroke="#757575" points="692.75,-125.29 702.75,-121.79 692.75,-118.29 692.75,-125.29"/>
</g>
<!-- src/shared/models/keml/conversation&#45;partner.ts -->
<g id="node9" class="node">
<title>src/shared/models/keml/conversation&#45;partner.ts</title>
<path fill="none" stroke="#ff6c60" d="M3091.83,-109.67C3091.83,-109.67 2806.67,-109.67 2806.67,-109.67 2802.71,-109.67 2798.75,-105.71 2798.75,-101.75 2798.75,-101.75 2798.75,-93.83 2798.75,-93.83 2798.75,-89.87 2802.71,-85.92 2806.67,-85.92 2806.67,-85.92 3091.83,-85.92 3091.83,-85.92 3095.79,-85.92 3099.75,-89.87 3099.75,-93.83 3099.75,-93.83 3099.75,-101.75 3099.75,-101.75 3099.75,-105.71 3095.79,-109.67 3091.83,-109.67"/>
<text text-anchor="middle" x="2949.25" y="-92.37" font-family="Arial" font-size="14.00" fill="#ff6c60">src/shared/models/keml/conversation&#45;partner.ts</text>
</g>
<!-- src/editor/details/service/details.service.ts&#45;&gt;src/shared/models/keml/conversation&#45;partner.ts -->
<g id="edge11" class="edge">
<title>src/editor/details/service/details.service.ts&#45;&gt;src/shared/models/keml/conversation&#45;partner.ts</title>
<path fill="none" stroke="#757575" d="M545.06,-109.52C578.84,-92.04 644.64,-60.55 704.75,-46.79 1000.7,20.94 1083.02,-5.79 1386.62,-5.79 1386.62,-5.79 1386.62,-5.79 2322.75,-5.79 2532.07,-5.79 2776.63,-56.84 2887.78,-82.89"/>
<polygon fill="#757575" stroke="#757575" points="2886.74,-86.24 2897.28,-85.13 2888.35,-79.43 2886.74,-86.24"/>
</g>
<!-- src/editor/details/service/msg&#45;details.service.ts&#45;&gt;src/shared/models/keml/msg&#45;info.ts -->
<g id="edge16" class="edge">
<title>src/editor/details/service/msg&#45;details.service.ts&#45;&gt;src/shared/models/keml/msg&#45;info.ts</title>
<path fill="none" stroke="#757575" d="M669.07,-351.79C841.04,-351.79 1134.52,-351.79 1386.62,-351.79 1386.62,-351.79 1386.62,-351.79 1979,-351.79 2094.09,-351.79 2388.54,-366.34 2496.25,-325.79 2551.61,-304.95 2602.53,-255.68 2628.49,-227.5"/>
<polygon fill="#757575" stroke="#757575" points="2630.9,-230.05 2635,-220.28 2625.7,-225.37 2630.9,-230.05"/>
</g>
<!-- src/editor/details/msg&#45;details/msg&#45;details.component.ts -->
<g id="node7" class="node">
<title>src/editor/details/msg&#45;details/msg&#45;details.component.ts</title>
<path fill="none" stroke="#ff6c60" d="M1109.58,-323.67C1109.58,-323.67 778.67,-323.67 778.67,-323.67 774.71,-323.67 770.75,-319.71 770.75,-315.75 770.75,-315.75 770.75,-307.83 770.75,-307.83 770.75,-303.87 774.71,-299.92 778.67,-299.92 778.67,-299.92 1109.58,-299.92 1109.58,-299.92 1113.54,-299.92 1117.5,-303.87 1117.5,-307.83 1117.5,-307.83 1117.5,-315.75 1117.5,-315.75 1117.5,-319.71 1113.54,-323.67 1109.58,-323.67"/>
<text text-anchor="middle" x="944.12" y="-306.37" font-family="Arial" font-size="14.00" fill="#ff6c60">src/editor/details/msg&#45;details/msg&#45;details.component.ts</text>
</g>
<!-- src/editor/details/service/msg&#45;details.service.ts&#45;&gt;src/editor/details/msg&#45;details/msg&#45;details.component.ts -->
<g id="edge15" class="edge">
<title>src/editor/details/service/msg&#45;details.service.ts&#45;&gt;src/editor/details/msg&#45;details/msg&#45;details.component.ts</title>
<path fill="none" stroke="#757575" d="M652.25,-339.44C699.63,-334.93 753.41,-329.82 801.74,-325.23"/>
<polygon fill="#757575" stroke="#757575" points="801.79,-328.74 811.42,-324.31 801.13,-321.77 801.79,-328.74"/>
</g>
<!-- src/shared/models/keml/msg&#45;info.ts&#45;&gt;src/shared/models/keml/conversation&#45;partner.ts -->
<g id="edge28" class="edge">
<title>src/shared/models/keml/msg&#45;info.ts&#45;&gt;src/shared/models/keml/conversation&#45;partner.ts</title>
<path fill="none" stroke="#757575" d="M2666.08,-194.51C2693.23,-176.15 2747.59,-141.8 2798.75,-123.79 2811.5,-119.31 2825.13,-115.57 2838.8,-112.47"/>
<polygon fill="#757575" stroke="#757575" points="2839.22,-115.96 2848.26,-110.44 2837.75,-109.12 2839.22,-115.96"/>
</g>
<!-- src/shared/models/parser/parser.ts -->
<g id="node14" class="node">
<title>src/shared/models/parser/parser.ts</title>
<path fill="none" stroke="#ff6c60" d="M3352.33,-189.67C3352.33,-189.67 3143.67,-189.67 3143.67,-189.67 3139.71,-189.67 3135.75,-185.71 3135.75,-181.75 3135.75,-181.75 3135.75,-173.83 3135.75,-173.83 3135.75,-169.87 3139.71,-165.92 3143.67,-165.92 3143.67,-165.92 3352.33,-165.92 3352.33,-165.92 3356.29,-165.92 3360.25,-169.87 3360.25,-173.83 3360.25,-173.83 3360.25,-181.75 3360.25,-181.75 3360.25,-185.71 3356.29,-189.67 3352.33,-189.67"/>
<text text-anchor="middle" x="3248" y="-172.37" font-family="Arial" font-size="14.00" fill="#ff6c60">src/shared/models/parser/parser.ts</text>
</g>
<!-- src/shared/models/keml/msg&#45;info.ts&#45;&gt;src/shared/models/parser/parser.ts -->
<g id="edge29" class="edge">
<title>src/shared/models/keml/msg&#45;info.ts&#45;&gt;src/shared/models/parser/parser.ts</title>
<path fill="none" stroke="#757575" d="M2763.19,-201.23C2866.59,-196.22 3018.23,-188.88 3124.1,-183.75"/>
<polygon fill="#757575" stroke="#757575" points="3124.15,-187.25 3133.97,-183.27 3123.81,-180.26 3124.15,-187.25"/>
</g>
<!-- src/editor/details/information&#45;link&#45;details/information&#45;link&#45;details.component.ts&#45;&gt;src/shared/models/keml/msg&#45;info.ts -->
<g id="edge5" class="edge">
<title>src/editor/details/information&#45;link&#45;details/information&#45;link&#45;details.component.ts&#45;&gt;src/shared/models/keml/msg&#45;info.ts</title>
<path fill="none" stroke="#757575" d="M1132.13,-109.42C1161.36,-107.91 1191.24,-106.61 1219.5,-105.79 1787.68,-89.24 1932.3,-109.66 2496.25,-180.79 2520.85,-183.89 2547.56,-188.21 2571.55,-192.43"/>
<polygon fill="#757575" stroke="#757575" points="2570.77,-195.85 2581.23,-194.16 2572,-188.95 2570.77,-195.85"/>
</g>
<!-- src/editor/helper/info&#45;choice/info&#45;choice.component.ts -->
<g id="node6" class="node">
<title>src/editor/helper/info&#45;choice/info&#45;choice.component.ts</title>
<path fill="none" stroke="#ff6c60" d="M1547.83,-190.67C1547.83,-190.67 1227.42,-190.67 1227.42,-190.67 1223.46,-190.67 1219.5,-186.71 1219.5,-182.75 1219.5,-182.75 1219.5,-174.83 1219.5,-174.83 1219.5,-170.87 1223.46,-166.92 1227.42,-166.92 1227.42,-166.92 1547.83,-166.92 1547.83,-166.92 1551.79,-166.92 1555.75,-170.87 1555.75,-174.83 1555.75,-174.83 1555.75,-182.75 1555.75,-182.75 1555.75,-186.71 1551.79,-190.67 1547.83,-190.67"/>
<text text-anchor="middle" x="1387.62" y="-173.37" font-family="Arial" font-size="14.00" fill="#ff6c60">src/editor/helper/info&#45;choice/info&#45;choice.component.ts</text>
</g>
<!-- src/editor/details/information&#45;link&#45;details/information&#45;link&#45;details.component.ts&#45;&gt;src/editor/helper/info&#45;choice/info&#45;choice.component.ts -->
<g id="edge4" class="edge">
<title>src/editor/details/information&#45;link&#45;details/information&#45;link&#45;details.component.ts&#45;&gt;src/editor/helper/info&#45;choice/info&#45;choice.component.ts</title>
<path fill="none" stroke="#757575" d="M1040.92,-134.16C1111.36,-143.25 1207.11,-155.61 1279.98,-165.02"/>
<polygon fill="#757575" stroke="#757575" points="1279.15,-168.44 1289.51,-166.25 1280.04,-161.5 1279.15,-168.44"/>
</g>
<!-- src/editor/helper/info&#45;choice/info&#45;choice.component.ts&#45;&gt;src/shared/models/keml/msg&#45;info.ts -->
<g id="edge18" class="edge">
<title>src/editor/helper/info&#45;choice/info&#45;choice.component.ts&#45;&gt;src/shared/models/keml/msg&#45;info.ts</title>
<path fill="none" stroke="#757575" d="M1556,-177.01C1568.1,-176.92 1580.11,-176.85 1591.75,-176.79 1993.86,-174.81 2094.5,-181.67 2496.25,-198.79 2504.23,-199.13 2512.46,-199.5 2520.74,-199.9"/>
<polygon fill="#757575" stroke="#757575" points="2520.4,-203.39 2530.56,-200.37 2520.74,-196.39 2520.4,-203.39"/>
</g>
<!-- src/editor/msg/msg.component.ts -->
<g id="node10" class="node">
<title>src/editor/msg/msg.component.ts</title>
<path fill="none" stroke="#ff6c60" d="M1800.83,-209.67C1800.83,-209.67 1599.67,-209.67 1599.67,-209.67 1595.71,-209.67 1591.75,-205.71 1591.75,-201.75 1591.75,-201.75 1591.75,-193.83 1591.75,-193.83 1591.75,-189.87 1595.71,-185.92 1599.67,-185.92 1599.67,-185.92 1800.83,-185.92 1800.83,-185.92 1804.79,-185.92 1808.75,-189.87 1808.75,-193.83 1808.75,-193.83 1808.75,-201.75 1808.75,-201.75 1808.75,-205.71 1804.79,-209.67 1800.83,-209.67"/>
<text text-anchor="middle" x="1700.25" y="-192.37" font-family="Arial" font-size="14.00" fill="#ff6c60">src/editor/msg/msg.component.ts</text>
</g>
<!-- src/editor/helper/info&#45;choice/info&#45;choice.component.ts&#45;&gt;src/editor/msg/msg.component.ts -->
<g id="edge17" class="edge">
<title>src/editor/helper/info&#45;choice/info&#45;choice.component.ts&#45;&gt;src/editor/msg/msg.component.ts</title>
<path fill="none" stroke="#757575" d="M1556.21,-189.04C1564.2,-189.53 1572.15,-190.02 1579.96,-190.49"/>
<polygon fill="#757575" stroke="#757575" points="1579.61,-193.98 1589.81,-191.1 1580.04,-186.99 1579.61,-193.98"/>
</g>
<!-- src/editor/details/msg&#45;details/msg&#45;details.component.ts&#45;&gt;src/shared/models/keml/msg&#45;info.ts -->
<g id="edge9" class="edge">
<title>src/editor/details/msg&#45;details/msg&#45;details.component.ts&#45;&gt;src/shared/models/keml/msg&#45;info.ts</title>
<path fill="none" stroke="#757575" d="M1117.72,-312.51C1270.57,-313.08 1499.75,-313.79 1699.25,-313.79 1699.25,-313.79 1699.25,-313.79 1979,-313.79 2209.04,-313.79 2275.37,-359.09 2496.25,-294.79 2544.8,-280.66 2594.06,-247.42 2622.36,-226.08"/>
<polygon fill="#757575" stroke="#757575" points="2624.47,-228.87 2630.27,-220 2620.21,-223.32 2624.47,-228.87"/>
</g>
<!-- src/editor/details/msg&#45;details/msg&#45;details.component.ts&#45;&gt;src/editor/helper/info&#45;choice/info&#45;choice.component.ts -->
<g id="edge7" class="edge">
<title>src/editor/details/msg&#45;details/msg&#45;details.component.ts&#45;&gt;src/editor/helper/info&#45;choice/info&#45;choice.component.ts</title>
<path fill="none" stroke="#757575" d="M985.87,-299.52C1066.42,-275.25 1245.93,-221.17 1334.77,-194.41"/>
<polygon fill="#757575" stroke="#757575" points="1335.64,-197.8 1344.21,-191.57 1333.63,-191.1 1335.64,-197.8"/>
</g>
<!-- src/editor/details/service/info&#45;details.service.ts -->
<g id="node8" class="node">
<title>src/editor/details/service/info&#45;details.service.ts</title>
<path fill="none" stroke="#ff6c60" d="M1524.96,-403.67C1524.96,-403.67 1250.29,-403.67 1250.29,-403.67 1246.33,-403.67 1242.38,-399.71 1242.38,-395.75 1242.38,-395.75 1242.38,-387.83 1242.38,-387.83 1242.38,-383.87 1246.33,-379.92 1250.29,-379.92 1250.29,-379.92 1524.96,-379.92 1524.96,-379.92 1528.92,-379.92 1532.88,-383.87 1532.88,-387.83 1532.88,-387.83 1532.88,-395.75 1532.88,-395.75 1532.88,-399.71 1528.92,-403.67 1524.96,-403.67"/>
<text text-anchor="middle" x="1387.62" y="-386.37" font-family="Arial" font-size="14.00" fill="#ff6c60">src/editor/details/service/info&#45;details.service.ts</text>
</g>
<!-- src/editor/details/msg&#45;details/msg&#45;details.component.ts&#45;&gt;src/editor/details/service/info&#45;details.service.ts -->
<g id="edge6" class="edge">
<title>src/editor/details/msg&#45;details/msg&#45;details.component.ts&#45;&gt;src/editor/details/service/info&#45;details.service.ts</title>
<path fill="none" stroke="#757575" d="M1013.14,-324.12C1092.46,-338.49 1223.38,-362.21 1307.27,-377.41"/>
<polygon fill="#757575" stroke="#757575" points="1306.58,-380.84 1317.04,-379.18 1307.83,-373.96 1306.58,-380.84"/>
</g>
<!-- src/editor/details/msg&#45;details/msg&#45;details.component.ts&#45;&gt;src/shared/models/keml/conversation&#45;partner.ts -->
<g id="edge8" class="edge">
<title>src/editor/details/msg&#45;details/msg&#45;details.component.ts&#45;&gt;src/shared/models/keml/conversation&#45;partner.ts</title>
<path fill="none" stroke="#757575" d="M960.62,-299.49C1000.59,-268.58 1111.67,-187.99 1219.5,-157.79 1511.08,-76.13 2416.03,-85.89 2787.06,-93.72"/>
<polygon fill="#757575" stroke="#757575" points="2786.83,-97.21 2796.91,-93.93 2786.98,-90.21 2786.83,-97.21"/>
</g>
<!-- src/editor/details/service/info&#45;details.service.ts&#45;&gt;src/editor/details/info&#45;details/info&#45;details.component.ts -->
<g id="edge13" class="edge">
<title>src/editor/details/service/info&#45;details.service.ts&#45;&gt;src/editor/details/info&#45;details/info&#45;details.component.ts</title>
<path fill="none" stroke="#757575" d="M1241.88,-389.41C1018.91,-385.75 591.88,-378.73 349.5,-374.74"/>
<polygon fill="#757575" stroke="#757575" points="349.67,-371.25 339.61,-374.58 349.55,-378.25 349.67,-371.25"/>
</g>
<!-- src/editor/details/service/info&#45;details.service.ts&#45;&gt;src/shared/models/keml/msg&#45;info.ts -->
<g id="edge14" class="edge">
<title>src/editor/details/service/info&#45;details.service.ts&#45;&gt;src/shared/models/keml/msg&#45;info.ts</title>
<path fill="none" stroke="#757575" d="M1533.27,-394.57C1813.53,-399.05 2410.63,-403.88 2496.25,-365.79 2561.31,-336.85 2611.67,-265.01 2633.96,-228.64"/>
<polygon fill="#757575" stroke="#757575" points="2636.83,-230.66 2638.95,-220.28 2630.82,-227.07 2636.83,-230.66"/>
</g>
<!-- src/shared/models/keml/conversation&#45;partner.ts&#45;&gt;src/shared/models/parser/parser.ts -->
<g id="edge27" class="edge">
<title>src/shared/models/keml/conversation&#45;partner.ts&#45;&gt;src/shared/models/parser/parser.ts</title>
<path fill="none" stroke="#757575" d="M2995.97,-110.12C3048.25,-124.21 3133.88,-147.29 3190.34,-162.52"/>
<polygon fill="#757575" stroke="#757575" points="3189.2,-165.83 3199.77,-165.06 3191.03,-159.08 3189.2,-165.83"/>
</g>
<!-- src/editor/msg/msg.component.ts&#45;&gt;src/shared/models/keml/msg&#45;info.ts -->
<g id="edge22" class="edge">
<title>src/editor/msg/msg.component.ts&#45;&gt;src/shared/models/keml/msg&#45;info.ts</title>
<path fill="none" stroke="#757575" d="M1809.22,-198.82C1985.34,-200.5 2333.53,-203.81 2520.61,-205.59"/>
<polygon fill="#757575" stroke="#757575" points="2520.32,-209.09 2530.35,-205.69 2520.39,-202.09 2520.32,-209.09"/>
</g>
<!-- src/editor/new&#45;info/new&#45;info.component.ts -->
<g id="node12" class="node">
<title>src/editor/new&#45;info/new&#45;info.component.ts</title>
<path fill="none" stroke="#ff6c60" d="M2103.33,-247.67C2103.33,-247.67 1852.67,-247.67 1852.67,-247.67 1848.71,-247.67 1844.75,-243.71 1844.75,-239.75 1844.75,-239.75 1844.75,-231.83 1844.75,-231.83 1844.75,-227.87 1848.71,-223.92 1852.67,-223.92 1852.67,-223.92 2103.33,-223.92 2103.33,-223.92 2107.29,-223.92 2111.25,-227.87 2111.25,-231.83 2111.25,-231.83 2111.25,-239.75 2111.25,-239.75 2111.25,-243.71 2107.29,-247.67 2103.33,-247.67"/>
<text text-anchor="middle" x="1978" y="-230.37" font-family="Arial" font-size="14.00" fill="#ff6c60">src/editor/new&#45;info/new&#45;info.component.ts</text>
</g>
<!-- src/editor/msg/msg.component.ts&#45;&gt;src/editor/new&#45;info/new&#45;info.component.ts -->
<g id="edge21" class="edge">
<title>src/editor/msg/msg.component.ts&#45;&gt;src/editor/new&#45;info/new&#45;info.component.ts</title>
<path fill="none" stroke="#757575" d="M1790.78,-210.13C1818.13,-213.9 1848.38,-218.07 1876.42,-221.93"/>
<polygon fill="#757575" stroke="#757575" points="1875.57,-225.35 1885.95,-223.24 1876.52,-218.41 1875.57,-225.35"/>
</g>
<!-- src/editor/information&#45;link/information&#45;link.component.ts -->
<g id="node11" class="node">
<title>src/editor/information&#45;link/information&#45;link.component.ts</title>
<path fill="none" stroke="#ff6c60" d="M2488.33,-285.67C2488.33,-285.67 2155.17,-285.67 2155.17,-285.67 2151.21,-285.67 2147.25,-281.71 2147.25,-277.75 2147.25,-277.75 2147.25,-269.83 2147.25,-269.83 2147.25,-265.87 2151.21,-261.92 2155.17,-261.92 2155.17,-261.92 2488.33,-261.92 2488.33,-261.92 2492.29,-261.92 2496.25,-265.87 2496.25,-269.83 2496.25,-269.83 2496.25,-277.75 2496.25,-277.75 2496.25,-281.71 2492.29,-285.67 2488.33,-285.67"/>
<text text-anchor="middle" x="2321.75" y="-268.37" font-family="Arial" font-size="14.00" fill="#ff6c60">src/editor/information&#45;link/information&#45;link.component.ts</text>
</g>
<!-- src/editor/information&#45;link/information&#45;link.component.ts&#45;&gt;src/editor/details/service/details.service.ts -->
<g id="edge19" class="edge">
<title>src/editor/information&#45;link/information&#45;link.component.ts&#45;&gt;src/editor/details/service/details.service.ts</title>
<path fill="none" stroke="#757575" d="M2146.83,-269.88C2056.64,-267.27 1944.71,-263.13 1844.75,-256.79 1391.73,-228.07 854.19,-163.8 629.4,-135.55"/>
<polygon fill="#757575" stroke="#757575" points="630.14,-132.12 619.79,-134.34 629.27,-139.06 630.14,-132.12"/>
</g>
<!-- src/editor/information&#45;link/information&#45;link.component.ts&#45;&gt;src/shared/models/keml/msg&#45;info.ts -->
<g id="edge20" class="edge">
<title>src/editor/information&#45;link/information&#45;link.component.ts&#45;&gt;src/shared/models/keml/msg&#45;info.ts</title>
<path fill="none" stroke="#757575" d="M2419.02,-261.42C2444.25,-257.62 2471.36,-253.03 2496.25,-247.79 2529.68,-240.75 2566.72,-230.67 2595.65,-222.27"/>
<polygon fill="#757575" stroke="#757575" points="2596.26,-225.74 2604.87,-219.57 2594.29,-219.02 2596.26,-225.74"/>
</g>
<!-- src/editor/new&#45;info/new&#45;info.component.ts&#45;&gt;src/shared/models/keml/msg&#45;info.ts -->
<g id="edge24" class="edge">
<title>src/editor/new&#45;info/new&#45;info.component.ts&#45;&gt;src/shared/models/keml/msg&#45;info.ts</title>
<path fill="none" stroke="#757575" d="M2111.67,-230.03C2230.52,-224.86 2403.6,-217.34 2520.4,-212.27"/>
<polygon fill="#757575" stroke="#757575" points="2520.52,-215.77 2530.36,-211.84 2520.22,-208.77 2520.52,-215.77"/>
</g>
<!-- src/editor/new&#45;info/new&#45;info.component.ts&#45;&gt;src/editor/information&#45;link/information&#45;link.component.ts -->
<g id="edge23" class="edge">
<title>src/editor/new&#45;info/new&#45;info.component.ts&#45;&gt;src/editor/information&#45;link/information&#45;link.component.ts</title>
<path fill="none" stroke="#757575" d="M2089.96,-248.13C2124.51,-251.97 2162.82,-256.23 2198.12,-260.16"/>
<polygon fill="#757575" stroke="#757575" points="2197.64,-263.62 2207.97,-261.25 2198.42,-256.67 2197.64,-263.62"/>
</g>
<!-- src/shared/models/keml/author.ts -->
<g id="node13" class="node">
<title>src/shared/models/keml/author.ts</title>
<path fill="none" stroke="#ff6c60" d="M3979.08,-190.67C3979.08,-190.67 3779.42,-190.67 3779.42,-190.67 3775.46,-190.67 3771.5,-186.71 3771.5,-182.75 3771.5,-182.75 3771.5,-174.83 3771.5,-174.83 3771.5,-170.87 3775.46,-166.92 3779.42,-166.92 3779.42,-166.92 3979.08,-166.92 3979.08,-166.92 3983.04,-166.92 3987,-170.87 3987,-174.83 3987,-174.83 3987,-182.75 3987,-182.75 3987,-186.71 3983.04,-190.67 3979.08,-190.67"/>
<text text-anchor="middle" x="3879.25" y="-173.37" font-family="Arial" font-size="14.00" fill="#ff6c60">src/shared/models/keml/author.ts</text>
</g>
<!-- src/shared/models/keml/author.ts&#45;&gt;src/shared/models/keml/msg&#45;info.ts -->
<g id="edge25" class="edge">
<title>src/shared/models/keml/author.ts&#45;&gt;src/shared/models/keml/msg&#45;info.ts</title>
<path fill="none" stroke="#757575" d="M3771.14,-190.24C3759.13,-191.24 3747.06,-192.13 3735.5,-192.79 3387.85,-212.81 2976.66,-211.25 2774.12,-208.81"/>
<polygon fill="#757575" stroke="#757575" points="2774.42,-205.31 2764.38,-208.69 2774.33,-212.31 2774.42,-205.31"/>
</g>
<!-- src/shared/models/keml/author.ts&#45;&gt;src/shared/models/parser/parser.ts -->
<g id="edge26" class="edge">
<title>src/shared/models/keml/author.ts&#45;&gt;src/shared/models/parser/parser.ts</title>
<path fill="none" stroke="#757575" d="M3771.06,-178.62C3660.38,-178.44 3487.92,-178.17 3371.82,-177.99"/>
<polygon fill="#757575" stroke="#757575" points="3371.93,-174.49 3361.92,-177.97 3371.92,-181.49 3371.93,-174.49"/>
</g>
<!-- src/shared/models/keml/parser/constructor&#45;pointers.ts -->
<g id="node15" class="node">
<title>src/shared/models/keml/parser/constructor&#45;pointers.ts</title>
<path fill="none" stroke="#ff6c60" d="M3727.58,-150.67C3727.58,-150.67 3404.17,-150.67 3404.17,-150.67 3400.21,-150.67 3396.25,-146.71 3396.25,-142.75 3396.25,-142.75 3396.25,-134.83 3396.25,-134.83 3396.25,-130.87 3400.21,-126.92 3404.17,-126.92 3404.17,-126.92 3727.58,-126.92 3727.58,-126.92 3731.54,-126.92 3735.5,-130.87 3735.5,-134.83 3735.5,-134.83 3735.5,-142.75 3735.5,-142.75 3735.5,-146.71 3731.54,-150.67 3727.58,-150.67"/>
<text text-anchor="middle" x="3565.88" y="-133.37" font-family="Arial" font-size="14.00" fill="#ff6c60">src/shared/models/keml/parser/constructor&#45;pointers.ts</text>
</g>
<!-- src/shared/models/parser/parser.ts&#45;&gt;src/shared/models/keml/parser/constructor&#45;pointers.ts -->
<g id="edge34" class="edge">
<title>src/shared/models/parser/parser.ts&#45;&gt;src/shared/models/keml/parser/constructor&#45;pointers.ts</title>
<path fill="none" stroke="#757575" d="M3305.84,-165.45C3332.33,-161.3 3365.36,-156.75 3398.89,-152.54"/>
<polygon fill="#757575" stroke="#757575" points="3399.27,-156.02 3408.76,-151.32 3398.41,-149.08 3399.27,-156.02"/>
</g>
<!-- src/shared/models/keml/parser/constructor&#45;pointers.ts&#45;&gt;src/shared/models/keml/msg&#45;info.ts -->
<g id="edge32" class="edge">
<title>src/shared/models/keml/parser/constructor&#45;pointers.ts&#45;&gt;src/shared/models/keml/msg&#45;info.ts</title>
<path fill="none" stroke="#757575" d="M3395.82,-142.13C3240.23,-146.66 3003.27,-157.24 2798.75,-181.79 2774.95,-184.65 2749.16,-188.62 2725.78,-192.55"/>
<polygon fill="#757575" stroke="#757575" points="2725.27,-189.09 2716,-194.22 2726.45,-195.99 2725.27,-189.09"/>
</g>
<!-- src/shared/models/keml/parser/constructor&#45;pointers.ts&#45;&gt;src/shared/models/keml/conversation&#45;partner.ts -->
<g id="edge31" class="edge">
<title>src/shared/models/keml/parser/constructor&#45;pointers.ts&#45;&gt;src/shared/models/keml/conversation&#45;partner.ts</title>
<path fill="none" stroke="#757575" d="M3397.93,-126.42C3385.18,-125.51 3372.51,-124.63 3360.25,-123.79 3278.19,-118.18 3186.85,-112.35 3111.25,-107.63"/>
<polygon fill="#757575" stroke="#757575" points="3111.93,-104.17 3101.73,-107.04 3111.49,-111.16 3111.93,-104.17"/>
</g>
<!-- src/shared/models/keml/parser/constructor&#45;pointers.ts&#45;&gt;src/shared/models/keml/author.ts -->
<g id="edge30" class="edge">
<title>src/shared/models/keml/parser/constructor&#45;pointers.ts&#45;&gt;src/shared/models/keml/author.ts</title>
<path fill="none" stroke="#757575" d="M3662.84,-151.12C3697.02,-155.51 3735.73,-160.48 3770.81,-164.99"/>
<polygon fill="#757575" stroke="#757575" points="3770.2,-168.44 3780.57,-166.24 3771.09,-161.5 3770.2,-168.44"/>
</g>
<!-- src/shared/models/keml/parser/constructor&#45;pointers.ts&#45;&gt;src/shared/models/parser/parser.ts -->
<g id="edge33" class="edge">
<title>src/shared/models/keml/parser/constructor&#45;pointers.ts&#45;&gt;src/shared/models/parser/parser.ts</title>
<path fill="none" stroke="#757575" d="M3508.03,-151.14C3470.05,-157.09 3418.61,-163.86 3371.58,-169.25"/>
<polygon fill="#757575" stroke="#757575" points="3371.41,-165.75 3361.87,-170.35 3372.2,-172.71 3371.41,-165.75"/>
</g>
</g>
</svg>
