<?xml version="1.0" encoding="UTF-8" standalone="no"?>
<!DOCTYPE svg PUBLIC "-//W3C//DTD SVG 1.1//EN"
 "http://www.w3.org/Graphics/SVG/1.1/DTD/svg11.dtd">
<!-- Generated by graphviz version 11.0.0 (20240428.1522)
 -->
<!-- Title: G Pages: 1 -->
<svg width="3876pt" height="493pt"
 viewBox="0.00 0.00 3876.45 492.82" xmlns="http://www.w3.org/2000/svg" xmlns:xlink="http://www.w3.org/1999/xlink">
<g id="graph0" class="graph" transform="scale(1 1) rotate(0) translate(21.6 471.22)">
<title>G</title>
<polygon fill="#111111" stroke="none" points="-21.6,21.6 -21.6,-471.22 3854.85,-471.22 3854.85,21.6 -21.6,21.6"/>
<!-- src/editor/details/info&#45;details/info&#45;details.component.ts -->
<g id="node1" class="node">
<title>src/editor/details/info&#45;details/info&#45;details.component.ts</title>
<path fill="none" stroke="#ff6c60" d="M329.83,-310.97C329.83,-310.97 7.92,-310.97 7.92,-310.97 3.96,-310.97 0,-307.01 0,-303.06 0,-303.06 0,-295.14 0,-295.14 0,-291.18 3.96,-287.22 7.92,-287.22 7.92,-287.22 329.83,-287.22 329.83,-287.22 333.79,-287.22 337.75,-291.18 337.75,-295.14 337.75,-295.14 337.75,-303.06 337.75,-303.06 337.75,-307.01 333.79,-310.97 329.83,-310.97"/>
<text text-anchor="middle" x="168.88" y="-293.67" font-family="Arial" font-size="14.00" fill="#ff6c60">src/editor/details/info&#45;details/info&#45;details.component.ts</text>
</g>
<!-- src/editor/details/service/details.service.ts -->
<g id="node2" class="node">
<title>src/editor/details/service/details.service.ts</title>
<path fill="none" stroke="#ff6c60" d="M1951.83,-310.97C1951.83,-310.97 1703.42,-310.97 1703.42,-310.97 1699.46,-310.97 1695.5,-307.01 1695.5,-303.06 1695.5,-303.06 1695.5,-295.14 1695.5,-295.14 1695.5,-291.18 1699.46,-287.22 1703.42,-287.22 1703.42,-287.22 1951.83,-287.22 1951.83,-287.22 1955.79,-287.22 1959.75,-291.18 1959.75,-295.14 1959.75,-295.14 1959.75,-303.06 1959.75,-303.06 1959.75,-307.01 1955.79,-310.97 1951.83,-310.97"/>
<text text-anchor="middle" x="1827.62" y="-293.67" font-family="Arial" font-size="14.00" fill="#ff6c60">src/editor/details/service/details.service.ts</text>
</g>
<!-- src/editor/details/info&#45;details/info&#45;details.component.ts&#45;&gt;src/editor/details/service/details.service.ts -->
<g id="edge1" class="edge">
<title>src/editor/details/info&#45;details/info&#45;details.component.ts&#45;&gt;src/editor/details/service/details.service.ts</title>
<path fill="none" stroke="#757575" d="M338.18,-291.87C478.44,-290.1 683.48,-290.1 862.5,-290.1 862.5,-290.1 862.5,-290.1 1142.25,-290.1 1329.32,-290.1 1545.16,-290.1 1683.62,-292.19"/>
<polygon fill="#757575" stroke="#757575" points="1683.54,-295.69 1693.59,-292.35 1683.65,-288.69 1683.54,-295.69"/>
</g>
<!-- src/editor/helper/msg&#45;choice/msg&#45;choice.component.ts -->
<g id="node3" class="node">
<title>src/editor/helper/msg&#45;choice/msg&#45;choice.component.ts</title>
<path fill="none" stroke="#ff6c60" d="M711.08,-196.97C711.08,-196.97 381.67,-196.97 381.67,-196.97 377.71,-196.97 373.75,-193.01 373.75,-189.06 373.75,-189.06 373.75,-181.14 373.75,-181.14 373.75,-177.18 377.71,-173.22 381.67,-173.22 381.67,-173.22 711.08,-173.22 711.08,-173.22 715.04,-173.22 719,-177.18 719,-181.14 719,-181.14 719,-189.06 719,-189.06 719,-193.01 715.04,-196.97 711.08,-196.97"/>
<text text-anchor="middle" x="546.38" y="-179.67" font-family="Arial" font-size="14.00" fill="#ff6c60">src/editor/helper/msg&#45;choice/msg&#45;choice.component.ts</text>
</g>
<!-- src/editor/details/info&#45;details/info&#45;details.component.ts&#45;&gt;src/editor/helper/msg&#45;choice/msg&#45;choice.component.ts -->
<g id="edge2" class="edge">
<title>src/editor/details/info&#45;details/info&#45;details.component.ts&#45;&gt;src/editor/helper/msg&#45;choice/msg&#45;choice.component.ts</title>
<path fill="none" stroke="#757575" d="M210.42,-286.79C279.19,-265.91 418.59,-223.59 494.06,-200.68"/>
<polygon fill="#757575" stroke="#757575" points="494.72,-204.13 503.27,-197.88 492.68,-197.44 494.72,-204.13"/>
</g>
<!-- src/shared/models/keml/msg&#45;info.ts -->
<g id="node4" class="node">
<title>src/shared/models/keml/msg&#45;info.ts</title>
<path fill="none" stroke="#ff6c60" d="M3825.33,-218.97C3825.33,-218.97 3610.67,-218.97 3610.67,-218.97 3606.71,-218.97 3602.75,-215.01 3602.75,-211.06 3602.75,-211.06 3602.75,-203.14 3602.75,-203.14 3602.75,-199.18 3606.71,-195.22 3610.67,-195.22 3610.67,-195.22 3825.33,-195.22 3825.33,-195.22 3829.29,-195.22 3833.25,-199.18 3833.25,-203.14 3833.25,-203.14 3833.25,-211.06 3833.25,-211.06 3833.25,-215.01 3829.29,-218.97 3825.33,-218.97"/>
<text text-anchor="middle" x="3718" y="-201.67" font-family="Arial" font-size="14.00" fill="#ff6c60">src/shared/models/keml/msg&#45;info.ts</text>
</g>
<!-- src/editor/details/info&#45;details/info&#45;details.component.ts&#45;&gt;src/shared/models/keml/msg&#45;info.ts -->
<g id="edge3" class="edge">
<title>src/editor/details/info&#45;details/info&#45;details.component.ts&#45;&gt;src/shared/models/keml/msg&#45;info.ts</title>
<path fill="none" stroke="#757575" d="M205.05,-311.4C305.99,-345.56 605.79,-439.1 862.5,-439.1 862.5,-439.1 862.5,-439.1 3146.62,-439.1 3334.51,-439.1 3401.87,-482.18 3566.75,-392.1 3636.12,-354.2 3685.63,-269.84 3706.29,-229.47"/>
<polygon fill="#757575" stroke="#757575" points="3709.34,-231.19 3710.67,-220.68 3703.07,-228.07 3709.34,-231.19"/>
</g>
<!-- src/editor/details/service/details.service.ts&#45;&gt;src/editor/details/info&#45;details/info&#45;details.component.ts -->
<g id="edge7" class="edge">
<title>src/editor/details/service/details.service.ts&#45;&gt;src/editor/details/info&#45;details/info&#45;details.component.ts</title>
<path fill="none" stroke="#757575" d="M1695.11,-305.82C1557.32,-308.1 1334.58,-308.1 1142.25,-308.1 862.5,-308.1 862.5,-308.1 862.5,-308.1 688.2,-308.1 489.23,-308.1 349.41,-306.46"/>
<polygon fill="#757575" stroke="#757575" points="349.73,-302.97 339.69,-306.35 349.65,-309.97 349.73,-302.97"/>
</g>
<!-- src/editor/details/service/details.service.ts&#45;&gt;src/shared/models/keml/msg&#45;info.ts -->
<g id="edge10" class="edge">
<title>src/editor/details/service/details.service.ts&#45;&gt;src/shared/models/keml/msg&#45;info.ts</title>
<path fill="none" stroke="#757575" d="M1960.11,-287.98C2223.74,-266.43 2835.82,-220.12 3351.25,-209.1 3431.1,-207.39 3520.77,-206.88 3591.34,-206.8"/>
<polygon fill="#757575" stroke="#757575" points="3590.98,-210.3 3600.98,-206.79 3590.98,-203.3 3590.98,-210.3"/>
</g>
<!-- src/editor/details/msg&#45;details/msg&#45;details.component.ts -->
<g id="node5" class="node">
<title>src/editor/details/msg&#45;details/msg&#45;details.component.ts</title>
<path fill="none" stroke="#ff6c60" d="M2334.58,-350.97C2334.58,-350.97 2003.67,-350.97 2003.67,-350.97 1999.71,-350.97 1995.75,-347.01 1995.75,-343.06 1995.75,-343.06 1995.75,-335.14 1995.75,-335.14 1995.75,-331.18 1999.71,-327.22 2003.67,-327.22 2003.67,-327.22 2334.58,-327.22 2334.58,-327.22 2338.54,-327.22 2342.5,-331.18 2342.5,-335.14 2342.5,-335.14 2342.5,-343.06 2342.5,-343.06 2342.5,-347.01 2338.54,-350.97 2334.58,-350.97"/>
<text text-anchor="middle" x="2169.12" y="-333.67" font-family="Arial" font-size="14.00" fill="#ff6c60">src/editor/details/msg&#45;details/msg&#45;details.component.ts</text>
</g>
<!-- src/editor/details/service/details.service.ts&#45;&gt;src/editor/details/msg&#45;details/msg&#45;details.component.ts -->
<g id="edge8" class="edge">
<title>src/editor/details/service/details.service.ts&#45;&gt;src/editor/details/msg&#45;details/msg&#45;details.component.ts</title>
<path fill="none" stroke="#757575" d="M1959.88,-307.97C2006.52,-313.08 2057.24,-319.38 2096.95,-325.1"/>
<polygon fill="#757575" stroke="#757575" points="2096.21,-328.53 2106.61,-326.51 2097.23,-321.6 2096.21,-328.53"/>
</g>
<!-- src/shared/models/keml/conversation&#45;partner.ts -->
<g id="node6" class="node">
<title>src/shared/models/keml/conversation&#45;partner.ts</title>
<path fill="none" stroke="#ff6c60" d="M2671.58,-311.97C2671.58,-311.97 2386.42,-311.97 2386.42,-311.97 2382.46,-311.97 2378.5,-308.01 2378.5,-304.06 2378.5,-304.06 2378.5,-296.14 2378.5,-296.14 2378.5,-292.18 2382.46,-288.22 2386.42,-288.22 2386.42,-288.22 2671.58,-288.22 2671.58,-288.22 2675.54,-288.22 2679.5,-292.18 2679.5,-296.14 2679.5,-296.14 2679.5,-304.06 2679.5,-304.06 2679.5,-308.01 2675.54,-311.97 2671.58,-311.97"/>
<text text-anchor="middle" x="2529" y="-294.67" font-family="Arial" font-size="14.00" fill="#ff6c60">src/shared/models/keml/conversation&#45;partner.ts</text>
</g>
<!-- src/editor/details/service/details.service.ts&#45;&gt;src/shared/models/keml/conversation&#45;partner.ts -->
<g id="edge9" class="edge">
<title>src/editor/details/service/details.service.ts&#45;&gt;src/shared/models/keml/conversation&#45;partner.ts</title>
<path fill="none" stroke="#757575" d="M1960.17,-299.29C2075.48,-299.45 2243.47,-299.69 2366.82,-299.87"/>
<polygon fill="#757575" stroke="#757575" points="2366.72,-303.37 2376.72,-299.88 2366.73,-296.37 2366.72,-303.37"/>
</g>
<!-- src/editor/helper/msg&#45;choice/msg&#45;choice.component.ts&#45;&gt;src/shared/models/keml/msg&#45;info.ts -->
<g id="edge14" class="edge">
<title>src/editor/helper/msg&#45;choice/msg&#45;choice.component.ts&#45;&gt;src/shared/models/keml/msg&#45;info.ts</title>
<path fill="none" stroke="#757575" d="M570.38,-172.86C607.99,-153.33 685.45,-115.07 755,-93.1 921.42,-40.53 965.73,-17.1 1140.25,-17.1 1140.25,-17.1 1140.25,-17.1 3146.62,-17.1 3333.76,-17.1 3397.82,35.42 3566.75,-45.1 3631.67,-76.04 3682.09,-148.56 3704.43,-185.15"/>
<polygon fill="#757575" stroke="#757575" points="3701.31,-186.76 3709.43,-193.56 3707.33,-183.18 3701.31,-186.76"/>
</g>
<!-- src/editor/helper/msg&#45;choice/msg&#45;choice.component.ts&#45;&gt;src/shared/models/keml/conversation&#45;partner.ts -->
<g id="edge13" class="edge">
<title>src/editor/helper/msg&#45;choice/msg&#45;choice.component.ts&#45;&gt;src/shared/models/keml/conversation&#45;partner.ts</title>
<path fill="none" stroke="#757575" d="M669.01,-197.46C788.75,-208.55 976.9,-223.1 1140.25,-223.1 1140.25,-223.1 1140.25,-223.1 1828.62,-223.1 2055.1,-223.1 2320.37,-263.49 2449.45,-285.76"/>
<polygon fill="#757575" stroke="#757575" points="2448.81,-289.2 2459.27,-287.47 2450.01,-282.31 2448.81,-289.2"/>
</g>
<!-- src/editor/msg/msg.component.ts -->
<g id="node7" class="node">
<title>src/editor/msg/msg.component.ts</title>
<path fill="none" stroke="#ff6c60" d="M964.08,-125.97C964.08,-125.97 762.92,-125.97 762.92,-125.97 758.96,-125.97 755,-122.01 755,-118.06 755,-118.06 755,-110.14 755,-110.14 755,-106.18 758.96,-102.22 762.92,-102.22 762.92,-102.22 964.08,-102.22 964.08,-102.22 968.04,-102.22 972,-106.18 972,-110.14 972,-110.14 972,-118.06 972,-118.06 972,-122.01 968.04,-125.97 964.08,-125.97"/>
<text text-anchor="middle" x="863.5" y="-108.67" font-family="Arial" font-size="14.00" fill="#ff6c60">src/editor/msg/msg.component.ts</text>
</g>
<!-- src/editor/helper/msg&#45;choice/msg&#45;choice.component.ts&#45;&gt;src/editor/msg/msg.component.ts -->
<g id="edge11" class="edge">
<title>src/editor/helper/msg&#45;choice/msg&#45;choice.component.ts&#45;&gt;src/editor/msg/msg.component.ts</title>
<path fill="none" stroke="#757575" d="M602.27,-172.73C656.32,-160.55 738.94,-141.94 796.54,-128.96"/>
<polygon fill="#757575" stroke="#757575" points="797.25,-132.39 806.23,-126.77 795.71,-125.56 797.25,-132.39"/>
</g>
<!-- src/shared/models/keml/author.ts -->
<g id="node8" class="node">
<title>src/shared/models/keml/author.ts</title>
<path fill="none" stroke="#ff6c60" d="M3558.83,-267.97C3558.83,-267.97 3359.17,-267.97 3359.17,-267.97 3355.21,-267.97 3351.25,-264.01 3351.25,-260.06 3351.25,-260.06 3351.25,-252.14 3351.25,-252.14 3351.25,-248.18 3355.21,-244.22 3359.17,-244.22 3359.17,-244.22 3558.83,-244.22 3558.83,-244.22 3562.79,-244.22 3566.75,-248.18 3566.75,-252.14 3566.75,-252.14 3566.75,-260.06 3566.75,-260.06 3566.75,-264.01 3562.79,-267.97 3558.83,-267.97"/>
<text text-anchor="middle" x="3459" y="-250.67" font-family="Arial" font-size="14.00" fill="#ff6c60">src/shared/models/keml/author.ts</text>
</g>
<!-- src/editor/helper/msg&#45;choice/msg&#45;choice.component.ts&#45;&gt;src/shared/models/keml/author.ts -->
<g id="edge12" class="edge">
<title>src/editor/helper/msg&#45;choice/msg&#45;choice.component.ts&#45;&gt;src/shared/models/keml/author.ts</title>
<path fill="none" stroke="#757575" d="M719.25,-185.1C837.61,-185.1 998.46,-185.1 1140.25,-185.1 1140.25,-185.1 1140.25,-185.1 1828.62,-185.1 2394.92,-185.1 3070.88,-228.43 3339.51,-247.39"/>
<polygon fill="#757575" stroke="#757575" points="3339.1,-250.87 3349.32,-248.09 3339.59,-243.89 3339.1,-250.87"/>
</g>
<!-- src/shared/models/keml/msg&#45;info.ts&#45;&gt;src/shared/models/keml/conversation&#45;partner.ts -->
<g id="edge24" class="edge">
<title>src/shared/models/keml/msg&#45;info.ts&#45;&gt;src/shared/models/keml/conversation&#45;partner.ts</title>
<path fill="none" stroke="#757575" d="M3703.73,-219.3C3678.93,-241.34 3622.95,-287.47 3566.75,-309.1 3217.32,-443.56 2751.27,-353.57 2588.81,-315.1"/>
<polygon fill="#757575" stroke="#757575" points="2589.65,-311.71 2579.11,-312.78 2588.02,-318.52 2589.65,-311.71"/>
</g>
<!-- src/shared/models/parser/parser.ts -->
<g id="node11" class="node">
<title>src/shared/models/parser/parser.ts</title>
<path fill="none" stroke="#ff6c60" d="M2932.08,-294.97C2932.08,-294.97 2723.42,-294.97 2723.42,-294.97 2719.46,-294.97 2715.5,-291.01 2715.5,-287.06 2715.5,-287.06 2715.5,-279.14 2715.5,-279.14 2715.5,-275.18 2719.46,-271.22 2723.42,-271.22 2723.42,-271.22 2932.08,-271.22 2932.08,-271.22 2936.04,-271.22 2940,-275.18 2940,-279.14 2940,-279.14 2940,-287.06 2940,-287.06 2940,-291.01 2936.04,-294.97 2932.08,-294.97"/>
<text text-anchor="middle" x="2827.75" y="-277.67" font-family="Arial" font-size="14.00" fill="#ff6c60">src/shared/models/parser/parser.ts</text>
</g>
<!-- src/shared/models/keml/msg&#45;info.ts&#45;&gt;src/shared/models/parser/parser.ts -->
<g id="edge25" class="edge">
<title>src/shared/models/keml/msg&#45;info.ts&#45;&gt;src/shared/models/parser/parser.ts</title>
<path fill="none" stroke="#757575" d="M3602.42,-211.45C3456.54,-217.79 3196.88,-231.81 2976,-258.1 2952.54,-260.89 2927.14,-264.86 2904.14,-268.82"/>
<polygon fill="#757575" stroke="#757575" points="2903.8,-265.32 2894.55,-270.49 2905,-272.22 2903.8,-265.32"/>
</g>
<!-- src/editor/details/msg&#45;details/msg&#45;details.component.ts&#45;&gt;src/editor/details/service/details.service.ts -->
<g id="edge4" class="edge">
<title>src/editor/details/msg&#45;details/msg&#45;details.component.ts&#45;&gt;src/editor/details/service/details.service.ts</title>
<path fill="none" stroke="#757575" d="M2006.04,-326.74C1968.66,-322.4 1930.78,-317.56 1899.68,-313.08"/>
<polygon fill="#757575" stroke="#757575" points="1900.44,-309.65 1890.04,-311.67 1899.42,-316.58 1900.44,-309.65"/>
</g>
<!-- src/editor/details/msg&#45;details/msg&#45;details.component.ts&#45;&gt;src/shared/models/keml/msg&#45;info.ts -->
<g id="edge6" class="edge">
<title>src/editor/details/msg&#45;details/msg&#45;details.component.ts&#45;&gt;src/shared/models/keml/msg&#45;info.ts</title>
<path fill="none" stroke="#757575" d="M2249.49,-351.46C2372.71,-369.54 2617.64,-401.1 2826.75,-401.1 2826.75,-401.1 2826.75,-401.1 3146.62,-401.1 3334.72,-401.1 3397.66,-432.48 3566.75,-350.1 3626.01,-321.22 3677.35,-260.52 3701.79,-228.28"/>
<polygon fill="#757575" stroke="#757575" points="3704.44,-230.58 3707.59,-220.46 3698.82,-226.41 3704.44,-230.58"/>
</g>
<!-- src/editor/details/msg&#45;details/msg&#45;details.component.ts&#45;&gt;src/shared/models/keml/conversation&#45;partner.ts -->
<g id="edge5" class="edge">
<title>src/editor/details/msg&#45;details/msg&#45;details.component.ts&#45;&gt;src/shared/models/keml/conversation&#45;partner.ts</title>
<path fill="none" stroke="#757575" d="M2283.36,-326.76C2321.47,-322.6 2364.21,-317.95 2403.16,-313.7"/>
<polygon fill="#757575" stroke="#757575" points="2403.52,-317.18 2413.08,-312.62 2402.76,-310.23 2403.52,-317.18"/>
</g>
<!-- src/shared/models/keml/conversation&#45;partner.ts&#45;&gt;src/shared/models/parser/parser.ts -->
<g id="edge23" class="edge">
<title>src/shared/models/keml/conversation&#45;partner.ts&#45;&gt;src/shared/models/parser/parser.ts</title>
<path fill="none" stroke="#757575" d="M2679.68,-291.52C2687.81,-291.06 2695.93,-290.59 2703.94,-290.13"/>
<polygon fill="#757575" stroke="#757575" points="2703.91,-293.64 2713.69,-289.57 2703.51,-286.65 2703.91,-293.64"/>
</g>
<!-- src/editor/msg/msg.component.ts&#45;&gt;src/shared/models/keml/msg&#45;info.ts -->
<g id="edge18" class="edge">
<title>src/editor/msg/msg.component.ts&#45;&gt;src/shared/models/keml/msg&#45;info.ts</title>
<path fill="none" stroke="#757575" d="M943.48,-101.73C1061,-84.43 1288.99,-55.1 1484,-55.1 1484,-55.1 1484,-55.1 3146.62,-55.1 3334.11,-55.1 3391.93,-25.36 3566.75,-93.1 3620.75,-114.02 3671.85,-160.44 3698.28,-187.15"/>
<polygon fill="#757575" stroke="#757575" points="3695.44,-189.24 3704.92,-193.98 3700.46,-184.37 3695.44,-189.24"/>
</g>
<!-- src/editor/new&#45;info/new&#45;info.component.ts -->
<g id="node10" class="node">
<title>src/editor/new&#45;info/new&#45;info.component.ts</title>
<path fill="none" stroke="#ff6c60" d="M1266.58,-125.97C1266.58,-125.97 1015.92,-125.97 1015.92,-125.97 1011.96,-125.97 1008,-122.01 1008,-118.06 1008,-118.06 1008,-110.14 1008,-110.14 1008,-106.18 1011.96,-102.22 1015.92,-102.22 1015.92,-102.22 1266.58,-102.22 1266.58,-102.22 1270.54,-102.22 1274.5,-106.18 1274.5,-110.14 1274.5,-110.14 1274.5,-118.06 1274.5,-118.06 1274.5,-122.01 1270.54,-125.97 1266.58,-125.97"/>
<text text-anchor="middle" x="1141.25" y="-108.67" font-family="Arial" font-size="14.00" fill="#ff6c60">src/editor/new&#45;info/new&#45;info.component.ts</text>
</g>
<!-- src/editor/msg/msg.component.ts&#45;&gt;src/editor/new&#45;info/new&#45;info.component.ts -->
<g id="edge17" class="edge">
<title>src/editor/msg/msg.component.ts&#45;&gt;src/editor/new&#45;info/new&#45;info.component.ts</title>
<path fill="none" stroke="#757575" d="M972.3,-114.1C980.2,-114.1 988.25,-114.1 996.32,-114.1"/>
<polygon fill="#757575" stroke="#757575" points="996.22,-117.6 1006.22,-114.1 996.22,-110.6 996.22,-117.6"/>
</g>
<!-- src/shared/models/keml/author.ts&#45;&gt;src/shared/models/keml/msg&#45;info.ts -->
<g id="edge21" class="edge">
<title>src/shared/models/keml/author.ts&#45;&gt;src/shared/models/keml/msg&#45;info.ts</title>
<path fill="none" stroke="#757575" d="M3524.85,-243.73C3560.16,-237 3604.04,-228.63 3640.95,-221.6"/>
<polygon fill="#757575" stroke="#757575" points="3641.51,-225.05 3650.68,-219.74 3640.2,-218.18 3641.51,-225.05"/>
</g>
<!-- src/shared/models/keml/author.ts&#45;&gt;src/shared/models/parser/parser.ts -->
<g id="edge22" class="edge">
<title>src/shared/models/keml/author.ts&#45;&gt;src/shared/models/parser/parser.ts</title>
<path fill="none" stroke="#757575" d="M3350.81,-260.7C3240.13,-265.45 3067.67,-272.85 2951.57,-277.83"/>
<polygon fill="#757575" stroke="#757575" points="2951.51,-274.33 2941.67,-278.25 2951.81,-281.32 2951.51,-274.33"/>
</g>
<!-- src/editor/information&#45;link/information&#45;link.component.ts -->
<g id="node9" class="node">
<title>src/editor/information&#45;link/information&#45;link.component.ts</title>
<path fill="none" stroke="#ff6c60" d="M1651.58,-144.97C1651.58,-144.97 1318.42,-144.97 1318.42,-144.97 1314.46,-144.97 1310.5,-141.01 1310.5,-137.06 1310.5,-137.06 1310.5,-129.14 1310.5,-129.14 1310.5,-125.18 1314.46,-121.22 1318.42,-121.22 1318.42,-121.22 1651.58,-121.22 1651.58,-121.22 1655.54,-121.22 1659.5,-125.18 1659.5,-129.14 1659.5,-129.14 1659.5,-137.06 1659.5,-137.06 1659.5,-141.01 1655.54,-144.97 1651.58,-144.97"/>
<text text-anchor="middle" x="1485" y="-127.67" font-family="Arial" font-size="14.00" fill="#ff6c60">src/editor/information&#45;link/information&#45;link.component.ts</text>
</g>
<!-- src/editor/information&#45;link/information&#45;link.component.ts&#45;&gt;src/editor/details/service/details.service.ts -->
<g id="edge15" class="edge">
<title>src/editor/information&#45;link/information&#45;link.component.ts&#45;&gt;src/editor/details/service/details.service.ts</title>
<path fill="none" stroke="#757575" d="M1511.32,-145.44C1571.33,-174.68 1722.29,-248.25 1791.26,-281.86"/>
<polygon fill="#757575" stroke="#757575" points="1789.71,-285 1800.24,-286.24 1792.78,-278.71 1789.71,-285"/>
</g>
<!-- src/editor/information&#45;link/information&#45;link.component.ts&#45;&gt;src/shared/models/keml/msg&#45;info.ts -->
<g id="edge16" class="edge">
<title>src/editor/information&#45;link/information&#45;link.component.ts&#45;&gt;src/shared/models/keml/msg&#45;info.ts</title>
<path fill="none" stroke="#757575" d="M1659.83,-132.31C1797.67,-131.75 1995.22,-131.1 2168.12,-131.1 2168.12,-131.1 2168.12,-131.1 3146.62,-131.1 3330.48,-131.1 3544.78,-170.38 3650.72,-192.46"/>
<polygon fill="#757575" stroke="#757575" points="3649.88,-195.86 3660.38,-194.49 3651.32,-189.01 3649.88,-195.86"/>
</g>
<!-- src/editor/new&#45;info/new&#45;info.component.ts&#45;&gt;src/shared/models/keml/msg&#45;info.ts -->
<g id="edge20" class="edge">
<title>src/editor/new&#45;info/new&#45;info.component.ts&#45;&gt;src/shared/models/keml/msg&#45;info.ts</title>
<path fill="none" stroke="#757575" d="M1274.69,-107.63C1412.52,-101.45 1634.65,-93.1 1826.62,-93.1 1826.62,-93.1 1826.62,-93.1 3146.62,-93.1 3334.46,-93.1 3385.57,-89.53 3566.75,-139.1 3609.98,-150.92 3656.53,-173.71 3686.16,-189.64"/>
<polygon fill="#757575" stroke="#757575" points="3684.12,-192.51 3694.58,-194.23 3687.48,-186.37 3684.12,-192.51"/>
</g>
<!-- src/editor/new&#45;info/new&#45;info.component.ts&#45;&gt;src/editor/information&#45;link/information&#45;link.component.ts -->
<g id="edge19" class="edge">
<title>src/editor/new&#45;info/new&#45;info.component.ts&#45;&gt;src/editor/information&#45;link/information&#45;link.component.ts</title>
<path fill="none" stroke="#757575" d="M1274.87,-121.47C1282.78,-121.91 1290.8,-122.36 1298.86,-122.8"/>
<polygon fill="#757575" stroke="#757575" points="1298.59,-126.29 1308.77,-123.36 1298.98,-119.31 1298.59,-126.29"/>
</g>
<!-- src/shared/models/keml/parser/constructor&#45;pointers.ts -->
<g id="node12" class="node">
<title>src/shared/models/keml/parser/constructor&#45;pointers.ts</title>
<path fill="none" stroke="#ff6c60" d="M3307.33,-334.97C3307.33,-334.97 2983.92,-334.97 2983.92,-334.97 2979.96,-334.97 2976,-331.01 2976,-327.06 2976,-327.06 2976,-319.14 2976,-319.14 2976,-315.18 2979.96,-311.22 2983.92,-311.22 2983.92,-311.22 3307.33,-311.22 3307.33,-311.22 3311.29,-311.22 3315.25,-315.18 3315.25,-319.14 3315.25,-319.14 3315.25,-327.06 3315.25,-327.06 3315.25,-331.01 3311.29,-334.97 3307.33,-334.97"/>
<text text-anchor="middle" x="3145.62" y="-317.67" font-family="Arial" font-size="14.00" fill="#ff6c60">src/shared/models/keml/parser/constructor&#45;pointers.ts</text>
</g>
<!-- src/shared/models/parser/parser.ts&#45;&gt;src/shared/models/keml/parser/constructor&#45;pointers.ts -->
<g id="edge30" class="edge">
<title>src/shared/models/parser/parser.ts&#45;&gt;src/shared/models/keml/parser/constructor&#45;pointers.ts</title>
<path fill="none" stroke="#757575" d="M2940.12,-290.72C2986.13,-296 3037.93,-302.84 3077.88,-309.02"/>
<polygon fill="#757575" stroke="#757575" points="3077.17,-312.45 3087.59,-310.54 3078.26,-305.53 3077.17,-312.45"/>
</g>
<!-- src/shared/models/keml/parser/constructor&#45;pointers.ts&#45;&gt;src/shared/models/keml/msg&#45;info.ts -->
<g id="edge28" class="edge">
<title>src/shared/models/keml/parser/constructor&#45;pointers.ts&#45;&gt;src/shared/models/keml/msg&#45;info.ts</title>
<path fill="none" stroke="#757575" d="M3315.64,-317.2C3393.26,-311.3 3485.84,-299.71 3566.75,-277.1 3610.38,-264.9 3657.18,-241.23 3686.74,-224.81"/>
<polygon fill="#757575" stroke="#757575" points="3688.13,-228.04 3695.12,-220.08 3684.69,-221.95 3688.13,-228.04"/>
</g>
<!-- src/shared/models/keml/parser/constructor&#45;pointers.ts&#45;&gt;src/shared/models/keml/conversation&#45;partner.ts -->
<g id="edge27" class="edge">
<title>src/shared/models/keml/parser/constructor&#45;pointers.ts&#45;&gt;src/shared/models/keml/conversation&#45;partner.ts</title>
<path fill="none" stroke="#757575" d="M2975.58,-316.77C2886.91,-313.45 2778.85,-309.41 2691.35,-306.13"/>
<polygon fill="#757575" stroke="#757575" points="2691.6,-302.64 2681.47,-305.77 2691.34,-309.64 2691.6,-302.64"/>
</g>
<!-- src/shared/models/keml/parser/constructor&#45;pointers.ts&#45;&gt;src/shared/models/keml/author.ts -->
<g id="edge26" class="edge">
<title>src/shared/models/keml/parser/constructor&#45;pointers.ts&#45;&gt;src/shared/models/keml/author.ts</title>
<path fill="none" stroke="#757575" d="M3240.67,-310.75C3265.07,-306.96 3291.24,-302.37 3315.25,-297.1 3346.9,-290.14 3381.88,-280.13 3409.29,-271.75"/>
<polygon fill="#757575" stroke="#757575" points="3410.2,-275.13 3418.72,-268.83 3408.13,-268.44 3410.2,-275.13"/>
</g>
<!-- src/shared/models/keml/parser/constructor&#45;pointers.ts&#45;&gt;src/shared/models/parser/parser.ts -->
<g id="edge29" class="edge">
<title>src/shared/models/keml/parser/constructor&#45;pointers.ts&#45;&gt;src/shared/models/parser/parser.ts</title>
<path fill="none" stroke="#757575" d="M2993.82,-310.74C2959.34,-306.44 2924.42,-301.64 2895.62,-297.2"/>
<polygon fill="#757575" stroke="#757575" points="2896.41,-293.78 2885.99,-295.68 2895.32,-300.69 2896.41,-293.78"/>
</g>
</g>
</svg>
