<?xml version="1.0" encoding="UTF-8" standalone="no"?>
<!DOCTYPE svg PUBLIC "-//W3C//DTD SVG 1.1//EN"
 "http://www.w3.org/Graphics/SVG/1.1/DTD/svg11.dtd">
<!-- Generated by graphviz version 11.0.0 (20240428.1522)
 -->
<!-- Title: G Pages: 1 -->
<svg width="3854pt" height="494pt"
 viewBox="0.00 0.00 3853.95 494.38" xmlns="http://www.w3.org/2000/svg" xmlns:xlink="http://www.w3.org/1999/xlink">
<g id="graph0" class="graph" transform="scale(1 1) rotate(0) translate(21.6 472.78)">
<title>G</title>
<polygon fill="#111111" stroke="none" points="-21.6,21.6 -21.6,-472.78 3832.35,-472.78 3832.35,21.6 -21.6,21.6"/>
<!-- src/editor/details/cp&#45;details/cp&#45;details.component.ts -->
<g id="node1" class="node">
<title>src/editor/details/cp&#45;details/cp&#45;details.component.ts</title>
<path fill="none" stroke="#ff6c60" d="M314.83,-287.05C314.83,-287.05 7.92,-287.05 7.92,-287.05 3.96,-287.05 0,-283.1 0,-279.14 0,-279.14 0,-271.22 0,-271.22 0,-267.26 3.96,-263.3 7.92,-263.3 7.92,-263.3 314.83,-263.3 314.83,-263.3 318.79,-263.3 322.75,-267.26 322.75,-271.22 322.75,-271.22 322.75,-279.14 322.75,-279.14 322.75,-283.1 318.79,-287.05 314.83,-287.05"/>
<text text-anchor="middle" x="161.38" y="-269.75" font-family="Arial" font-size="14.00" fill="#ff6c60">src/editor/details/cp&#45;details/cp&#45;details.component.ts</text>
</g>
<!-- src/editor/details/service/details.service.ts -->
<g id="node2" class="node">
<title>src/editor/details/service/details.service.ts</title>
<path fill="none" stroke="#ff6c60" d="M615.08,-287.05C615.08,-287.05 366.67,-287.05 366.67,-287.05 362.71,-287.05 358.75,-283.1 358.75,-279.14 358.75,-279.14 358.75,-271.22 358.75,-271.22 358.75,-267.26 362.71,-263.3 366.67,-263.3 366.67,-263.3 615.08,-263.3 615.08,-263.3 619.04,-263.3 623,-267.26 623,-271.22 623,-271.22 623,-279.14 623,-279.14 623,-283.1 619.04,-287.05 615.08,-287.05"/>
<text text-anchor="middle" x="490.88" y="-269.75" font-family="Arial" font-size="14.00" fill="#ff6c60">src/editor/details/service/details.service.ts</text>
</g>
<!-- src/editor/details/cp&#45;details/cp&#45;details.component.ts&#45;&gt;src/editor/details/service/details.service.ts -->
<g id="edge1" class="edge">
<title>src/editor/details/cp&#45;details/cp&#45;details.component.ts&#45;&gt;src/editor/details/service/details.service.ts</title>
<path fill="none" stroke="#757575" d="M323.25,-268.43C331.18,-268.43 339.12,-268.44 347,-268.48"/>
<polygon fill="#757575" stroke="#757575" points="346.95,-271.98 356.97,-268.54 347,-264.98 346.95,-271.98"/>
</g>
<!-- src/shared/models/keml/conversation&#45;partner.ts -->
<g id="node3" class="node">
<title>src/shared/models/keml/conversation&#45;partner.ts</title>
<path fill="none" stroke="#ff6c60" d="M2915.58,-331.05C2915.58,-331.05 2630.42,-331.05 2630.42,-331.05 2626.46,-331.05 2622.5,-327.1 2622.5,-323.14 2622.5,-323.14 2622.5,-315.22 2622.5,-315.22 2622.5,-311.26 2626.46,-307.3 2630.42,-307.3 2630.42,-307.3 2915.58,-307.3 2915.58,-307.3 2919.54,-307.3 2923.5,-311.26 2923.5,-315.22 2923.5,-315.22 2923.5,-323.14 2923.5,-323.14 2923.5,-327.1 2919.54,-331.05 2915.58,-331.05"/>
<text text-anchor="middle" x="2773" y="-313.75" font-family="Arial" font-size="14.00" fill="#ff6c60">src/shared/models/keml/conversation&#45;partner.ts</text>
</g>
<!-- src/editor/details/cp&#45;details/cp&#45;details.component.ts&#45;&gt;src/shared/models/keml/conversation&#45;partner.ts -->
<g id="edge2" class="edge">
<title>src/editor/details/cp&#45;details/cp&#45;details.component.ts&#45;&gt;src/shared/models/keml/conversation&#45;partner.ts</title>
<path fill="none" stroke="#757575" d="M188.61,-287.42C276.67,-327.33 570.59,-451.18 826.88,-451.18 826.88,-451.18 826.88,-451.18 2146.5,-451.18 2343.63,-451.18 2395.88,-445.42 2586.5,-395.18 2641.17,-380.77 2701.16,-354.04 2737.7,-336.43"/>
<polygon fill="#757575" stroke="#757575" points="2738.99,-339.7 2746.45,-332.17 2735.92,-333.4 2738.99,-339.7"/>
</g>
<!-- src/editor/details/service/details.service.ts&#45;&gt;src/editor/details/cp&#45;details/cp&#45;details.component.ts -->
<g id="edge9" class="edge">
<title>src/editor/details/service/details.service.ts&#45;&gt;src/editor/details/cp&#45;details/cp&#45;details.component.ts</title>
<path fill="none" stroke="#757575" d="M358.49,-281.81C350.6,-281.87 342.61,-281.91 334.59,-281.92"/>
<polygon fill="#757575" stroke="#757575" points="334.76,-278.42 324.76,-281.93 334.76,-285.42 334.76,-278.42"/>
</g>
<!-- src/editor/details/service/details.service.ts&#45;&gt;src/shared/models/keml/conversation&#45;partner.ts -->
<g id="edge12" class="edge">
<title>src/editor/details/service/details.service.ts&#45;&gt;src/shared/models/keml/conversation&#45;partner.ts</title>
<path fill="none" stroke="#757575" d="M528.89,-287.55C633.68,-321.42 941.84,-413.18 1205.12,-413.18 1205.12,-413.18 1205.12,-413.18 2146.5,-413.18 2356.71,-413.18 2602.29,-360.62 2712.81,-334.11"/>
<polygon fill="#757575" stroke="#757575" points="2713.34,-337.58 2722.24,-331.82 2711.7,-330.77 2713.34,-337.58"/>
</g>
<!-- src/editor/details/info&#45;details/info&#45;details.component.ts -->
<g id="node4" class="node">
<title>src/editor/details/info&#45;details/info&#45;details.component.ts</title>
<path fill="none" stroke="#ff6c60" d="M988.83,-262.05C988.83,-262.05 666.92,-262.05 666.92,-262.05 662.96,-262.05 659,-258.1 659,-254.14 659,-254.14 659,-246.22 659,-246.22 659,-242.26 662.96,-238.3 666.92,-238.3 666.92,-238.3 988.83,-238.3 988.83,-238.3 992.79,-238.3 996.75,-242.26 996.75,-246.22 996.75,-246.22 996.75,-254.14 996.75,-254.14 996.75,-258.1 992.79,-262.05 988.83,-262.05"/>
<text text-anchor="middle" x="827.88" y="-244.75" font-family="Arial" font-size="14.00" fill="#ff6c60">src/editor/details/info&#45;details/info&#45;details.component.ts</text>
</g>
<!-- src/editor/details/service/details.service.ts&#45;&gt;src/editor/details/info&#45;details/info&#45;details.component.ts -->
<g id="edge10" class="edge">
<title>src/editor/details/service/details.service.ts&#45;&gt;src/editor/details/info&#45;details/info&#45;details.component.ts</title>
<path fill="none" stroke="#757575" d="M577.28,-262.84C598.96,-260.77 623.09,-258.71 647.55,-256.83"/>
<polygon fill="#757575" stroke="#757575" points="647.59,-260.33 657.3,-256.09 647.06,-253.35 647.59,-260.33"/>
</g>
<!-- src/shared/models/keml/msg&#45;info.ts -->
<g id="node6" class="node">
<title>src/shared/models/keml/msg&#45;info.ts</title>
<path fill="none" stroke="#ff6c60" d="M2578.58,-213.05C2578.58,-213.05 2363.92,-213.05 2363.92,-213.05 2359.96,-213.05 2356,-209.1 2356,-205.14 2356,-205.14 2356,-197.22 2356,-197.22 2356,-193.26 2359.96,-189.3 2363.92,-189.3 2363.92,-189.3 2578.58,-189.3 2578.58,-189.3 2582.54,-189.3 2586.5,-193.26 2586.5,-197.22 2586.5,-197.22 2586.5,-205.14 2586.5,-205.14 2586.5,-209.1 2582.54,-213.05 2578.58,-213.05"/>
<text text-anchor="middle" x="2471.25" y="-195.75" font-family="Arial" font-size="14.00" fill="#ff6c60">src/shared/models/keml/msg&#45;info.ts</text>
</g>
<!-- src/editor/details/service/details.service.ts&#45;&gt;src/shared/models/keml/msg&#45;info.ts -->
<g id="edge13" class="edge">
<title>src/editor/details/service/details.service.ts&#45;&gt;src/shared/models/keml/msg&#45;info.ts</title>
<path fill="none" stroke="#757575" d="M498.55,-262.87C517.98,-228.39 578.31,-130.68 659,-89.18 876.19,22.52 960.89,-28.18 1205.12,-28.18 1205.12,-28.18 1205.12,-28.18 1802.75,-28.18 2032.79,-28.18 2109.69,46.04 2320,-47.18 2383.72,-75.42 2434.37,-144.3 2457.15,-179.58"/>
<polygon fill="#757575" stroke="#757575" points="2453.97,-181.1 2462.26,-187.69 2459.9,-177.37 2453.97,-181.1"/>
</g>
<!-- src/editor/details/msg&#45;details/msg&#45;details.component.ts -->
<g id="node7" class="node">
<title>src/editor/details/msg&#45;details/msg&#45;details.component.ts</title>
<path fill="none" stroke="#ff6c60" d="M1371.58,-311.05C1371.58,-311.05 1040.67,-311.05 1040.67,-311.05 1036.71,-311.05 1032.75,-307.1 1032.75,-303.14 1032.75,-303.14 1032.75,-295.22 1032.75,-295.22 1032.75,-291.26 1036.71,-287.3 1040.67,-287.3 1040.67,-287.3 1371.58,-287.3 1371.58,-287.3 1375.54,-287.3 1379.5,-291.26 1379.5,-295.22 1379.5,-295.22 1379.5,-303.14 1379.5,-303.14 1379.5,-307.1 1375.54,-311.05 1371.58,-311.05"/>
<text text-anchor="middle" x="1206.12" y="-293.75" font-family="Arial" font-size="14.00" fill="#ff6c60">src/editor/details/msg&#45;details/msg&#45;details.component.ts</text>
</g>
<!-- src/editor/details/service/details.service.ts&#45;&gt;src/editor/details/msg&#45;details/msg&#45;details.component.ts -->
<g id="edge11" class="edge">
<title>src/editor/details/service/details.service.ts&#45;&gt;src/editor/details/msg&#45;details/msg&#45;details.component.ts</title>
<path fill="none" stroke="#757575" d="M623.11,-274.23C734.81,-276.38 896.5,-281.62 1021.12,-287"/>
<polygon fill="#757575" stroke="#757575" points="1020.64,-290.48 1030.79,-287.42 1020.95,-283.49 1020.64,-290.48"/>
</g>
<!-- src/shared/models/parser/parser.ts -->
<g id="node12" class="node">
<title>src/shared/models/parser/parser.ts</title>
<path fill="none" stroke="#ff6c60" d="M3176.08,-291.05C3176.08,-291.05 2967.42,-291.05 2967.42,-291.05 2963.46,-291.05 2959.5,-287.1 2959.5,-283.14 2959.5,-283.14 2959.5,-275.22 2959.5,-275.22 2959.5,-271.26 2963.46,-267.3 2967.42,-267.3 2967.42,-267.3 3176.08,-267.3 3176.08,-267.3 3180.04,-267.3 3184,-271.26 3184,-275.22 3184,-275.22 3184,-283.14 3184,-283.14 3184,-287.1 3180.04,-291.05 3176.08,-291.05"/>
<text text-anchor="middle" x="3071.75" y="-273.75" font-family="Arial" font-size="14.00" fill="#ff6c60">src/shared/models/parser/parser.ts</text>
</g>
<!-- src/shared/models/keml/conversation&#45;partner.ts&#45;&gt;src/shared/models/parser/parser.ts -->
<g id="edge26" class="edge">
<title>src/shared/models/keml/conversation&#45;partner.ts&#45;&gt;src/shared/models/parser/parser.ts</title>
<path fill="none" stroke="#757575" d="M2865.46,-306.85C2897.89,-302.48 2934.61,-297.53 2967.93,-293.04"/>
<polygon fill="#757575" stroke="#757575" points="2968.14,-296.54 2977.59,-291.74 2967.21,-289.61 2968.14,-296.54"/>
</g>
<!-- src/editor/details/info&#45;details/info&#45;details.component.ts&#45;&gt;src/editor/details/service/details.service.ts -->
<g id="edge3" class="edge">
<title>src/editor/details/info&#45;details/info&#45;details.component.ts&#45;&gt;src/editor/details/service/details.service.ts</title>
<path fill="none" stroke="#757575" d="M741.63,-262.51C709.08,-265.61 671.02,-268.69 634.57,-271.21"/>
<polygon fill="#757575" stroke="#757575" points="634.56,-267.71 624.82,-271.88 635.04,-274.69 634.56,-267.71"/>
</g>
<!-- src/editor/helper/msg&#45;choice/msg&#45;choice.component.ts -->
<g id="node5" class="node">
<title>src/editor/helper/msg&#45;choice/msg&#45;choice.component.ts</title>
<path fill="none" stroke="#ff6c60" d="M1370.83,-262.05C1370.83,-262.05 1041.42,-262.05 1041.42,-262.05 1037.46,-262.05 1033.5,-258.1 1033.5,-254.14 1033.5,-254.14 1033.5,-246.22 1033.5,-246.22 1033.5,-242.26 1037.46,-238.3 1041.42,-238.3 1041.42,-238.3 1370.83,-238.3 1370.83,-238.3 1374.79,-238.3 1378.75,-242.26 1378.75,-246.22 1378.75,-246.22 1378.75,-254.14 1378.75,-254.14 1378.75,-258.1 1374.79,-262.05 1370.83,-262.05"/>
<text text-anchor="middle" x="1206.12" y="-244.75" font-family="Arial" font-size="14.00" fill="#ff6c60">src/editor/helper/msg&#45;choice/msg&#45;choice.component.ts</text>
</g>
<!-- src/editor/details/info&#45;details/info&#45;details.component.ts&#45;&gt;src/editor/helper/msg&#45;choice/msg&#45;choice.component.ts -->
<g id="edge4" class="edge">
<title>src/editor/details/info&#45;details/info&#45;details.component.ts&#45;&gt;src/editor/helper/msg&#45;choice/msg&#45;choice.component.ts</title>
<path fill="none" stroke="#757575" d="M997.19,-250.18C1005.3,-250.18 1013.47,-250.18 1021.62,-250.18"/>
<polygon fill="#757575" stroke="#757575" points="1021.61,-253.68 1031.61,-250.18 1021.61,-246.68 1021.61,-253.68"/>
</g>
<!-- src/editor/details/info&#45;details/info&#45;details.component.ts&#45;&gt;src/shared/models/keml/msg&#45;info.ts -->
<g id="edge5" class="edge">
<title>src/editor/details/info&#45;details/info&#45;details.component.ts&#45;&gt;src/shared/models/keml/msg&#45;info.ts</title>
<path fill="none" stroke="#757575" d="M889.89,-237.83C1027.85,-210.6 1374.7,-146.1 1668.5,-124.18 1786.62,-115.37 1816.6,-121.11 1935,-124.18 2106.28,-128.63 2152.32,-108.92 2320,-144.18 2360.73,-152.74 2405.01,-170.68 2434.88,-184.16"/>
<polygon fill="#757575" stroke="#757575" points="2433.27,-187.28 2443.82,-188.27 2436.19,-180.91 2433.27,-187.28"/>
</g>
<!-- src/editor/helper/msg&#45;choice/msg&#45;choice.component.ts&#45;&gt;src/shared/models/keml/conversation&#45;partner.ts -->
<g id="edge16" class="edge">
<title>src/editor/helper/msg&#45;choice/msg&#45;choice.component.ts&#45;&gt;src/shared/models/keml/conversation&#45;partner.ts</title>
<path fill="none" stroke="#757575" d="M1379.07,-257.76C1683.71,-271.19 2314.02,-298.99 2610.8,-312.07"/>
<polygon fill="#757575" stroke="#757575" points="2610.43,-315.56 2620.57,-312.5 2610.74,-308.57 2610.43,-315.56"/>
</g>
<!-- src/editor/helper/msg&#45;choice/msg&#45;choice.component.ts&#45;&gt;src/shared/models/keml/msg&#45;info.ts -->
<g id="edge17" class="edge">
<title>src/editor/helper/msg&#45;choice/msg&#45;choice.component.ts&#45;&gt;src/shared/models/keml/msg&#45;info.ts</title>
<path fill="none" stroke="#757575" d="M1379.22,-244.71C1597.93,-237.57 1987.07,-224.17 2320,-209.18 2327.98,-208.82 2336.2,-208.43 2344.49,-208.03"/>
<polygon fill="#757575" stroke="#757575" points="2344.49,-211.53 2354.31,-207.54 2344.15,-204.54 2344.49,-211.53"/>
</g>
<!-- src/editor/msg/msg.component.ts -->
<g id="node8" class="node">
<title>src/editor/msg/msg.component.ts</title>
<path fill="none" stroke="#ff6c60" d="M1624.58,-195.05C1624.58,-195.05 1423.42,-195.05 1423.42,-195.05 1419.46,-195.05 1415.5,-191.1 1415.5,-187.14 1415.5,-187.14 1415.5,-179.22 1415.5,-179.22 1415.5,-175.26 1419.46,-171.3 1423.42,-171.3 1423.42,-171.3 1624.58,-171.3 1624.58,-171.3 1628.54,-171.3 1632.5,-175.26 1632.5,-179.22 1632.5,-179.22 1632.5,-187.14 1632.5,-187.14 1632.5,-191.1 1628.54,-195.05 1624.58,-195.05"/>
<text text-anchor="middle" x="1524" y="-177.75" font-family="Arial" font-size="14.00" fill="#ff6c60">src/editor/msg/msg.component.ts</text>
</g>
<!-- src/editor/helper/msg&#45;choice/msg&#45;choice.component.ts&#45;&gt;src/editor/msg/msg.component.ts -->
<g id="edge14" class="edge">
<title>src/editor/helper/msg&#45;choice/msg&#45;choice.component.ts&#45;&gt;src/editor/msg/msg.component.ts</title>
<path fill="none" stroke="#757575" d="M1265.43,-237.81C1318.66,-226.52 1397.4,-209.82 1453.8,-197.86"/>
<polygon fill="#757575" stroke="#757575" points="1454.23,-201.34 1463.29,-195.85 1452.78,-194.5 1454.23,-201.34"/>
</g>
<!-- src/shared/models/keml/author.ts -->
<g id="node9" class="node">
<title>src/shared/models/keml/author.ts</title>
<path fill="none" stroke="#ff6c60" d="M3802.83,-311.05C3802.83,-311.05 3603.17,-311.05 3603.17,-311.05 3599.21,-311.05 3595.25,-307.1 3595.25,-303.14 3595.25,-303.14 3595.25,-295.22 3595.25,-295.22 3595.25,-291.26 3599.21,-287.3 3603.17,-287.3 3603.17,-287.3 3802.83,-287.3 3802.83,-287.3 3806.79,-287.3 3810.75,-291.26 3810.75,-295.22 3810.75,-295.22 3810.75,-303.14 3810.75,-303.14 3810.75,-307.1 3806.79,-311.05 3802.83,-311.05"/>
<text text-anchor="middle" x="3703" y="-293.75" font-family="Arial" font-size="14.00" fill="#ff6c60">src/shared/models/keml/author.ts</text>
</g>
<!-- src/editor/helper/msg&#45;choice/msg&#45;choice.component.ts&#45;&gt;src/shared/models/keml/author.ts -->
<g id="edge15" class="edge">
<title>src/editor/helper/msg&#45;choice/msg&#45;choice.component.ts&#45;&gt;src/shared/models/keml/author.ts</title>
<path fill="none" stroke="#757575" d="M1290.18,-262.55C1318.58,-267.07 1350.49,-272.49 1379.5,-278.18 1568.03,-315.16 1608.63,-375.18 1800.75,-375.18 1800.75,-375.18 1800.75,-375.18 3072.75,-375.18 3275.88,-375.18 3513.26,-335.66 3629.87,-313.62"/>
<polygon fill="#757575" stroke="#757575" points="3630.45,-317.07 3639.62,-311.76 3629.14,-310.19 3630.45,-317.07"/>
</g>
<!-- src/shared/models/keml/msg&#45;info.ts&#45;&gt;src/shared/models/keml/conversation&#45;partner.ts -->
<g id="edge27" class="edge">
<title>src/shared/models/keml/msg&#45;info.ts&#45;&gt;src/shared/models/keml/conversation&#45;partner.ts</title>
<path fill="none" stroke="#757575" d="M2487.91,-213.37C2514.17,-233.17 2569.45,-272.11 2622.5,-292.18 2635.35,-297.04 2649.15,-301.04 2663,-304.33"/>
<polygon fill="#757575" stroke="#757575" points="2662.09,-307.71 2672.62,-306.48 2663.62,-300.88 2662.09,-307.71"/>
</g>
<!-- src/shared/models/keml/msg&#45;info.ts&#45;&gt;src/shared/models/parser/parser.ts -->
<g id="edge28" class="edge">
<title>src/shared/models/keml/msg&#45;info.ts&#45;&gt;src/shared/models/parser/parser.ts</title>
<path fill="none" stroke="#757575" d="M2500.4,-213.55C2530.12,-225.98 2578.64,-244.49 2622.5,-253.18 2731.03,-274.68 2857,-280.33 2947.71,-281.1"/>
<polygon fill="#757575" stroke="#757575" points="2947.62,-284.6 2957.64,-281.16 2947.66,-277.6 2947.62,-284.6"/>
</g>
<!-- src/editor/details/msg&#45;details/msg&#45;details.component.ts&#45;&gt;src/editor/details/service/details.service.ts -->
<g id="edge6" class="edge">
<title>src/editor/details/msg&#45;details/msg&#45;details.component.ts&#45;&gt;src/editor/details/service/details.service.ts</title>
<path fill="none" stroke="#757575" d="M1032.3,-299.24C910.36,-296.41 748.97,-290.86 634.4,-285.5"/>
<polygon fill="#757575" stroke="#757575" points="634.78,-282.01 624.62,-285.04 634.45,-289.01 634.78,-282.01"/>
</g>
<!-- src/editor/details/msg&#45;details/msg&#45;details.component.ts&#45;&gt;src/shared/models/keml/conversation&#45;partner.ts -->
<g id="edge7" class="edge">
<title>src/editor/details/msg&#45;details/msg&#45;details.component.ts&#45;&gt;src/shared/models/keml/conversation&#45;partner.ts</title>
<path fill="none" stroke="#757575" d="M1328.91,-311.54C1448.81,-322.64 1637.19,-337.18 1800.75,-337.18 1800.75,-337.18 1800.75,-337.18 2146.5,-337.18 2304.42,-337.18 2484.67,-331.38 2610.98,-326.36"/>
<polygon fill="#757575" stroke="#757575" points="2610.9,-329.87 2620.76,-325.97 2610.62,-322.87 2610.9,-329.87"/>
</g>
<!-- src/editor/details/msg&#45;details/msg&#45;details.component.ts&#45;&gt;src/shared/models/keml/msg&#45;info.ts -->
<g id="edge8" class="edge">
<title>src/editor/details/msg&#45;details/msg&#45;details.component.ts&#45;&gt;src/shared/models/keml/msg&#45;info.ts</title>
<path fill="none" stroke="#757575" d="M1379.87,-295.9C1599.26,-290.06 1989.11,-274.12 2320,-231.18 2348.62,-227.47 2379.97,-221.51 2406.59,-215.88"/>
<polygon fill="#757575" stroke="#757575" points="2407.17,-219.34 2416.21,-213.81 2405.7,-212.49 2407.17,-219.34"/>
</g>
<!-- src/editor/msg/msg.component.ts&#45;&gt;src/shared/models/keml/msg&#45;info.ts -->
<g id="edge21" class="edge">
<title>src/editor/msg/msg.component.ts&#45;&gt;src/shared/models/keml/msg&#45;info.ts</title>
<path fill="none" stroke="#757575" d="M1632.97,-185.24C1809.09,-188.59 2157.28,-195.22 2344.36,-198.78"/>
<polygon fill="#757575" stroke="#757575" points="2344.04,-202.28 2354.1,-198.97 2344.17,-195.28 2344.04,-202.28"/>
</g>
<!-- src/editor/new&#45;info/new&#45;info.component.ts -->
<g id="node11" class="node">
<title>src/editor/new&#45;info/new&#45;info.component.ts</title>
<path fill="none" stroke="#ff6c60" d="M1927.08,-157.05C1927.08,-157.05 1676.42,-157.05 1676.42,-157.05 1672.46,-157.05 1668.5,-153.1 1668.5,-149.14 1668.5,-149.14 1668.5,-141.22 1668.5,-141.22 1668.5,-137.26 1672.46,-133.3 1676.42,-133.3 1676.42,-133.3 1927.08,-133.3 1927.08,-133.3 1931.04,-133.3 1935,-137.26 1935,-141.22 1935,-141.22 1935,-149.14 1935,-149.14 1935,-153.1 1931.04,-157.05 1927.08,-157.05"/>
<text text-anchor="middle" x="1801.75" y="-139.75" font-family="Arial" font-size="14.00" fill="#ff6c60">src/editor/new&#45;info/new&#45;info.component.ts</text>
</g>
<!-- src/editor/msg/msg.component.ts&#45;&gt;src/editor/new&#45;info/new&#45;info.component.ts -->
<g id="edge20" class="edge">
<title>src/editor/msg/msg.component.ts&#45;&gt;src/editor/new&#45;info/new&#45;info.component.ts</title>
<path fill="none" stroke="#757575" d="M1614.53,-170.84C1641.88,-167.07 1672.13,-162.9 1700.17,-159.04"/>
<polygon fill="#757575" stroke="#757575" points="1700.27,-162.56 1709.7,-157.73 1699.32,-155.63 1700.27,-162.56"/>
</g>
<!-- src/shared/models/keml/author.ts&#45;&gt;src/shared/models/keml/msg&#45;info.ts -->
<g id="edge24" class="edge">
<title>src/shared/models/keml/author.ts&#45;&gt;src/shared/models/keml/msg&#45;info.ts</title>
<path fill="none" stroke="#757575" d="M3667,-286.87C3638.39,-277.36 3596.71,-264.75 3559.25,-258.18 3215.35,-197.87 2801.67,-194.92 2598.05,-197.95"/>
<polygon fill="#757575" stroke="#757575" points="2598.18,-194.45 2588.24,-198.11 2598.29,-201.45 2598.18,-194.45"/>
</g>
<!-- src/shared/models/keml/author.ts&#45;&gt;src/shared/models/parser/parser.ts -->
<g id="edge25" class="edge">
<title>src/shared/models/keml/author.ts&#45;&gt;src/shared/models/parser/parser.ts</title>
<path fill="none" stroke="#757575" d="M3595.12,-303.86C3497.34,-307.08 3348.75,-309.31 3220,-300.18 3199.24,-298.71 3176.97,-296.08 3156.18,-293.17"/>
<polygon fill="#757575" stroke="#757575" points="3156.7,-289.71 3146.3,-291.75 3155.7,-296.64 3156.7,-289.71"/>
</g>
<!-- src/editor/information&#45;link/information&#45;link.component.ts -->
<g id="node10" class="node">
<title>src/editor/information&#45;link/information&#45;link.component.ts</title>
<path fill="none" stroke="#ff6c60" d="M2312.08,-80.05C2312.08,-80.05 1978.92,-80.05 1978.92,-80.05 1974.96,-80.05 1971,-76.1 1971,-72.14 1971,-72.14 1971,-64.22 1971,-64.22 1971,-60.26 1974.96,-56.3 1978.92,-56.3 1978.92,-56.3 2312.08,-56.3 2312.08,-56.3 2316.04,-56.3 2320,-60.26 2320,-64.22 2320,-64.22 2320,-72.14 2320,-72.14 2320,-76.1 2316.04,-80.05 2312.08,-80.05"/>
<text text-anchor="middle" x="2145.5" y="-62.75" font-family="Arial" font-size="14.00" fill="#ff6c60">src/editor/information&#45;link/information&#45;link.component.ts</text>
</g>
<!-- src/editor/information&#45;link/information&#45;link.component.ts&#45;&gt;src/editor/details/service/details.service.ts -->
<g id="edge18" class="edge">
<title>src/editor/information&#45;link/information&#45;link.component.ts&#45;&gt;src/editor/details/service/details.service.ts</title>
<path fill="none" stroke="#757575" d="M1970.6,-67.75C1846.43,-67.48 1675.44,-67.18 1525,-67.18 1205.12,-67.18 1205.12,-67.18 1205.12,-67.18 933.51,-67.18 626.14,-207.92 525.62,-257.86"/>
<polygon fill="#757575" stroke="#757575" points="524.19,-254.66 516.82,-262.27 527.33,-260.92 524.19,-254.66"/>
</g>
<!-- src/editor/information&#45;link/information&#45;link.component.ts&#45;&gt;src/shared/models/keml/msg&#45;info.ts -->
<g id="edge19" class="edge">
<title>src/editor/information&#45;link/information&#45;link.component.ts&#45;&gt;src/shared/models/keml/msg&#45;info.ts</title>
<path fill="none" stroke="#757575" d="M2275.3,-80.51C2290.66,-84.01 2305.88,-88.48 2320,-94.18 2371.49,-114.97 2422.16,-156.69 2449.5,-181.44"/>
<polygon fill="#757575" stroke="#757575" points="2447,-183.9 2456.73,-188.11 2451.75,-178.76 2447,-183.9"/>
</g>
<!-- src/editor/new&#45;info/new&#45;info.component.ts&#45;&gt;src/shared/models/keml/msg&#45;info.ts -->
<g id="edge23" class="edge">
<title>src/editor/new&#45;info/new&#45;info.component.ts&#45;&gt;src/shared/models/keml/msg&#45;info.ts</title>
<path fill="none" stroke="#757575" d="M1935.29,-146.49C2040.07,-148.82 2189.84,-155 2320,-171.18 2348.87,-174.77 2380.5,-180.77 2407.26,-186.46"/>
<polygon fill="#757575" stroke="#757575" points="2406.41,-189.86 2416.93,-188.55 2407.89,-183.02 2406.41,-189.86"/>
</g>
<!-- src/editor/new&#45;info/new&#45;info.component.ts&#45;&gt;src/editor/information&#45;link/information&#45;link.component.ts -->
<g id="edge22" class="edge">
<title>src/editor/new&#45;info/new&#45;info.component.ts&#45;&gt;src/editor/information&#45;link/information&#45;link.component.ts</title>
<path fill="none" stroke="#757575" d="M1857.66,-132.81C1917.82,-119.25 2014.3,-97.52 2078.52,-83.05"/>
<polygon fill="#757575" stroke="#757575" points="2079.27,-86.47 2088.25,-80.85 2077.73,-79.64 2079.27,-86.47"/>
</g>
<!-- src/shared/models/keml/parser/constructor&#45;pointers.ts -->
<g id="node13" class="node">
<title>src/shared/models/keml/parser/constructor&#45;pointers.ts</title>
<path fill="none" stroke="#ff6c60" d="M3551.33,-291.05C3551.33,-291.05 3227.92,-291.05 3227.92,-291.05 3223.96,-291.05 3220,-287.1 3220,-283.14 3220,-283.14 3220,-275.22 3220,-275.22 3220,-271.26 3223.96,-267.3 3227.92,-267.3 3227.92,-267.3 3551.33,-267.3 3551.33,-267.3 3555.29,-267.3 3559.25,-271.26 3559.25,-275.22 3559.25,-275.22 3559.25,-283.14 3559.25,-283.14 3559.25,-287.1 3555.29,-291.05 3551.33,-291.05"/>
<text text-anchor="middle" x="3389.62" y="-273.75" font-family="Arial" font-size="14.00" fill="#ff6c60">src/shared/models/keml/parser/constructor&#45;pointers.ts</text>
</g>
<!-- src/shared/models/parser/parser.ts&#45;&gt;src/shared/models/keml/parser/constructor&#45;pointers.ts -->
<g id="edge33" class="edge">
<title>src/shared/models/parser/parser.ts&#45;&gt;src/shared/models/keml/parser/constructor&#45;pointers.ts</title>
<path fill="none" stroke="#757575" d="M3184.12,-272.7C3191.96,-272.6 3199.98,-272.54 3208.08,-272.49"/>
<polygon fill="#757575" stroke="#757575" points="3208.07,-275.99 3218.05,-272.45 3208.04,-268.99 3208.07,-275.99"/>
</g>
<!-- src/shared/models/keml/parser/constructor&#45;pointers.ts&#45;&gt;src/shared/models/keml/conversation&#45;partner.ts -->
<g id="edge30" class="edge">
<title>src/shared/models/keml/parser/constructor&#45;pointers.ts&#45;&gt;src/shared/models/keml/conversation&#45;partner.ts</title>
<path fill="none" stroke="#757575" d="M3279.34,-291.54C3248.54,-294.71 3214.98,-297.87 3184,-300.18 3101.88,-306.29 3010.35,-310.76 2934.64,-313.82"/>
<polygon fill="#757575" stroke="#757575" points="2934.95,-310.3 2925.1,-314.2 2935.23,-317.3 2934.95,-310.3"/>
</g>
<!-- src/shared/models/keml/parser/constructor&#45;pointers.ts&#45;&gt;src/shared/models/keml/msg&#45;info.ts -->
<g id="edge31" class="edge">
<title>src/shared/models/keml/parser/constructor&#45;pointers.ts&#45;&gt;src/shared/models/keml/msg&#45;info.ts</title>
<path fill="none" stroke="#757575" d="M3273.42,-266.83C3244.26,-263.85 3212.99,-260.78 3184,-258.18 2934.71,-235.85 2871.89,-236.35 2622.5,-215.18 2614.51,-214.5 2606.29,-213.79 2598,-213.05"/>
<polygon fill="#757575" stroke="#757575" points="2598.45,-209.58 2588.18,-212.17 2597.83,-216.55 2598.45,-209.58"/>
</g>
<!-- src/shared/models/keml/parser/constructor&#45;pointers.ts&#45;&gt;src/shared/models/keml/author.ts -->
<g id="edge29" class="edge">
<title>src/shared/models/keml/parser/constructor&#45;pointers.ts&#45;&gt;src/shared/models/keml/author.ts</title>
<path fill="none" stroke="#757575" d="M3559.53,-290.03C3567.59,-290.55 3575.62,-291.06 3583.5,-291.57"/>
<polygon fill="#757575" stroke="#757575" points="3583.23,-295.06 3593.44,-292.21 3583.68,-288.07 3583.23,-295.06"/>
</g>
<!-- src/shared/models/keml/parser/constructor&#45;pointers.ts&#45;&gt;src/shared/models/parser/parser.ts -->
<g id="edge32" class="edge">
<title>src/shared/models/keml/parser/constructor&#45;pointers.ts&#45;&gt;src/shared/models/parser/parser.ts</title>
<path fill="none" stroke="#757575" d="M3219.57,-285.91C3211.51,-285.89 3203.49,-285.85 3195.59,-285.78"/>
<polygon fill="#757575" stroke="#757575" points="3195.66,-282.28 3185.63,-285.68 3195.59,-289.28 3195.66,-282.28"/>
</g>
</g>
</svg>
