<?xml version="1.0" encoding="UTF-8" standalone="no"?>
<!DOCTYPE svg PUBLIC "-//W3C//DTD SVG 1.1//EN"
 "http://www.w3.org/Graphics/SVG/1.1/DTD/svg11.dtd">
<!-- Generated by graphviz version 11.0.0 (20240428.1522)
 -->
<!-- Title: G Pages: 1 -->
<svg width="4198pt" height="579pt"
 viewBox="0.00 0.00 4198.45 578.52" xmlns="http://www.w3.org/2000/svg" xmlns:xlink="http://www.w3.org/1999/xlink">
<g id="graph0" class="graph" transform="scale(1 1) rotate(0) translate(21.6 556.92)">
<title>G</title>
<polygon fill="#111111" stroke="none" points="-21.6,21.6 -21.6,-556.92 4176.85,-556.92 4176.85,21.6 -21.6,21.6"/>
<!-- src/editor/details/info&#45;details/info&#45;details.component.ts -->
<g id="node1" class="node">
<title>src/editor/details/info&#45;details/info&#45;details.component.ts</title>
<path fill="none" stroke="#ff6c60" d="M329.83,-158.79C329.83,-158.79 7.92,-158.79 7.92,-158.79 3.96,-158.79 0,-154.83 0,-150.87 0,-150.87 0,-142.96 0,-142.96 0,-139 3.96,-135.04 7.92,-135.04 7.92,-135.04 329.83,-135.04 329.83,-135.04 333.79,-135.04 337.75,-139 337.75,-142.96 337.75,-142.96 337.75,-150.87 337.75,-150.87 337.75,-154.83 333.79,-158.79 329.83,-158.79"/>
<text text-anchor="middle" x="168.88" y="-141.49" font-family="Arial" font-size="14.00" fill="#ff6c60">src/editor/details/info&#45;details/info&#45;details.component.ts</text>
</g>
<!-- src/editor/details/service/details.service.ts -->
<g id="node2" class="node">
<title>src/editor/details/service/details.service.ts</title>
<path fill="none" stroke="#ff6c60" d="M2656.58,-392.79C2656.58,-392.79 2408.17,-392.79 2408.17,-392.79 2404.21,-392.79 2400.25,-388.83 2400.25,-384.87 2400.25,-384.87 2400.25,-376.96 2400.25,-376.96 2400.25,-373 2404.21,-369.04 2408.17,-369.04 2408.17,-369.04 2656.58,-369.04 2656.58,-369.04 2660.54,-369.04 2664.5,-373 2664.5,-376.96 2664.5,-376.96 2664.5,-384.87 2664.5,-384.87 2664.5,-388.83 2660.54,-392.79 2656.58,-392.79"/>
<text text-anchor="middle" x="2532.38" y="-375.49" font-family="Arial" font-size="14.00" fill="#ff6c60">src/editor/details/service/details.service.ts</text>
</g>
<!-- src/editor/details/info&#45;details/info&#45;details.component.ts&#45;&gt;src/editor/details/service/details.service.ts -->
<g id="edge1" class="edge">
<title>src/editor/details/info&#45;details/info&#45;details.component.ts&#45;&gt;src/editor/details/service/details.service.ts</title>
<path fill="none" stroke="#757575" d="M196.42,-159.27C287.62,-207.26 597.94,-375.92 877.12,-375.92 877.12,-375.92 877.12,-375.92 1847,-375.92 2034.08,-375.92 2249.91,-374.4 2388.37,-375.33"/>
<polygon fill="#757575" stroke="#757575" points="2388.32,-378.83 2398.34,-375.4 2388.37,-371.83 2388.32,-378.83"/>
</g>
<!-- src/editor/details/service/msg&#45;details.service.ts -->
<g id="node3" class="node">
<title>src/editor/details/service/msg&#45;details.service.ts</title>
<path fill="none" stroke="#ff6c60" d="M660.83,-158.79C660.83,-158.79 381.67,-158.79 381.67,-158.79 377.71,-158.79 373.75,-154.83 373.75,-150.87 373.75,-150.87 373.75,-142.96 373.75,-142.96 373.75,-139 377.71,-135.04 381.67,-135.04 381.67,-135.04 660.83,-135.04 660.83,-135.04 664.79,-135.04 668.75,-139 668.75,-142.96 668.75,-142.96 668.75,-150.87 668.75,-150.87 668.75,-154.83 664.79,-158.79 660.83,-158.79"/>
<text text-anchor="middle" x="521.25" y="-141.49" font-family="Arial" font-size="14.00" fill="#ff6c60">src/editor/details/service/msg&#45;details.service.ts</text>
</g>
<!-- src/editor/details/info&#45;details/info&#45;details.component.ts&#45;&gt;src/editor/details/service/msg&#45;details.service.ts -->
<g id="edge2" class="edge">
<title>src/editor/details/info&#45;details/info&#45;details.component.ts&#45;&gt;src/editor/details/service/msg&#45;details.service.ts</title>
<path fill="none" stroke="#757575" d="M338.14,-146.92C346.03,-146.92 353.95,-146.92 361.82,-146.92"/>
<polygon fill="#757575" stroke="#757575" points="361.8,-150.42 371.8,-146.92 361.8,-143.42 361.8,-150.42"/>
</g>
<!-- src/shared/models/keml/msg&#45;info.ts -->
<g id="node4" class="node">
<title>src/shared/models/keml/msg&#45;info.ts</title>
<path fill="none" stroke="#ff6c60" d="M4147.33,-269.79C4147.33,-269.79 3932.67,-269.79 3932.67,-269.79 3928.71,-269.79 3924.75,-265.83 3924.75,-261.87 3924.75,-261.87 3924.75,-253.96 3924.75,-253.96 3924.75,-250 3928.71,-246.04 3932.67,-246.04 3932.67,-246.04 4147.33,-246.04 4147.33,-246.04 4151.29,-246.04 4155.25,-250 4155.25,-253.96 4155.25,-253.96 4155.25,-261.87 4155.25,-261.87 4155.25,-265.83 4151.29,-269.79 4147.33,-269.79"/>
<text text-anchor="middle" x="4040" y="-252.49" font-family="Arial" font-size="14.00" fill="#ff6c60">src/shared/models/keml/msg&#45;info.ts</text>
</g>
<!-- src/editor/details/info&#45;details/info&#45;details.component.ts&#45;&gt;src/shared/models/keml/msg&#45;info.ts -->
<g id="edge3" class="edge">
<title>src/editor/details/info&#45;details/info&#45;details.component.ts&#45;&gt;src/shared/models/keml/msg&#45;info.ts</title>
<path fill="none" stroke="#757575" d="M210.92,-134.62C251.84,-122.74 316.66,-104.98 373.75,-93.92 595.21,-51.01 651.55,-28.92 877.12,-28.92 877.12,-28.92 877.12,-28.92 3468.62,-28.92 3655.47,-28.92 3724.53,45.2 3888.75,-43.92 3966.93,-86.34 4013.45,-189.19 4030.98,-235.11"/>
<polygon fill="#757575" stroke="#757575" points="4027.63,-236.14 4034.38,-244.31 4034.2,-233.72 4027.63,-236.14"/>
</g>
<!-- src/editor/details/service/details.service.ts&#45;&gt;src/editor/details/info&#45;details/info&#45;details.component.ts -->
<g id="edge8" class="edge">
<title>src/editor/details/service/details.service.ts&#45;&gt;src/editor/details/info&#45;details/info&#45;details.component.ts</title>
<path fill="none" stroke="#757575" d="M2399.86,-388.86C2262.07,-392.32 2039.34,-393.92 1847,-393.92 877.12,-393.92 877.12,-393.92 877.12,-393.92 596.11,-393.92 283.55,-223.05 194.65,-165.39"/>
<polygon fill="#757575" stroke="#757575" points="196.69,-162.54 186.42,-159.93 192.82,-168.38 196.69,-162.54"/>
</g>
<!-- src/editor/details/service/details.service.ts&#45;&gt;src/shared/models/keml/msg&#45;info.ts -->
<g id="edge10" class="edge">
<title>src/editor/details/service/details.service.ts&#45;&gt;src/shared/models/keml/msg&#45;info.ts</title>
<path fill="none" stroke="#757575" d="M2622.59,-368.58C2647.75,-365.41 2675.17,-362.24 2700.5,-359.92 2899.22,-341.69 2949.19,-333.92 3148.75,-333.92 3148.75,-333.92 3148.75,-333.92 3468.62,-333.92 3655.65,-333.92 3705.27,-346.18 3888.75,-309.92 3927.94,-302.17 3970.84,-286.56 4000.73,-274.46"/>
<polygon fill="#757575" stroke="#757575" points="4001.81,-277.8 4009.72,-270.75 3999.14,-271.33 4001.81,-277.8"/>
</g>
<!-- src/shared/models/keml/conversation&#45;partner.ts -->
<g id="node8" class="node">
<title>src/shared/models/keml/conversation&#45;partner.ts</title>
<path fill="none" stroke="#ff6c60" d="M2993.58,-392.79C2993.58,-392.79 2708.42,-392.79 2708.42,-392.79 2704.46,-392.79 2700.5,-388.83 2700.5,-384.87 2700.5,-384.87 2700.5,-376.96 2700.5,-376.96 2700.5,-373 2704.46,-369.04 2708.42,-369.04 2708.42,-369.04 2993.58,-369.04 2993.58,-369.04 2997.54,-369.04 3001.5,-373 3001.5,-376.96 3001.5,-376.96 3001.5,-384.87 3001.5,-384.87 3001.5,-388.83 2997.54,-392.79 2993.58,-392.79"/>
<text text-anchor="middle" x="2851" y="-375.49" font-family="Arial" font-size="14.00" fill="#ff6c60">src/shared/models/keml/conversation&#45;partner.ts</text>
</g>
<!-- src/editor/details/service/details.service.ts&#45;&gt;src/shared/models/keml/conversation&#45;partner.ts -->
<g id="edge9" class="edge">
<title>src/editor/details/service/details.service.ts&#45;&gt;src/shared/models/keml/conversation&#45;partner.ts</title>
<path fill="none" stroke="#757575" d="M2664.9,-380.92C2672.81,-380.92 2680.81,-380.92 2688.83,-380.92"/>
<polygon fill="#757575" stroke="#757575" points="2688.64,-384.42 2698.64,-380.92 2688.64,-377.42 2688.64,-384.42"/>
</g>
<!-- src/editor/details/service/msg&#45;details.service.ts&#45;&gt;src/shared/models/keml/msg&#45;info.ts -->
<g id="edge14" class="edge">
<title>src/editor/details/service/msg&#45;details.service.ts&#45;&gt;src/shared/models/keml/msg&#45;info.ts</title>
<path fill="none" stroke="#757575" d="M669.01,-139.4C913.03,-127.56 1417.66,-105.92 1845,-105.92 1845,-105.92 1845,-105.92 3468.62,-105.92 3656.03,-105.92 3714.13,-73.89 3888.75,-141.92 3943.06,-163.07 3994.04,-210.36 4020.37,-237.58"/>
<polygon fill="#757575" stroke="#757575" points="4017.56,-239.7 4026.99,-244.55 4022.64,-234.89 4017.56,-239.7"/>
</g>
<!-- src/editor/details/msg&#45;details/msg&#45;details.component.ts -->
<g id="node5" class="node">
<title>src/editor/details/msg&#45;details/msg&#45;details.component.ts</title>
<path fill="none" stroke="#ff6c60" d="M1043.58,-178.79C1043.58,-178.79 712.67,-178.79 712.67,-178.79 708.71,-178.79 704.75,-174.83 704.75,-170.87 704.75,-170.87 704.75,-162.96 704.75,-162.96 704.75,-159 708.71,-155.04 712.67,-155.04 712.67,-155.04 1043.58,-155.04 1043.58,-155.04 1047.54,-155.04 1051.5,-159 1051.5,-162.96 1051.5,-162.96 1051.5,-170.87 1051.5,-170.87 1051.5,-174.83 1047.54,-178.79 1043.58,-178.79"/>
<text text-anchor="middle" x="878.12" y="-161.49" font-family="Arial" font-size="14.00" fill="#ff6c60">src/editor/details/msg&#45;details/msg&#45;details.component.ts</text>
</g>
<!-- src/editor/details/service/msg&#45;details.service.ts&#45;&gt;src/editor/details/msg&#45;details/msg&#45;details.component.ts -->
<g id="edge13" class="edge">
<title>src/editor/details/service/msg&#45;details.service.ts&#45;&gt;src/editor/details/msg&#45;details/msg&#45;details.component.ts</title>
<path fill="none" stroke="#757575" d="M669.15,-155.19C677.06,-155.64 685.05,-156.09 693.06,-156.54"/>
<polygon fill="#757575" stroke="#757575" points="692.69,-160.03 702.87,-157.09 693.08,-153.04 692.69,-160.03"/>
</g>
<!-- src/shared/models/keml/msg&#45;info.ts&#45;&gt;src/shared/models/keml/conversation&#45;partner.ts -->
<g id="edge26" class="edge">
<title>src/shared/models/keml/msg&#45;info.ts&#45;&gt;src/shared/models/keml/conversation&#45;partner.ts</title>
<path fill="none" stroke="#757575" d="M4034.55,-270.08C4020.25,-307.08 3971.54,-418.31 3888.75,-459.92 3537.41,-636.46 3033.36,-455.37 2890.85,-397.44"/>
<polygon fill="#757575" stroke="#757575" points="2892.44,-394.31 2881.86,-393.75 2889.78,-400.78 2892.44,-394.31"/>
</g>
<!-- src/shared/models/parser/parser.ts -->
<g id="node13" class="node">
<title>src/shared/models/parser/parser.ts</title>
<path fill="none" stroke="#ff6c60" d="M3254.08,-425.79C3254.08,-425.79 3045.42,-425.79 3045.42,-425.79 3041.46,-425.79 3037.5,-421.83 3037.5,-417.87 3037.5,-417.87 3037.5,-409.96 3037.5,-409.96 3037.5,-406 3041.46,-402.04 3045.42,-402.04 3045.42,-402.04 3254.08,-402.04 3254.08,-402.04 3258.04,-402.04 3262,-406 3262,-409.96 3262,-409.96 3262,-417.87 3262,-417.87 3262,-421.83 3258.04,-425.79 3254.08,-425.79"/>
<text text-anchor="middle" x="3149.75" y="-408.49" font-family="Arial" font-size="14.00" fill="#ff6c60">src/shared/models/parser/parser.ts</text>
</g>
<!-- src/shared/models/keml/msg&#45;info.ts&#45;&gt;src/shared/models/parser/parser.ts -->
<g id="edge27" class="edge">
<title>src/shared/models/keml/msg&#45;info.ts&#45;&gt;src/shared/models/parser/parser.ts</title>
<path fill="none" stroke="#757575" d="M4033.36,-269.91C4016.82,-303.45 3964.8,-397.98 3888.75,-432.92 3778.92,-483.38 3430.33,-449.17 3254.42,-427.66"/>
<polygon fill="#757575" stroke="#757575" points="3254.94,-424.2 3244.59,-426.45 3254.08,-431.15 3254.94,-424.2"/>
</g>
<!-- src/editor/details/msg&#45;details/msg&#45;details.component.ts&#45;&gt;src/shared/models/keml/msg&#45;info.ts -->
<g id="edge7" class="edge">
<title>src/editor/details/msg&#45;details/msg&#45;details.component.ts&#45;&gt;src/shared/models/keml/msg&#45;info.ts</title>
<path fill="none" stroke="#757575" d="M915.94,-179.19C1018.07,-212.11 1314.16,-299.92 1567.25,-299.92 1567.25,-299.92 1567.25,-299.92 1847,-299.92 2425.56,-299.92 2570.19,-295.92 3148.75,-295.92 3148.75,-295.92 3148.75,-295.92 3468.62,-295.92 3621.82,-295.92 3797.64,-282.1 3913.11,-271.13"/>
<polygon fill="#757575" stroke="#757575" points="3913.31,-274.63 3922.93,-270.19 3912.64,-267.66 3913.31,-274.63"/>
</g>
<!-- src/editor/details/service/info&#45;details.service.ts -->
<g id="node6" class="node">
<title>src/editor/details/service/info&#45;details.service.ts</title>
<path fill="none" stroke="#ff6c60" d="M1392.96,-80.79C1392.96,-80.79 1118.29,-80.79 1118.29,-80.79 1114.33,-80.79 1110.38,-76.83 1110.38,-72.87 1110.38,-72.87 1110.38,-64.96 1110.38,-64.96 1110.38,-61 1114.33,-57.04 1118.29,-57.04 1118.29,-57.04 1392.96,-57.04 1392.96,-57.04 1396.92,-57.04 1400.88,-61 1400.88,-64.96 1400.88,-64.96 1400.88,-72.87 1400.88,-72.87 1400.88,-76.83 1396.92,-80.79 1392.96,-80.79"/>
<text text-anchor="middle" x="1255.62" y="-63.49" font-family="Arial" font-size="14.00" fill="#ff6c60">src/editor/details/service/info&#45;details.service.ts</text>
</g>
<!-- src/editor/details/msg&#45;details/msg&#45;details.component.ts&#45;&gt;src/editor/details/service/info&#45;details.service.ts -->
<g id="edge4" class="edge">
<title>src/editor/details/msg&#45;details/msg&#45;details.component.ts&#45;&gt;src/editor/details/service/info&#45;details.service.ts</title>
<path fill="none" stroke="#757575" d="M926.3,-154.6C994.88,-136.71 1121.99,-103.53 1196.33,-84.13"/>
<polygon fill="#757575" stroke="#757575" points="1197.09,-87.55 1205.88,-81.64 1195.32,-80.78 1197.09,-87.55"/>
</g>
<!-- src/editor/helper/info&#45;choice/info&#45;choice.component.ts -->
<g id="node7" class="node">
<title>src/editor/helper/info&#45;choice/info&#45;choice.component.ts</title>
<path fill="none" stroke="#ff6c60" d="M1415.83,-178.79C1415.83,-178.79 1095.42,-178.79 1095.42,-178.79 1091.46,-178.79 1087.5,-174.83 1087.5,-170.87 1087.5,-170.87 1087.5,-162.96 1087.5,-162.96 1087.5,-159 1091.46,-155.04 1095.42,-155.04 1095.42,-155.04 1415.83,-155.04 1415.83,-155.04 1419.79,-155.04 1423.75,-159 1423.75,-162.96 1423.75,-162.96 1423.75,-170.87 1423.75,-170.87 1423.75,-174.83 1419.79,-178.79 1415.83,-178.79"/>
<text text-anchor="middle" x="1255.62" y="-161.49" font-family="Arial" font-size="14.00" fill="#ff6c60">src/editor/helper/info&#45;choice/info&#45;choice.component.ts</text>
</g>
<!-- src/editor/details/msg&#45;details/msg&#45;details.component.ts&#45;&gt;src/editor/helper/info&#45;choice/info&#45;choice.component.ts -->
<g id="edge5" class="edge">
<title>src/editor/details/msg&#45;details/msg&#45;details.component.ts&#45;&gt;src/editor/helper/info&#45;choice/info&#45;choice.component.ts</title>
<path fill="none" stroke="#757575" d="M1051.76,-166.92C1059.75,-166.92 1067.77,-166.92 1075.78,-166.92"/>
<polygon fill="#757575" stroke="#757575" points="1075.56,-170.42 1085.56,-166.92 1075.56,-163.42 1075.56,-170.42"/>
</g>
<!-- src/editor/details/msg&#45;details/msg&#45;details.component.ts&#45;&gt;src/shared/models/keml/conversation&#45;partner.ts -->
<g id="edge6" class="edge">
<title>src/editor/details/msg&#45;details/msg&#45;details.component.ts&#45;&gt;src/shared/models/keml/conversation&#45;partner.ts</title>
<path fill="none" stroke="#757575" d="M890.86,-179C920.49,-208.6 1002.12,-284.46 1087.5,-313.92 1289.32,-383.54 1353.76,-337.92 1567.25,-337.92 1567.25,-337.92 1567.25,-337.92 2190.75,-337.92 2401.53,-337.92 2454.38,-343.16 2664.5,-359.92 2689.16,-361.88 2715.59,-364.54 2740.56,-367.31"/>
<polygon fill="#757575" stroke="#757575" points="2740.09,-370.78 2750.42,-368.41 2740.87,-363.82 2740.09,-370.78"/>
</g>
<!-- src/editor/details/service/info&#45;details.service.ts&#45;&gt;src/editor/details/info&#45;details/info&#45;details.component.ts -->
<g id="edge11" class="edge">
<title>src/editor/details/service/info&#45;details.service.ts&#45;&gt;src/editor/details/info&#45;details/info&#45;details.component.ts</title>
<path fill="none" stroke="#757575" d="M1110.09,-73.93C999.13,-78.22 842.15,-85.24 704.75,-94.92 557.36,-105.3 520.8,-111.46 373.75,-125.92 349.72,-128.28 324.11,-130.86 299.43,-133.39"/>
<polygon fill="#757575" stroke="#757575" points="299.27,-129.89 289.68,-134.39 299.98,-136.85 299.27,-129.89"/>
</g>
<!-- src/editor/details/service/info&#45;details.service.ts&#45;&gt;src/shared/models/keml/msg&#45;info.ts -->
<g id="edge12" class="edge">
<title>src/editor/details/service/info&#45;details.service.ts&#45;&gt;src/shared/models/keml/msg&#45;info.ts</title>
<path fill="none" stroke="#757575" d="M1401.1,-68.53C1520.21,-68.25 1693.56,-67.92 1845,-67.92 1845,-67.92 1845,-67.92 3468.62,-67.92 3655.65,-67.92 3720.03,-11.22 3888.75,-91.92 3954.82,-123.51 4005.02,-198.51 4026.92,-235.91"/>
<polygon fill="#757575" stroke="#757575" points="4023.83,-237.55 4031.82,-244.5 4029.91,-234.08 4023.83,-237.55"/>
</g>
<!-- src/editor/helper/info&#45;choice/info&#45;choice.component.ts&#45;&gt;src/shared/models/keml/msg&#45;info.ts -->
<g id="edge16" class="edge">
<title>src/editor/helper/info&#45;choice/info&#45;choice.component.ts&#45;&gt;src/shared/models/keml/msg&#45;info.ts</title>
<path fill="none" stroke="#757575" d="M1423.94,-156.89C1541.65,-150.7 1702.91,-143.92 1845,-143.92 1845,-143.92 1845,-143.92 3468.62,-143.92 3656.32,-143.92 3707.94,-136.54 3888.75,-186.92 3932.75,-199.18 3979.8,-223.43 4009.29,-240.15"/>
<polygon fill="#757575" stroke="#757575" points="4007.24,-243.01 4017.65,-244.96 4010.73,-236.94 4007.24,-243.01"/>
</g>
<!-- src/editor/msg/msg.component.ts -->
<g id="node9" class="node">
<title>src/editor/msg/msg.component.ts</title>
<path fill="none" stroke="#ff6c60" d="M1668.83,-195.79C1668.83,-195.79 1467.67,-195.79 1467.67,-195.79 1463.71,-195.79 1459.75,-191.83 1459.75,-187.87 1459.75,-187.87 1459.75,-179.96 1459.75,-179.96 1459.75,-176 1463.71,-172.04 1467.67,-172.04 1467.67,-172.04 1668.83,-172.04 1668.83,-172.04 1672.79,-172.04 1676.75,-176 1676.75,-179.96 1676.75,-179.96 1676.75,-187.87 1676.75,-187.87 1676.75,-191.83 1672.79,-195.79 1668.83,-195.79"/>
<text text-anchor="middle" x="1568.25" y="-178.49" font-family="Arial" font-size="14.00" fill="#ff6c60">src/editor/msg/msg.component.ts</text>
</g>
<!-- src/editor/helper/info&#45;choice/info&#45;choice.component.ts&#45;&gt;src/editor/msg/msg.component.ts -->
<g id="edge15" class="edge">
<title>src/editor/helper/info&#45;choice/info&#45;choice.component.ts&#45;&gt;src/editor/msg/msg.component.ts</title>
<path fill="none" stroke="#757575" d="M1424.21,-176.09C1432.2,-176.52 1440.15,-176.96 1447.96,-177.39"/>
<polygon fill="#757575" stroke="#757575" points="1447.63,-180.87 1457.8,-177.93 1448.01,-173.88 1447.63,-180.87"/>
</g>
<!-- src/shared/models/keml/conversation&#45;partner.ts&#45;&gt;src/shared/models/parser/parser.ts -->
<g id="edge25" class="edge">
<title>src/shared/models/keml/conversation&#45;partner.ts&#45;&gt;src/shared/models/parser/parser.ts</title>
<path fill="none" stroke="#757575" d="M2962.92,-393.25C2983.57,-395.55 3005.26,-397.96 3026.24,-400.29"/>
<polygon fill="#757575" stroke="#757575" points="3025.64,-403.75 3035.97,-401.37 3026.41,-396.79 3025.64,-403.75"/>
</g>
<!-- src/editor/msg/msg.component.ts&#45;&gt;src/shared/models/keml/msg&#45;info.ts -->
<g id="edge20" class="edge">
<title>src/editor/msg/msg.component.ts&#45;&gt;src/shared/models/keml/msg&#45;info.ts</title>
<path fill="none" stroke="#757575" d="M1677.24,-183.36C1800.86,-182.76 2009.41,-181.92 2188.75,-181.92 2188.75,-181.92 2188.75,-181.92 3468.62,-181.92 3656.23,-181.92 3703.63,-192.46 3888.75,-222.92 3920.01,-228.06 3954.47,-235.92 3982.49,-242.89"/>
<polygon fill="#757575" stroke="#757575" points="3981.26,-246.2 3991.81,-245.25 3982.97,-239.41 3981.26,-246.2"/>
</g>
<!-- src/editor/new&#45;info/new&#45;info.component.ts -->
<g id="node11" class="node">
<title>src/editor/new&#45;info/new&#45;info.component.ts</title>
<path fill="none" stroke="#ff6c60" d="M1971.33,-233.79C1971.33,-233.79 1720.67,-233.79 1720.67,-233.79 1716.71,-233.79 1712.75,-229.83 1712.75,-225.87 1712.75,-225.87 1712.75,-217.96 1712.75,-217.96 1712.75,-214 1716.71,-210.04 1720.67,-210.04 1720.67,-210.04 1971.33,-210.04 1971.33,-210.04 1975.29,-210.04 1979.25,-214 1979.25,-217.96 1979.25,-217.96 1979.25,-225.87 1979.25,-225.87 1979.25,-229.83 1975.29,-233.79 1971.33,-233.79"/>
<text text-anchor="middle" x="1846" y="-216.49" font-family="Arial" font-size="14.00" fill="#ff6c60">src/editor/new&#45;info/new&#45;info.component.ts</text>
</g>
<!-- src/editor/msg/msg.component.ts&#45;&gt;src/editor/new&#45;info/new&#45;info.component.ts -->
<g id="edge19" class="edge">
<title>src/editor/msg/msg.component.ts&#45;&gt;src/editor/new&#45;info/new&#45;info.component.ts</title>
<path fill="none" stroke="#757575" d="M1658.78,-196.25C1686.13,-200.02 1716.38,-204.19 1744.42,-208.05"/>
<polygon fill="#757575" stroke="#757575" points="1743.57,-211.47 1753.95,-209.37 1744.52,-204.54 1743.57,-211.47"/>
</g>
<!-- src/editor/information&#45;link/information&#45;link.component.ts -->
<g id="node10" class="node">
<title>src/editor/information&#45;link/information&#45;link.component.ts</title>
<path fill="none" stroke="#ff6c60" d="M2356.33,-271.79C2356.33,-271.79 2023.17,-271.79 2023.17,-271.79 2019.21,-271.79 2015.25,-267.83 2015.25,-263.87 2015.25,-263.87 2015.25,-255.96 2015.25,-255.96 2015.25,-252 2019.21,-248.04 2023.17,-248.04 2023.17,-248.04 2356.33,-248.04 2356.33,-248.04 2360.29,-248.04 2364.25,-252 2364.25,-255.96 2364.25,-255.96 2364.25,-263.87 2364.25,-263.87 2364.25,-267.83 2360.29,-271.79 2356.33,-271.79"/>
<text text-anchor="middle" x="2189.75" y="-254.49" font-family="Arial" font-size="14.00" fill="#ff6c60">src/editor/information&#45;link/information&#45;link.component.ts</text>
</g>
<!-- src/editor/information&#45;link/information&#45;link.component.ts&#45;&gt;src/editor/details/service/details.service.ts -->
<g id="edge17" class="edge">
<title>src/editor/information&#45;link/information&#45;link.component.ts&#45;&gt;src/editor/details/service/details.service.ts</title>
<path fill="none" stroke="#757575" d="M2225.29,-272.18C2287.26,-294.2 2417.28,-340.39 2486.23,-364.88"/>
<polygon fill="#757575" stroke="#757575" points="2484.73,-368.06 2495.32,-368.11 2487.07,-361.46 2484.73,-368.06"/>
</g>
<!-- src/editor/information&#45;link/information&#45;link.component.ts&#45;&gt;src/shared/models/keml/msg&#45;info.ts -->
<g id="edge18" class="edge">
<title>src/editor/information&#45;link/information&#45;link.component.ts&#45;&gt;src/shared/models/keml/msg&#45;info.ts</title>
<path fill="none" stroke="#757575" d="M2364.6,-259.1C2497.52,-258.55 2685.33,-257.92 2850,-257.92 2850,-257.92 2850,-257.92 3468.62,-257.92 3621.48,-257.92 3797.37,-257.92 3912.95,-257.92"/>
<polygon fill="#757575" stroke="#757575" points="3912.78,-261.42 3922.78,-257.92 3912.78,-254.42 3912.78,-261.42"/>
</g>
<!-- src/editor/new&#45;info/new&#45;info.component.ts&#45;&gt;src/shared/models/keml/msg&#45;info.ts -->
<g id="edge22" class="edge">
<title>src/editor/new&#45;info/new&#45;info.component.ts&#45;&gt;src/shared/models/keml/msg&#45;info.ts</title>
<path fill="none" stroke="#757575" d="M1979.48,-221.3C2117.34,-220.71 2339.49,-219.92 2531.38,-219.92 2531.38,-219.92 2531.38,-219.92 3468.62,-219.92 3621.82,-219.92 3797.64,-233.73 3913.11,-244.7"/>
<polygon fill="#757575" stroke="#757575" points="3912.64,-248.17 3922.93,-245.64 3913.31,-241.21 3912.64,-248.17"/>
</g>
<!-- src/editor/new&#45;info/new&#45;info.component.ts&#45;&gt;src/editor/information&#45;link/information&#45;link.component.ts -->
<g id="edge21" class="edge">
<title>src/editor/new&#45;info/new&#45;info.component.ts&#45;&gt;src/editor/information&#45;link/information&#45;link.component.ts</title>
<path fill="none" stroke="#757575" d="M1957.96,-234.25C1992.51,-238.1 2030.82,-242.35 2066.12,-246.28"/>
<polygon fill="#757575" stroke="#757575" points="2065.64,-249.75 2075.97,-247.38 2066.42,-242.79 2065.64,-249.75"/>
</g>
<!-- src/shared/models/keml/author.ts -->
<g id="node12" class="node">
<title>src/shared/models/keml/author.ts</title>
<path fill="none" stroke="#ff6c60" d="M3880.83,-423.79C3880.83,-423.79 3681.17,-423.79 3681.17,-423.79 3677.21,-423.79 3673.25,-419.83 3673.25,-415.87 3673.25,-415.87 3673.25,-407.96 3673.25,-407.96 3673.25,-404 3677.21,-400.04 3681.17,-400.04 3681.17,-400.04 3880.83,-400.04 3880.83,-400.04 3884.79,-400.04 3888.75,-404 3888.75,-407.96 3888.75,-407.96 3888.75,-415.87 3888.75,-415.87 3888.75,-419.83 3884.79,-423.79 3880.83,-423.79"/>
<text text-anchor="middle" x="3781" y="-406.49" font-family="Arial" font-size="14.00" fill="#ff6c60">src/shared/models/keml/author.ts</text>
</g>
<!-- src/shared/models/keml/author.ts&#45;&gt;src/shared/models/keml/msg&#45;info.ts -->
<g id="edge23" class="edge">
<title>src/shared/models/keml/author.ts&#45;&gt;src/shared/models/keml/msg&#45;info.ts</title>
<path fill="none" stroke="#757575" d="M3852.88,-399.59C3865.2,-396.08 3877.62,-391.6 3888.75,-385.92 3943,-358.21 3994.35,-307.26 4020.68,-278.71"/>
<polygon fill="#757575" stroke="#757575" points="4023.18,-281.17 4027.3,-271.41 4017.99,-276.46 4023.18,-281.17"/>
</g>
<!-- src/shared/models/keml/author.ts&#45;&gt;src/shared/models/parser/parser.ts -->
<g id="edge24" class="edge">
<title>src/shared/models/keml/author.ts&#45;&gt;src/shared/models/parser/parser.ts</title>
<path fill="none" stroke="#757575" d="M3672.81,-412.26C3562.13,-412.61 3389.67,-413.16 3273.57,-413.53"/>
<polygon fill="#757575" stroke="#757575" points="3273.66,-410.02 3263.67,-413.56 3273.68,-417.02 3273.66,-410.02"/>
</g>
<!-- src/shared/models/keml/parser/constructor&#45;pointers.ts -->
<g id="node14" class="node">
<title>src/shared/models/keml/parser/constructor&#45;pointers.ts</title>
<path fill="none" stroke="#ff6c60" d="M3629.33,-385.79C3629.33,-385.79 3305.92,-385.79 3305.92,-385.79 3301.96,-385.79 3298,-381.83 3298,-377.87 3298,-377.87 3298,-369.96 3298,-369.96 3298,-366 3301.96,-362.04 3305.92,-362.04 3305.92,-362.04 3629.33,-362.04 3629.33,-362.04 3633.29,-362.04 3637.25,-366 3637.25,-369.96 3637.25,-369.96 3637.25,-377.87 3637.25,-377.87 3637.25,-381.83 3633.29,-385.79 3629.33,-385.79"/>
<text text-anchor="middle" x="3467.62" y="-368.49" font-family="Arial" font-size="14.00" fill="#ff6c60">src/shared/models/keml/parser/constructor&#45;pointers.ts</text>
</g>
<!-- src/shared/models/parser/parser.ts&#45;&gt;src/shared/models/keml/parser/constructor&#45;pointers.ts -->
<g id="edge32" class="edge">
<title>src/shared/models/parser/parser.ts&#45;&gt;src/shared/models/keml/parser/constructor&#45;pointers.ts</title>
<path fill="none" stroke="#757575" d="M3206.49,-401.57C3234.26,-397.11 3269.42,-392.17 3304.83,-387.66"/>
<polygon fill="#757575" stroke="#757575" points="3304.83,-391.18 3314.32,-386.46 3303.96,-384.24 3304.83,-391.18"/>
</g>
<!-- src/shared/models/keml/parser/constructor&#45;pointers.ts&#45;&gt;src/shared/models/keml/msg&#45;info.ts -->
<g id="edge30" class="edge">
<title>src/shared/models/keml/parser/constructor&#45;pointers.ts&#45;&gt;src/shared/models/keml/msg&#45;info.ts</title>
<path fill="none" stroke="#757575" d="M3637.53,-381.6C3715.55,-380.59 3808.48,-372.81 3888.75,-347.92 3937.59,-332.77 3987.1,-298.68 4015.33,-277.08"/>
<polygon fill="#757575" stroke="#757575" points="4017.46,-279.85 4023.19,-270.94 4013.16,-274.33 4017.46,-279.85"/>
</g>
<!-- src/shared/models/keml/parser/constructor&#45;pointers.ts&#45;&gt;src/shared/models/keml/conversation&#45;partner.ts -->
<g id="edge29" class="edge">
<title>src/shared/models/keml/parser/constructor&#45;pointers.ts&#45;&gt;src/shared/models/keml/conversation&#45;partner.ts</title>
<path fill="none" stroke="#757575" d="M3297.58,-375.84C3208.91,-376.85 3100.85,-378.08 3013.35,-379.08"/>
<polygon fill="#757575" stroke="#757575" points="3013.43,-375.58 3003.47,-379.19 3013.51,-382.58 3013.43,-375.58"/>
</g>
<!-- src/shared/models/keml/parser/constructor&#45;pointers.ts&#45;&gt;src/shared/models/keml/author.ts -->
<g id="edge28" class="edge">
<title>src/shared/models/keml/parser/constructor&#45;pointers.ts&#45;&gt;src/shared/models/keml/author.ts</title>
<path fill="none" stroke="#757575" d="M3569.72,-386.25C3600.93,-390.06 3635.5,-394.28 3667.44,-398.18"/>
<polygon fill="#757575" stroke="#757575" points="3666.76,-401.62 3677.11,-399.36 3667.61,-394.67 3666.76,-401.62"/>
</g>
<!-- src/shared/models/keml/parser/constructor&#45;pointers.ts&#45;&gt;src/shared/models/parser/parser.ts -->
<g id="edge31" class="edge">
<title>src/shared/models/keml/parser/constructor&#45;pointers.ts&#45;&gt;src/shared/models/parser/parser.ts</title>
<path fill="none" stroke="#757575" d="M3411.09,-386.23C3373.02,-392.34 3320.99,-399.37 3273.45,-404.98"/>
<polygon fill="#757575" stroke="#757575" points="3273.15,-401.49 3263.62,-406.12 3273.96,-408.44 3273.15,-401.49"/>
</g>
</g>
</svg>
