<?xml version="1.0" encoding="UTF-8"?>
<svg xmlns="http://www.w3.org/2000/svg" fill-opacity="1" color-rendering="auto" color-interpolation="auto" text-rendering="auto" stroke="black" stroke-linecap="square" width="68" stroke-miterlimit="10" shape-rendering="auto" stroke-opacity="1" fill="black" stroke-dasharray="none" font-weight="normal" stroke-width="1" height="114" font-style="normal" stroke-linejoin="miter" font-size="12px" stroke-dashoffset="0" image-rendering="auto">
    <g text-rendering="geometricPrecision" shape-rendering="geometricPrecision" transform="matrix(0.9,0,0,1.0807,15,24)">
        <svg xmlns:svg="http://www.w3.org/2000/svg" opacity="1" writing-mode="lr-tb" stop-color="rgb(0, 0, 0)" shape-rendering="auto" lighting-color="rgb(255, 255, 255)" color="rgb(0, 0, 0)" font-weight="400" alignment-baseline="auto" font-style="normal" color-interpolation-filters="linearrgb" text-anchor="start" stroke-linecap="butt" color-interpolation="srgb" font-variant="normal" word-spacing="normal" fill-opacity="1" text-rendering="auto" clip-path="none" text-decoration="none" letter-spacing="normal"  display="inline" font-size-adjust="none" overflow="hidden" fill="rgb(0, 0, 0)" font-stretch="normal" stroke-dasharray="none" id="svg1.svg2" stroke-miterlimit="4" stop-opacity="1" color-rendering="auto" font-size="12" pointer-events="visiblepainted" mask="none" direction="ltr" baseline-shift="baseline" fill-rule="nonzero" image-rendering="auto" stroke-dashoffset="0" marker-end="none" width="41" clip="auto" cursor="auto" stroke="none" filter="none" visibility="visible" kerning="auto" stroke-width="1" font-family="&quot;Arial&quot;,&quot;Helvetica&quot;,sans-serif" flood-opacity="1" clip-rule="nonzero" src="none" height="68.997391" unicode-bidi="normal" stroke-linejoin="miter" stroke-opacity="1" flood-color="rgb(0, 0, 0)" dominant-baseline="auto" marker-start="none" marker-mid="none">
          <g transform="translate(-29.5,-43)">
            <a id="svg1.a3142" transform="matrix(1.0873906,0,0,1,-4.5,0)">
              <path transform="translate(11,5)" style="fill:none;fill-rule:evenodd;stroke:#000000;stroke-width:1px;stroke-linecap:butt;stroke-linejoin:miter;stroke-opacity:1" id="svg1.path2160" d="M 47 47 A 8.5 9 0 1 1  30,47 A 8.5 9 0 1 1  47 47 z" />
            </a>
            <path style="fill:none" d="M 47 47 A 4 0 0 1 1  40,47 A 4 0 0 1 1  47 47 z" id="svg1.path3134"/>
            <path style="fill:none;fill-rule:evenodd;stroke:#000000;stroke-width:1px;stroke-linecap:butt;stroke-linejoin:miter;stroke-opacity:1" d="M 50,61 C 50,91 50,92 50,92" id="svg1.path3136"/>
            <path style="fill:none;fill-rule:evenodd;stroke:#000000;stroke-width:1px;stroke-linecap:butt;stroke-linejoin:miter;stroke-opacity:1" d="M 70,72 C 70,72 70,72 50,72 C 30,72 30,72 30,72 L 30,72" id="svg1.path3138"/>
            <path style="fill:none;fill-rule:evenodd;stroke:#000000;stroke-width:1px;stroke-linecap:butt;stroke-linejoin:miter;stroke-opacity:1" d="M 30,111.5 C 30,111.5 30,111.5 50,92 C 70,111.5 70,111.5 70,111.5" id="svg1.path3140"/>
          </g>
        </svg>
    </g>
</svg>
